<mxfile host="app.diagrams.net" modified="2023-08-18T14:09:18.829Z" agent="Mozilla/5.0 (Windows NT 10.0; Win64; x64) AppleWebKit/537.36 (KHTML, like Gecko) Chrome/115.0.0.0 Safari/537.36" etag="AqN4Pv8NQd-d6q1MqVdd" version="21.6.8" type="github">
  <diagram name="Page-1" id="ZUIsltq2YpgRCT5jnctE">
    <mxGraphModel dx="2029" dy="1109" grid="0" gridSize="10" guides="1" tooltips="1" connect="1" arrows="1" fold="1" page="1" pageScale="1" pageWidth="1600" pageHeight="900" background="#37474F" math="0" shadow="0">
      <root>
        <mxCell id="0" />
        <mxCell id="1" parent="0" />
        <mxCell id="PVorNcmFDbXd92xEUqX--1" value="Greenhouse" style="shape=image;verticalLabelPosition=bottom;labelBackgroundColor=none;verticalAlign=top;aspect=fixed;imageAspect=0;image=data:image/png,iVBORw0KGgoAAAANSUhEUgAAAKgAAACaCAMAAAAKJ/MgAAAAAXNSR0IArs4c6QAAAARnQU1BAACxjwv8YQUAAAMAUExURQAAAP///////////////////////////////////////////////////////////////////////////////////////////////////////////////////////////////////////////////////////////////////////////////////////////////////////////////////////////////////////////////////////////////////////////////////////////////////////////////////////////////////////////////////////////////////////////////////////////////////////////////////////////////////////////////////////////////////////////////////////////////////////////////////////////////////////////////////////////////////////////////////////////////////////////////////////////////////////////////////////////////////////////////////////////////////////////////////////////////////////////////////////////////////////////////////////////////////////////////////////////////////////////////////////////////////////////////////////////////////////////////////////////////////////////////////////////////////////////////////////////////////////////////////////////////////////////////////////////wc9CwgAAAD/dFJOUwABAgMEBQYHCAkKCwwNDg8QERITFBUWFxgZGhscHR4fICEiIyQlJicoKSorLC0uLzAxMjM0NTY3ODk6Ozw9Pj9AQUJDREVGR0hJSktMTU5PUFFSU1RVVldYWVpbXF1eX2BhYmNkZWZnaGlqa2xtbm9wcXJzdHV2d3h5ent8fX5/gIGCg4SFhoeIiYqLjI2Oj5CRkpOUlZaXmJmam5ydnp+goaKjpKWmp6ipqqusra6vsLGys7S1tre4ubq7vL2+v8DBwsPExcbHyMnKy8zNzs/Q0dLT1NXW19jZ2tvc3d7f4OHi4+Tl5ufo6err7O3u7/Dx8vP09fb3+Pn6+/z9/usI2TUAAAAJcEhZcwAAFxEAABcRAcom8z8AABJKSURBVHhe7Zx7nE7VGse3GeR6GNIpEUdCKONSKJ1GdXLp6kh1IqTknKh0USGlQ4dSnZBLUq6Rik65jhRlmJRISSUZDBPDTDODMZiZfdZ6nt9ae737fffMu8dc3j6fvn+wnmfv/b6/2Ze1nvU8a79W8RN99a110Ixkyvf7xrbTx9eFGbH02mwTKaMi+qzeuJZlSpKG/gneiKPzCmgEOwdVxJaIosMS6DP4pm80tkYMsfPzIC6QjT2wQ2TQbPIJCJO8NyEdLcnqv2GnsueCl49ClGR5nGU1mpgFS7L8auxYtpw71jx/n3Znb9MZp+CRvNuevWVIrRHJECP5oifcgkvnGndt7qwWcJcNVYb8AiWSrb2j4Gc6LsYGSc7UC+EufcrfuwMqJDvurwS/Q+eV2ChJf6k+3KVLVG+MlsSeh6vBH0iXT7GD5OCzf4a7FLl5Pb5dcuDJmnAH0yMBO0kODKsOdylx3Wp8syT1ufPgDklUHxFPaX4eUgX+UuDKD/GtksxXGsDtSYX7fsTOkm39y8NfwrSdn4uvFJyY1hjuAqn+0C4cINnUC+6S5OKZRk9+6q2wu8eYp/bjIMn6m+AuKf4yKRtfJch/9zK4w+Kcf6fhQMnKa+EuCc4ffwRfI1nWCe6wueDFTBwreb+kxtVaw1PwFZLV18Hti6ZTj+N4ydxL4C5Oqj26Fx8v+fxmuH3TctZpfIYge+bFcBcXlf5pdjBf3wl3kWizEB8jyXr5L3AXB9F9tuJzJd+fcT/YyeyH08YU23y1RyI+U7JzcFW4z4Tr1+DjJAdGxMB9RnQ1w4rkYTXgPlMCYoVdD4UOaXwQtwyfJTn0dG24i4FyvTbhYyU77q0Af5FotwifI0kfdz7cxUSFAd/hoyVb7oLbPy1mG5OJo6+VQIReabAZAiTcArc/mkw9hg8QnHqzuDs8UONxs3uO9z+1rvdiBg4W5M1rBXcJUGfUr/gayUdXwB0eZ49OxYGSJR3hLiHqjjdPyqJ2cBdOjSfNKfCqa+AuQRr+17jNct4IL3as/MBPOEKyDgmFkqb5jBx8o+D4xAvg9ia6/7fYW7LxNrhLgdZvG31M+guFdIW9vsKekm/vDkwolDTtzcRlyqiz4Q7BTeuwl+THgaWfho1bji+X7HnEY1wN2Cvp4VKegIMbPocAyU+hUtYdzETRgZEFnPcSpucXECHZ6k5Zt37bmAKnjSmDzItD9F1bIESy0UgQWk2mGwnjzAmF9w0lTKVBP0CM5NPr4a5nJoyzpzeDu0ypOtQMAVZQynq4MQXOXxhL+0UAMc8cgihB/owK1jVoSxZ3wF4RQb1xRsJitPUKWuIEl2Tuokg0mqxDgN+sN9Fa1xVb3bQIKwtm0qglGmFTO9ZjKtZkusp0WW/Qf196DernfXIye6KvkTTq5eOn1vqbtPRMzt3tFTK3mc89EgvdXxnuIGjz7TDC4u/yiLkwwuI8WZTa7zm9nSU/EEJ3eZ2zaJrTvAkrLKbJI5KCCw/e3CiPsK+EFcQk2sxCd3vFH5X3yc3vwAqLOfKI/X5SCrfLI2zVrQcxhTYXJnSP3LwAVljQlUr2Lj4Ec5s8wvac152B0Nqt4rp188oYhRRapVmnLt29JrIhhUY3aH9dd5rpFVFo1S4TEn6VEUxSW3hcBAtt88TSPfLRPTEYDhfBQusPmLODJnwLhbAiCW00Zqd0EJ/A58IltOoAJ8l0oh6cgbiFdl7gzEp7F0lo7XFmIflI6A4lUOg939O+IHSJIVDoVfFkgmlFEdo7SRqatNB3qSk01swuCv5OXjem0JjJRmAseMO/0CrTZdPgUOhVOIbQ+8zlBZLQc29D6OXmHFgy2bfQc83JDOFxkCN0Au1mchXv4sIR2tP9l9nP+xV6vlHPTHqf4q+vsI8LFio6/BmywWSsoARjXnPsE4gW2teZ2ecmfkz/D/UldKFVR+s8saBb1cqUmfoI+7hgoVV5KCU2DKxnvSsb6aHvaiX09nxqCHaPibXuppYIlnwInWV9Iv+TvNNaeDtRcyLv4oaE7rOepH0Em+SCogq7ZfPb0FUKFto2Vk3cDj4u734SZrfxJXTGWPmvYC+nWp8g415qB0FCt/enXWz71EhKebeii7qYdgiChOb1VRO6RdTbRtHNcriWL6GH0GXEo8Pm28cjPUhCM/BUJGPW8AhZI9hwQ0JzD9Iutv0YO1tS3Wy9aPkQChbgytWnwu0+jwUCJBT81BTOz8jsDMsFX3rm1B1wPkXmi6LlW+gHKmkxlEyv2M8Quk/NYprT6fnVI0tkCu0DX7ltZHYRTb9CN6uUVXmuZaiPdOMIPa7LxzyDXAjLjSH0Kbisa8n8VT5VPoVmXgSXdQfZ6V7ZKUfo/fBYdTnI8FpP6Ah9Hx7L4jUrYgD1LfQBeKyK/HS+BTMILXQ5HOqr9nnVJrXQVL2Iphs7aCTzJ3SznlWNZIfnqgAl9ISOk9vxlPc5mEFooUPgsCpvJ3tTOWn4E3oDHFbbk2SvhhmMEioCNOYsLk1neK45UkJ3ahXIivDs15fQr+hvE9RAfPlX2MFAaE4T2BairnEwg1FC9QntyfY33B26hcaMj186f/w9sQETXSV0EOwKS9l+l6yBS1csmvRQ58AZJ4R+CNMaxnaKGGPE4Ds/fskbw28NTGxC6BFVEe6AlSfI3biERqOMnPvjVKNfhtAsZHbPeo9MO7OhtIawYR/8oK+hFUJVx/0wm/bd0miF4fzYuieMyiqEzoPZEcW4RbBdQluTySTcpfp2CF3JVn0VmwyUVgVjreOeZ86hPQQsNAN/2jiy1DA/EZYga46eHEIo/rTbMGFKOZdtt9CbyFQkYg0OhD5Jxs24D+z5ZMaYZUh7v5pistDPqN1ELXhP4r/DrBPYJ6dACgvNpvuh2otkCLrRNoFLaHcyHV45S+4EobLK2HwuNQVf8xhV01xdJFjNAzsLnSBatUaquWA2qqlm+V+wmyd7LHSbaEXdziOnQI9RbqFxZBqsl/chCz0aU63LbJ2q3E03qJhEUYxpcOhG6Waht0W1/Y+uqOaptXi4fx1GSy8LnW01HOQsXplC+xMuobFkGlU+O0nEyCw0a4mh6SeV5I+iqN88IlfeuyQm/+OvdLhun9ZrG5yssWKW6IJwRlcZpYSpOEDiEtqAztiKHtMoLUYcbK0uvcEmp2uhRyvlllFGWVLcqEFn7TdnMRd3VUMHLXPWk70TZfVC02Es9idcQquQpI3i1hugyzzJDSyzOCGZZZT9SNIpMeBc+wFtk9wVJHSznLwAPncDxFPmrFuYad2KliKtN3ZnXEI5ts2S41yFB3+TbcGXtc0FZOLRpt5QwdMiWlV2vVrvfKJl4OU9/YIZirSl+4E6zKZv03bBPzujAZa7Ckhuoa+RTc+DdbGaxC8yhWZPDByuuaPg276y6iK3foQGsTJw5UUNKsn8zCuH7sEAdHymczvb9ncB50LiFtqXbIQSlSgdK3A+Y+fz7lJZPbrTfkac8C/zsSLS5sTxJge6rfMvZ+Ny9TjoL8lb1z94guMW2pjCor0qmz9TWiAvJfGlbsHRZDkur6o3QfqQBTK2v3V3iIrDs7RxPKymzoMrbppdHz0aco2NW2i5L8mhaqTl/kcmsdwjaTuGts6Gpcd+waGWKtwKpCNt1Wcj1skv2v28Ch5uodYocqzlrZZV3RnKvWocl9HWY/qFhdfJluzzKDZU5PUq+j7sQSbhGTgGCW3Ggbi+rzroVdcqP+omikPil2BaVfTf5iRyXTxPm7fplAmrkKj8aBBBQi1+sSORtkpeIlvgJRQX+7iu7fHcUeAptCn/9Sq+tf6kb1MfQhGX6Ex7LVXf9RRaiwOopTAtSy1f8RSKPVL1e6P3ki3wIRSPU5ZeH4V5nLdQPMXOJKI1FjB7C23PO+i/DZNaX0KtruSyt6mMRh2MUG6h5c5p1qYV3Wa1ONTL0WU3BKBBQms0jm3HmQBKQNr202QIBrMdJLTSBZdc1kg2Qgi1MGYvU4tO32I7QGjzIfO+S83OO72JPuU+3iNFpWipEuoSWvfOKYkHjp7OT6aurzHixXtomzgbqMqbQqtfN3ZV0m8n7Sz5nIYS2hCn8EOEHjjFjtBqA9bp1ekfkAflhD0IPapzUs4Qes18vcQineL8x9jIp/mMANG0I7TFBGdVqYi8QgnFOCoefc4eVOcVk0poxQfMof8w3SEX4oQcRsLmHbK00L8ZLwljelFO1WfG8cyMU8ta6IUzjJU49mseQnVCO20QDS28Dh1CrzBXj+vyDS62bU8m+1/UhtC6s8nScPmm7gGYaynFymO3EjrMGKwEM72EVuQkrWBDLzGmPU5NFjpcDwBMKgpiI2Dbe4fVE7cwNVnoDe5olmMz60oVN+dMkYttuGRDQhusoraD5xm1am4kv+T7F+Lup4YUWmkBNQ320PRPoAcG+8jcOzrQrUBCHyKfiYpfbtJ/c+6KB5tzTyGFdjCjFGKcp1ArRp9TAT+hQmh1w3vsC7o8W3TcweMik0MXUgr9N9lE/nZ6LTNfv8TS3Sgo5fObR0JoV8ObxMPzY95CrSoqFtUstCo5Oj8f3KgmDVkrsL9gsLFKlUiursYCwc6xl0XTo53pLKW7win+guutOD2TSp/ZtXI/aon5g6dQy3rQfBdZMBfPsmC9fHDbUaRrzGitTuaKekGy7j/sfQ/KSJa6ix+MlwLORXZIc3l91Y2dek120ZOp3b5AoVbLgPmEPVVFmhlDKE3KN59O7UpqTDA7FXt7d2W+TmfxYup9nZhA0i8gL5B/ywa0NvAyMZqFyZ63IKHidjffENmNa7L1Ut7If4ZrIXqrWcYdloosyvG+vHEQWZRucKj9rPHs5Kp74VXW0pjupk2iVbBQy/rrNPOtA8lapO3r0LN0MKi4fOGITa579bCq0vKDHbQGLKb/cjXhVTyOTXwRJ4lWYULFzPLKIbONdwETVazCkdn/YAXQot9/jZRFplrA35A+Ji3UKzHn3zLafA+H03ECvhFuFa3ChUqc+2i3fmR5TqdrHi6c+UiezqePJlvndl0Y+blX4bLa0/NKf1pYQp2UzkldXehC9jGvVW1OpkRHcjU5UvGqTHH+RPKZ7pq5T6DKlE+hz8KjJsnvwQxCC92olydz15/qtWhLC83Sef8OnCSgm9qf0J16WskPsO25hlMJzUWawbKa8Pj2CswgtFB9MqL4Dt1O/a4/ofqyNeLkLJeAQqGEOrVSHtVydOnPjRJ6QPcjXGfHY+BL6A41vy2Pbtn7vVAIzdVJvOfYMR1mMEqorpJfzTHLLr6KvoSiiK4nJx/DDAGEroFp8ZhtZ4RenCWB0Cz1eDbFaIH8rx+hXAgQcMrPPokhKhQQqqZE/8DU5RHYIYBQtT6iCcYodTL8CEWep8o8sjyXMhAs9DjyPCpK+Nz1hoIJhPZjqyMuou4C/AgdRUZbNRWJ93ySBCyU8y1nq5xgWkFvFrLQHM63PKBiPUQJ/oTK/qzOWDWcJqlSVUhYqByko/v+TG1Bge/9s9Ad8pxfoacizhogH0KzY6xLxuuqUlrBbwqy0Dutuvc7Pw/isR4TsNAFVrVui/XCvMXORfMhNGPSBmdp35FC3v8nofkLFhsLI1VE5AELTZhp/IrMh0ba0s+lN9jVBpu84DNqkOcVvijwMBm8aUwFiih0pXd3CNxC96jMgiduoad1rEcURejR4QU974xL6MLCf5jOJXSL6+ehiiB0STgv3AYI3RJ6aWsgAUIPj3Rn1f0KzZwb3q9oGEI/66NyFAViCP1hePAvGPkRmrfr/YGoKRcKhKZ8OkrHeYUAoVlbXu0eqjLiQ+jHLX38nAIJTY3zqPiEgoU+7PWrFT6EzoEVFiR0bwFDexAs1PNdER9CVX40LEhosp+fimChnr3YH0LlEX8I/UNoOBSH0LNI6NuwwoKmf8l+3iXncoVnoiAsoeWT5GZeORYm9P6m56LWUHAt3POnJkIIbTlv44YAEhIpj3g4AXYYJFDaPOeL8A9Zz8Wr7a4jEpfhx5qChZ5j/phGJMAzrWChA8gTQXAqPVjoM+SJIDZ7COVFJRHE70YovzHlITRv7dLlZc9SqjkVKDSn0GlmqUDLAAoWSgsbyhwqcxUs1Pd7/yXC714oZb6fls0IufS0LJKFcvKYhf5CHlrKkFPmP6dC0MP0JTXNHwLIXrN69epVVPvMS4gX7bImntZRZMrmKo5AWOjvgIAFrZHM70co9UmRzy/WRbw8KtIZaFkd56yJj3DWLOlv/R+9iIWz0ZbBagAAAABJRU5ErkJggg==;fontSize=27;fontColor=#DDB64B;" vertex="1" parent="1">
          <mxGeometry x="70" y="354" width="168" height="154" as="geometry" />
        </mxCell>
        <mxCell id="PVorNcmFDbXd92xEUqX--8" style="edgeStyle=orthogonalEdgeStyle;shape=connector;rounded=0;orthogonalLoop=1;jettySize=auto;html=1;exitX=1;exitY=0.5;exitDx=0;exitDy=0;entryX=0.5;entryY=0;entryDx=0;entryDy=0;dashed=1;labelBackgroundColor=default;strokeColor=#FFFFFF;strokeWidth=4;fontFamily=Helvetica;fontSize=11;fontColor=default;endArrow=classic;" edge="1" parent="1" source="PVorNcmFDbXd92xEUqX--2" target="PVorNcmFDbXd92xEUqX--5">
          <mxGeometry relative="1" as="geometry" />
        </mxCell>
        <mxCell id="PVorNcmFDbXd92xEUqX--2" value="Airflow sensor" style="shape=image;verticalLabelPosition=bottom;labelBackgroundColor=none;verticalAlign=top;aspect=fixed;imageAspect=0;image=data:image/png,iVBORw0KGgoAAAANSUhEUgAAAMoAAACOCAMAAABHcmfgAAAAAXNSR0IArs4c6QAAAARnQU1BAACxjwv8YQUAAABjUExURQAAAP///////////////////////////////////////////////////////////////////////////////////////////////////////////////////////////////5pFDaAAAAAgdFJOUwAIEBggKDA4QEhQWGBocHiAh4+Xn6evt7/Hz9ff5+/3v+H4wgAAAAlwSFlzAAAXEQAAFxEByibzPwAAB9JJREFUeF7tnet6qkoMhj21pdYqra1S6+n+r3Jh8iGBEK2SYXA/+/0jSYZkUuRghpkO/seF4TRNl1m2TtNkDNVDMp6vj4JsPoHh0Rh9HpBDyeoJxkdimO7R/SrLh/uePf2i64r9HE0ehGnzIWE+0SgmswydUWQLNGEWUOccVulbkkzTzy0UOash2kVjhp40kqLRiTKT1StUOc/l2bOOncsGHWlkj0Y5r1AdV8/QgNEnDMcvaGKBbhigUX7G449/eINC8FR8zWZQRAK9MECjwSDhVLa1Q8KMcGgPcW8w3AkLNMqZnLq7N+7sQzwAbCDHgfsAQaD0w+/jIcG2YoTv2BRyFLgLEAQN+sWF++ALP89EPSzUg7+lchFcq2MeFu4BBIGltxjuaIdviDGgDjikMpjTDuJO1DnUAY9Uhny2vECMAMX3SGXAz3LyWadjKL5LKintsYYUAYrvksoz7RHxckzxXVIZ0x5bSBGg+C6p8C4HCBGg+D6p8BMnhAhQeJ9U+GoMIQIU3iWVIe0R8R5J8V1SmdAev5AiQPFdUpnSHhmkCFB8l1SWtEfEH/gU3yUVfjRu+O3fFRTfIxX+fh1GECNAHfBIhUsVzY9gT7P0M8uy73TeWOZwgjrgkMob7/AOUfDyKUvN26VZIGgLB4AgsPQG+BG5UxXKZ13H/RXVTU/YOwSBpTdA9aheyBh/sb7GOkjBjH1DEFj6ZvhCrJ7w38za/wdaeMKeIQgsfSNFabxWbxG1f0WAwj87hiCw9A2Mim9R9fY4FF+uzcciSZJZKk6cjftIGfuFILD0moTP+PyZpfqHPmeyEyOvo9n5crb1vgWxWwgCS1/n9dzj32rXuJiU3zQ/al2eFyfQCgov2CsEgaWXjJNlcUTyv321NJ5gJHmvq0mjHzap611L2CkEgaU/U/QH7Gr38Q9Wb5pq/8NvNh44TRY0ZKwAg0Ja5baGrTXEMGTOl/ri0xfMOh8qF2/e1pCxAgwKaZXbGrbWkEdl13T/Tvb22NEQe9PVmzc11LICDAppldsattZYwZizbP7bTzZ2XX/C5z4dFtpqgBpWgEEhrXJbw9Ya+I4cN+933SBwgTsly1sabiiBQSGtclvD1hppfvnN1ot7X9bB8+fpRwFtNMANJTAopFVua9jqDB+Wg+PzCzk0/wAQQoBBDMcHfvIXIxUMYji+G0P+oqTC3zDHYhP5i5IKD2I4lgDJX5RURhTBcRCD/EVJxT2E5c/SO8J3FggOkLs4qXiHsPxZej/4XNlBcoD8RUnliSI4DsOSvyip8KuO/4n7ChcFlpAcIH9RUuELmOOrSuQvRiovHMH4xXwP7BCCwNK7wb9CfyB5QA4jpMJPYMfqW9ntYI8QBJbeC37EP3hWW8lj96ngPWvXgj67hCCw9D68s3s9stQG9glBYOldeEUV1rfSyj4hCCy9Bwtk4lz/ZqcQBJa+PeNirtjGebSIvUIQWPq2TNKi+F8r/beH3UIQWPpWJO9lpRll/BvBzorSRs1yWNLALIBBAbOmNsS6v68Ahr0VpY2a5bCkgVkAgwJmTXX60s+d90bsriht1CyHJQ3MAhgUMGvO05JO3P28gv0VpY2a5bCkgVkAgwJmDR66Tmzuf0UcHhSljZrlsKSBWQCDAmYNv7ubX7iWbV7ZgRNFaaNmOSxpYBbAoIC5gfyilWVLx59adawOWPoeY3XZ0vcYq8uWvsdYXbb0PcbqsqXvMVaXLX2Psbps6XuM1WVL32OsLlv6HmN12dL3GKvLlr7HWF229D3G6rKl7zFWly19j7G6bOm7gaNrYBbAoID5BBT8oUErxSxL00XSuiyEKAqYBTAoYD4BBX9o0EqBsvbPe7shIPaigVkAgwLmE1DwhwatFOUb36s2kzvgQwGzAAYFzCeg4A8NWinkFA/9luufgQcFzAIYFDCfgII/NGilqCzwtLv7wMCBAmYBDAqYT0DBHxq0UtRmeXz4z4ew4ZAQBJb+CkmySJciny6n33NECAJL/yem3xhBcX3F4BocEILA0v+R85wW7zkEF+B4EASW/s+8FuMoAYt4VTgcBIGl/zvF3A7XAe1LcDgIAkt/A8VCSF0tU8PRIAgs/S1gDsEx5BRVAQeDILD0N4FFnTqauE6xQqVSPF0Gmp5ag2NBEFj62xjzYelmEj6FCpYK3lZ3fNfzAhQqXCqYDxFsNreEIoVLBfOkQ0wZVlCkgKnwGHcnT5UUKWAqHS7qRJECpsIDw52c9xQpYCp+jq5iRbL0N8MPYhCCQoFCpuLm6CpWJEt/K+7zIWwoUsBUeD5EJ4s6UaSAqbjPh7ChSAFT4d/4nawMTpECpuI+H8KGIoVLhRd18pwPYcOhIAgs/Y3wok6e8yFsKFSwVHBQuqmFcSwIAkuveLqwftGIq+G+r96bUCwTNLrAdH9haRks+tBRgZKDWaCRzWlZo9qqOiVYtKGjg9IuFSzIYlQhkEnT8mdBqC7HUuPagqvFa9BZ03esWIfDez0gk/O/UWjiaom06O5W3QPPq7XVlkIKiFz6qs76ai+G57HH6potk7PX/cP8y5zifzDk7L7eKPVRkpYjkvuO6sUeFEsxgUNlXPW49Z6jEpbiQtXAT2fniROJcRXcdXUV9uS9GKwTqNXaHoThvDz9iU3a1bBdAMaz74xq3Yds/bD/ga0Vg8E/7X8oh7l9BTgAAAAASUVORK5CYII=;fontColor=#DDB64B;fontSize=27;" vertex="1" parent="1">
          <mxGeometry x="305" y="237" width="202" height="142" as="geometry" />
        </mxCell>
        <mxCell id="PVorNcmFDbXd92xEUqX--7" style="edgeStyle=orthogonalEdgeStyle;rounded=0;orthogonalLoop=1;jettySize=auto;html=1;exitX=1;exitY=0.5;exitDx=0;exitDy=0;entryX=0;entryY=0.5;entryDx=0;entryDy=0;strokeWidth=4;strokeColor=#FFFFFF;dashed=1;" edge="1" parent="1" source="PVorNcmFDbXd92xEUqX--3" target="PVorNcmFDbXd92xEUqX--5">
          <mxGeometry relative="1" as="geometry">
            <Array as="points">
              <mxPoint x="497" y="570" />
              <mxPoint x="497" y="570" />
            </Array>
          </mxGeometry>
        </mxCell>
        <mxCell id="PVorNcmFDbXd92xEUqX--3" value="lidar Pathing" style="shape=image;verticalLabelPosition=bottom;labelBackgroundColor=none;verticalAlign=top;aspect=fixed;imageAspect=0;image=data:image/png,iVBORw0KGgoAAAANSUhEUgAAAHQAAABzCAYAAABJnyafAAAAAXNSR0IArs4c6QAAAARnQU1BAACxjwv8YQUAAAAJcEhZcwAAFxEAABcRAcom8z8AABpjSURBVHhe7Z0JeFXVtceJ9TmPVEB4KIooPBz7cAJ5Ly0CYj/Lq/pSbaGtCEYQ0SKPWmgrauFJMFYihTCEKYyRzJCQiQQzkumGhCRknufkZiYMySXvv+5dF2jIGfa5Q254/L4vX3Jvzlp7WHuvvfY+++wzZBDi1Nvb6zRx4sSbdu/e/WBsbKxzdnb2O6WlpV9UVFTsqaysjKuvry+orq7u0uv1vefOneu9ePGi8Yf+pu9qamo6Ghoa8vA7BtfvKi4u/jwvL29uYmLiS1u3bh09adKkf6E0KC1TktexKlS5X3311b2pqakzi4qK1sAYEc3NzXXnz5+/iP9ZlbNnz15saWmpqqurO5qfn/9FTEzM9OXLl9+Jf11zxrVrgagC3d3dH8vKyvqotrY2rKOjo81Y4wNAW1tbM3r84fT09IVr1659EF8NbuPqdDrnhIQEr3Hjxt3MX9kEqqhVq1bdl5GR8T6MGHvmzBmDsUYdiM7Ozgtw1RHJycm///TTT+/GV4PLuOHh4ZPQO5qpMKjkTbYoAOk8dOjQs2VlZdvb29s7KK3BAFxzc2Fh4cbAwMCJ+Oj4hsX48SxapNGYZpqamv6BX1bJPOnx8/ObBXcW1d3dbdQ/GEGwdbGkpCTE399/Kj46pmHhYp9Dz2wxZfmfQVCyEb80Z5xkjx079p/l5eWJRoXXCAaDoReGjQwODn4OHx3HsElJSS9g/Go1ZbN/MDXwxC/RTDthqvEYXGswTSOuVcjbFBQUHNyxY8cDXO6BIyUlZUpXV5eqiBJj6hb8UmXUMWPG3IL54hrovmCSti4817wK9BrjL9Ofxr/7g7VYF3i4swgoV9K8lqvBvpAxMQ8TqnBEfNvwS86oTkFBQdMaGxsLTRKWQwYw2cGI0ViU79bW1hrMT9MxhwzDsLAbvWSbXq9fjTjgzwi2/kx/03f0P7qGriUZkjXrIYUMp2Y5SC8zJCTkWaoLU5XYCQzqj6GAZaKlgVG349dVmaWWmZOT801PT4/pQgswVrEJA4IQA4xTCA+xr7i4eGl8fPxMHx+fh0ePHn0rJ60akiFZzDFfJl0oy37Sff78+R5Ky5Sk5dZFo+lFGmswLbuBk7YP+/fvH4VwPE+0EJWVlTvx65JRN2/e/Ai+05n+qw3KAuUDGOC+ulDZYbm5uYt37dr1OJL4kSklm+AEI0/EEPEhLWqgh3dRHkxZscy2VVVVce7u7vYdW8mobW1tuaK5Nxs1MjLyNci3m74Vx1htAL3EgAqNO3Xq1AK07Ps5e3aH0qY8UF4oT5w9zZZFh2kKDQ2dyertw549e0bCKDmiGUcLTIZ70bQ4QGlR4IIe0YGxbuvBgwef5uw4DN7e3k9T3iiP5iCLsy8EGkZvWlrax1Bpv3EVwcwIBBOntGZaLaSeKgcRcEtRUdFqDw+PYZwFh4XymJeXtxrTuxY2LJdGDAwh6/HLfkb18/MbDqNm2cqopBeG7EbBNsG1DedkBw209nz69OkNNB3TWkf5+fkHnZ2db2SVtmfnzp33V1dXF2vNcH+QLmCAi46Ge5/ISQ1aPD09J5aXl0dRmahgXEzVIMIOsqtR33nnnUeR4XItme0L6cAY1JqcnLyA1V8zREVFLUDs0aqlnjDcBNvVqPPnzx9XUVEhPE81Q3LAgGj4h6+//noMq73mWL169b+ijBFUVvxw6dWBnnoAv+w3ps6bN28sjFpKljFlQT2Ifrsxt1vFqq55Tp48+dmFCxeEXTDG1I2swj4sWLDgYbRA4TEVHjsN4rZcEHA4Dh8+PLu1tbVdtK50Ot2fWIV9ePfdd8fAqEWiGcUcLtCu44QD4OXl9URDQ4PQUEXLpXFxca+zCvvg6ur6IIxaKGpUuJRgW9yBgOpLOwLXrVt3f1hY2ITo6OgXAgMDp9NPYmLi8wkJCRPc3NxGubi43GS+nsVtypo1a0Ygos8WqSv07Lbdu3f/G6uwD4sWLXoAGS0QNSom5YctNSrUGI0XEBAwKScnZxEal1dTU1NcS0tLBaLoTloQ7wtt5cS/ziASrUCvOUE3FtDAPoyMjHwOnuMWXGIzA0+bNm1ESUmJ0EIN8pcMUZvu5bqKJUuWjEbCwgv6mJCHkEFYjVqcqHcdP378VUSEO/V6fRm5J0uhrENXDebbu9LT038xd+7c2yktU5LWY8aMGcORRqZIXdFqEovbj8WLF49CTz0talRk9qia3YS4lPbmPoQx+G/ogeUmadvR3Nxcjwb37datWx/DR6saltwv3R9WW1fUYJOSkmawuP147733RtbW1gov6MNdhssY1cnDw+ORwsJCr46ODpvsdpCDtpJieDi0fft2q+7s27Rp0xNoNM1qqwreI2/8+PF3srj9+Oijj0bApQgN/gTmp5F9b1DPmjXrrqysrK8HwpB9wXjcg7HW85NPPrmPs2cxCNhe6erqUr33GA3LnUXty8KFC4djTBW+SwOjRtHeI6hwQkQ6Cw24gv/lMCBP+h9++GEO/rRKb83MzPyj2nqCt+gODg7+dxa1L2RUuF/huzTokYfx83dBMbuDIWA/5uJWcYGlpaVBauupvLz8KIvZH0S/w+rq6k6KGnWwQE+5eXt7P8HF1czKlStHItCrZrWKxMXF/YJF7Q+i3x+j4Dp7GZXSuQJaR+3v5xIsphnMZzvDw8Nf5eJqBlHs22rzg+HsBIsNDEuXLh0Ko6ZbowL7QipJLzAgvDegpdc0NDREVlRUbMIk/lO4s3moLOMP/U3f0f/oGrq2u7v7SiOzVjEwtvVGRUXN5eJqpqyszE9tJjAPd2GxgWHRokX3ohJTNddaH0gPQXczMKdLxvz0T/7+/s8jKQqq1HJLYGDgs0VFRX9E3pLNd0YITkY1tEcoLCzsd6xXEzTnRY8/wyplwVAWy2IDx8cff3wP5lMpWirMDImSPKYRXbRStG/fvkms3mJIF4KdnZhK0LZNglNVR2dnZ29ERMTPWZ0maJ+SmoTpEoylP2WxgYONmixcW4BEqBfBbe6hx/FZpdXZsmXLgzDsHi33MtHD2nx8fJ5kVcK4urre19TUVMfqZIGL9mGxgWXVqlV3YT6XJFpZ7NZmsRqbQ48HYuwXXs6EO8yZPn363axGGJ1O91c1aba3t5/57rvvHmaxgYXOLYBRE0UrCxV80M4P/9xM+3CRTeqtnAtlIOPN8sLQalRra2stq5IlPz//f1hs4EFPvQORZryoUdEDQjXcpbGI1NTUJbxrnnOhDE1FWFwYNIh1auqFAk0WcQyWLVt2O1pjrKhR6ZkTW5/50JeQkJDf0WK92qzS0uX8+fOHsrgQdDMALlXxviANQ6GhoT9hMccAPfU2LUbFBFvuLo1NiImJ+S3NXTkLimBKpHlBvbq6OoTVyAK3+xcWcRxmzpw5FJGl8IJ+VVVVBC/o242MjIzlavOJXnZO6zaSkydPqlo9gtuNZxHHYvLkycPRooUX9CsrK6O0PBtqCaWlpbvV5hNl8mIxISg4QoNoYjWSYBg44xCP//fHM888Mww9VWiLBlFRURE9cuTI21iNzZk6dSqtfBVz8rLQ9GLr1q2aphcIAH1YjSwIwN5iEccD05L7iouLM0SNWl5efvypp56ivUB2IT4+frbaPJaUlHzGYkJkZWW9qyYNeIzvWMQxmTBhwo/hqnRqK8xMWVlZLKY0d7AamwN3H6gmi4h4T+Ny4U3mvr6+j9KNbVYjCbxFEos4LjDMULRs4bs0ZFTz/ht8NO69Nf/gK6tu+AoKCnqRDp6CbkXCwsI0bfTS6/VZrEISuHX9jBkz7OadNPPkk0/eC6MK36WhMRXu6kOE/n6Y3qTX19enoWICoWs1KnYKLrGaYRFpq5peIO1vWUQIeIFdrEISg8HQGxwcPIFFHBtMS+7BGKFpQV8KGFoXFRVFPcZiw544ceKXavLW1NSUySJCwOMsZhWyYJpjt3Vuixk7duzdMOoJaxqVyMnJ+Tt+WWRUGrMxRlaZNErT2dnZQyepsZhq6DRUNeVG/SxikcHB0KFD70JrFV7QVyI/P38PJ6EZRNh0VpMi6enpb7KIavbu3TsGgdE5ViEJhplvWGTwMGzYsDvQEhOsbVSMtys4CU1kZGTMUZMnRO6rWUQ1tGjS1tam6AEQK/izyOCCjIoeIXyXRg46l8+Ssx6OHj06Xs2m6bq6Ol8WEQLjbwarkKS2tpaevx2cjBgx4nZEf8IL+nIUFBRsY/VauLWlpUWxF9FuDb5eCIzRR1mFJLimlC8fnMyfP39Ea2trv2f6agG6qp2dnTUvSjQ2NiaxKkmQRgkuFb5Bj/HRl1VIgulTL18+ODl27Nj4s2fPWvVc+pCQkJdYvTDofX6sRhIEN/VLliy5i0VUg95Ph07LgmGj96qVlP5+WKcm+tN35Q9fpglMOX4JHVYlOzt7DqsXBi5bcSG9vb29gx4nZBHVILqn8/5l6enp6R2CIegLhZ+vMdi+xnpV88EHH9wB97IS8rQtsT+99LOupKRE84bhuLg4VRNuETIzMz9g9cIgUNvBaiRBL+pYv369sEELCwsVDYr6NPZQReBKNrFe1bz++uvDMUgrHuJYXV39PYsIg97031QIawKdv2H1wqjsoe1ajsBDY1F0uXQ0+hDo54/SdHZ2bmG9qqHH5s+dO1fGKiRBOH6ERYShU6LhZqxmUTSOi7TOy+qFQVDkz6okQV3WzZ49W/ipNYyhij0UtrxIC7+KFYJrglmvCE7IRD6rkAQGTefrtXAL0lBsNGrBEFFlyf3U+vr6FFYlCbxWMS4VPtYHw973rEISRLk9QyiM5s+SIBPHWK8QqOxYViFJW1ubphZrpri4+FvqWaxOM6QjLy9vM6sVhubFNO1hdZKgThJZRAjYIIxVSIIeWkhbHFL5syTIaBbrFQK9z5tVSHLhwgV6kkrzowMBAQEP0bjE6jSDhtW1ceNGzWcCBQUFPd7fMTp9QZ0cYBEhIHeSVUiCeCSVtgoqzp1Q2Ho674B1qwYt/jNWIQtts2ARTeh0umWW9FKSpUfjWZ0mMIWay+pkwfRD+KxDupuDnq24kx4u14/GUHf+LAkmw4YDBw4I3/ah837UVDTysJ9FNING4UUnS7NK1ZBMbm7uTlajGUShe1ilJFQXKSkpb7CIanbt2vUIginFbSgwqBttR1zIn2VJS0t7hfWrxtPT8yFMuxRv+8BjVlvjvAIYdS0MpOqJMboGGDBNWcfimpkyZcqd6EGK4yfdAqMhgsVUg/n2DFYhC+b07w0hQ6Fg/JU0uFjTQzEI5dNYhSxouZqfA7mS0NBQZ0SECWxYo3H7YPweQ00Kpig/YzGLQN7f5GLIgnFQxyJCYOj6hFVIgjKZDqfy8fEZr2YuV1NTo2kwLyoq+opVyIIK1hRJS0GvyUQj/AwNyheB3wlMKU7o9XpfjGGf+fv7T+bLrAI9Z8PFkAXe0I1FhIAr3csqJEFweRHleoT2wNJzJYq7s+FS8qBb+K1A8fHxk6lbsBpJaB0SrmUqiw0a0HBeokhdCaoD9CAt5buhoaEhj9VIQtM/XGt6zgetV/G1j11dXfSUk6YbwOglmaxGFrT0EBYZNKD3qNrxB3d7CpcL34ygNzxh7GUt0qCOj7OI8TkND/5eFvhyTZuQ4HZVP9wTGxtrlbHUHsCjuHC2ZaGynz59eiWLCZGfn/8eq5EFdXz5KbfExMRfqalwjKOHWUSItWvXjoZLkH0fqRm49jJrnqenBQ8Pj5vd3Nwe5Y/9QmchoFeoWnZEpN8KnaNZVAh4rQBWIwnZDu58NosYj1MZjXlOJ/9fEkwv2lavXj2SxYQoKCjYoKbREPAYdAfG4v2yWvHz8xsNV1prjBolQHBFb29QhMoMz+bJYkLQ25tgFj2rkoQazFX3WNES4vj/suh0uvksIgQdkYpeqvqdaEhnwN4ekZCQ8ArlARV1tr+pTWZm5kpjJlUAj9O1fv162d4uRXp6+jxWIwtsF8kil4GvXqGmA0E4ikWEQUtVdQYPQZehYi1aEtRKYWHhF5wN8kpnEQy+zP8agjF+Hqa4/F95qKwYO79iUWEw3QpnVZJQGrm5uX9gkcscOXLkGTUP3dAyYEBAgKbF9Oeff/4ujDuqnqkk6PyA48eP292ofSuSjAo3/OLRo0dd6Mx6tSCyLdayBk7QWUdwt4otB/bo8fX17f+ZFpp883WyFBcXe7CIMJGRkW9Sq2JVilBvSEtLW44/7TKmuri43I15eb0p9cugcjvo9DL+qAiVMTo6WniXvBl4CVUzD9gshkWuBoHLx2oqG2OhfpUFL2hFOpvVpHMlKOAeWgRhFTYjJiZmKiepGSoblZFVCkN1S3XM6iShdLKzs99nsauhI9HgXhSjXQJjw+cspoVbMBYLP8yr1+sLgoODX8afNuutiCWWmVLTBpWJygZVmg/yoLpldbLA6M0rVqyQ33CGcHw/Xy8L3FKDojIZ6ORJ0iFqVFoiLCkpObBv376x+Gh1w9LzIaaUxKGyUJmobKxOGJp+wFANrFISqraioiLlnf5RUVH/QTcqWE4WuEGLbj3RlACD+llBmxrBeHYe81XvwMDAF/DRWoalPUqaXiFCZaCyWHoHB73zG1YpCwWwtEmOxeRBlBfDcrKgAF3+/v4WvcoJmXqLImctRiWoxyKaTEdr/Ssi9Sn0Ah18rWkTN0X6ahba+4K80/tQKfq36CSSQ4cOPa7m/jFRLnL2/LFjx96gTLKsLFVVVYEsphmMi2+hIN1q05SCxClCbWhoiEG+tsI1/wUFfz8lJeW3CB4UzwbENa6sSgikadi7d6/wZvS+VFRUHGaVslA9YbYwncXUUV1dncDyitBkm8U0gwz+FGNHi6VG7Q+opAea7uWkJEEjUNzU1h/ItwFzVOEdHVeSlJSkalWIqqeysjKcxdSDCf3P1VZuc3NzgzXe2Ltjx45HESEKv5lJCahrxi8lgzqhHKdNEuJg2LgIz6bpsQ56BRiGDcVpCkE3smlXBouKAXd1RG3lwl1o3gHfh1sxddiBZFXtDVID1CgaFLHAYzCKRW/Fo22cycnJwg870XjIKmSh+sC1+1hMHD8/v6cxtqmOEnQ6nabTsvoDLuxXmHfWmbYGWWZYiCsaFHn/jelqMYyZM2Hcq4Txu3ndunVPsVpF6LXOrEqR9vb2Dk9PT00L/ZdAb3Gj3LJOWXjt1WoviaFlOHrVYldX13nKA8FJCQExRYOqeVyPkjdmwoSBjlml3X60awFTuBWY8v0MQ89wV1dXVQ/0RkdH/5faqJoSzMzMtPwYVVpuQ0+hcY1Vy4OIr83b2/tpFrcK27ZtGwfD7oNLO6ulx+JyRYOiZ111hoExocsYkHw3jbNwe3tzcnIW0nvIpM7rpTcLx8TESAaL5P0QTLVxUrIgbbrLRc8AWedV13RAE3qf6kqsr68vp10KLG41vLy8xuTl5f0vGk05VbCxmgEnKwkukTXoxo0bH8DQYn61x0VuNAa4uK7GxsZkTH82wDW+RQ0Ll6ua35qXEOnAZP7qErR7AQ1I9QIG8mbw9fXV/GR5v6BFfkOl5DQUqampyZ4zZ46m3Q0quCkuLu5V9BQv9JjSPm9HuhJjXvBb1qBwZfScKbnPJrp1Bvf5Jd3k1vIcpxmU/yClTcMQeuvv+WvjO1aRRjb9Tw1UiKysLKvFJldyIzIpdOgTxqXct99+exTL24obAwMDf0IuEGPZFlRWPDxZSWdnZzsdM0OGwg9tU72Hr78Kksdc+mUrHn54Exrapaf6aJyE/l/TwVlohLn8tSJU15g9RLBO60OLzmjFqt9KS6CST2/YsMHWRu3Lj+gWFNzdOPw8+/3330/Fj/DRploJCgp6qu+NcEyJ2tHYVD/LSnWMRlGFclh96Pon6NBftDihk0cwXlRu377dqoGSI3Pq1Kn5XHTNwMN0Y+pmn1dhwacvU3tHxgwCmTOhoaGvQ9xm9zIdheLiYk1LiGaobk+cOOHK6uwDphEe5OM5D6qgOyPp6elf4s9r2qhwlTmmEotDxkSQ9iWrsi9FRUV7RI1KIDCIxrTGZi+jG0jo+FS4S01LiFSX2dnZwifOWBMnuBd/LUbFHK+N7zBcU701LS2NXrguDPXMysrKATWmGTKq6jfT9gVheRSfgnlNGFbNEmJ/YDag6VFDW+GUl5e3VzRQMoP5YjfkN9DWf9JlUjk4aWxsTOdiCREXF2ffIEgNmNy7o6PSRJ6zKUZHR0c7Iuh1dHQaPg46w5qXEE2lESc2NnYpq3IcMIYspjV0rS6YwCS8A258Cy1g4+OgMSxigjdMJdAOeuoyqHKsMoeHh0+jvT2WGJWgJbP6+vrYjIwM102bNg3HVw5tXETvbqaca8NcX5iDrmWVjsOqVatGVVdXx9C4aqFdjaDXd9TU1ITBJX9IOw2dnZ1vxNcOZWBaRzblVhmqE6oYxtDT02O8t4oxODw1NfULqLPrC29Vg971OYzRQ7nmslgM7UnV6/WFCPMPFBQULD158uS07du3j6V7t/h33/N47WJ0urFNUzGk2S9Gs13m0r1VlIHurS6ie6v2fm2mZgICAiZR9EcFodJwGa0KRcpo4TUwdBrSOlJbW7sblfUPBCl/w+8VpaWlNq0suMmZnBUjVE6CPZShs7PzDN1bRT7o3urbdJgUxIQPIXEkbsjMzFyOCu40ltQ2du0XpKW4Y8FSSkpKjM++AtjQYLy3ivE/gu6tJiYmzrLk3qpD4+7u/kB+fv6+86YXlNvFqkjG5gaF29zd0NAQjvn0HyIiIl4cFC+WsyZ0Uxmt+ijvNiBMtW8DoNvWBnWy91v7HRYfH5/JGFeCEOh083hjdcvawaDX6Qud9omI1QNjTyMMYO61VjEu1Fw36EDh4uJyB+0+R5QaisiQHjW02LgQvW5QR8DNzW2UTqdbUFVVFdDa2mruuZcMDEwWUwDXXTeoo/Haa6/dRk+oIUL+S11d3WG45jIad2Ess5GvNLQZo0ExNl836CDghs2bN4/EhP5FGPnXRUVFn1VWVu6sqamJxvThNFx2e1OT6ZDRnp6e/ycGHTLk/wDJ0qrJbadFSQAAAABJRU5ErkJggg==;fontSize=27;fontColor=#DDB64B;" vertex="1" parent="1">
          <mxGeometry x="322" y="513" width="116" height="115" as="geometry" />
        </mxCell>
        <mxCell id="PVorNcmFDbXd92xEUqX--14" style="edgeStyle=orthogonalEdgeStyle;shape=connector;rounded=0;orthogonalLoop=1;jettySize=auto;html=1;exitX=1;exitY=0.5;exitDx=0;exitDy=0;entryX=0;entryY=0.5;entryDx=0;entryDy=0;dashed=1;labelBackgroundColor=default;strokeColor=#FFFFFF;strokeWidth=4;fontFamily=Helvetica;fontSize=27;fontColor=#DDB64B;endArrow=classic;" edge="1" parent="1" source="PVorNcmFDbXd92xEUqX--5" target="PVorNcmFDbXd92xEUqX--13">
          <mxGeometry relative="1" as="geometry" />
        </mxCell>
        <mxCell id="PVorNcmFDbXd92xEUqX--5" value="SCUTTLE" style="shape=image;verticalLabelPosition=bottom;labelBackgroundColor=none;verticalAlign=top;aspect=fixed;imageAspect=0;image=data:image/png,iVBORw0KGgoAAAANSUhEUgAAAQoAAAClCAYAAACk9rNGAAAAAXNSR0IArs4c6QAAAARnQU1BAACxjwv8YQUAAAAJcEhZcwAAFxEAABcRAcom8z8AANWUSURBVHhe7J0FYFRZtq67p7vREA8hwd29cXeCB4kTd3clQgQSgksICYEIBNegwYK7u7u7a/f31jmhx+597907091jWT1rTlVRVamqs/e3/3/b+ebXCuAHSe2ff/65iRxHyTFKjsk//fTTIslCydPy2GPJ55LPSrIkS/JvTqUOPZU6dUFyq+QKyVR5LFbqnL0cW0nqSpb+Wj3/sSEf6jsFDp8+ffpRPlSAfNjVcjwveVdSgcJTyTeS7yU/Sf5UkiVZkr9OSnyWo1K33koqAHkieV/ykvzbRjnGSvaU1JN6+sPXavv7hvxxhVhW8oHWyFH5YM8kf5YPVBIlURL/BCH18pXkdcnCL1++eL19+7ayPPyHr1X4tw35o6Ul+woUFkreLv5IJVESJfHPHFJnHwksNsjRWu5qf63Ov03IH2kpcJgmeUFufyn+CCVREiXxrxJSb28rjbwcu8rdX19dyBv3kiyUfF/8J0uiJEriXzGkDit9HIdEYdjL3V+n70Le6Dt5Q0vljdW/UhIlURL/FiHK4qrUbV+p2+W/Vve/LeQNKkh6SF74+t4lURIl8W8UUrfvCTDi5Walr9X+fxfywu+FNj7yRjfVdyyJkiiJf9d4IfV8nKTm1+r/P4/Pnz+bCmmufH2jkiiJkvg3DoHEE0UYyM3vvyLg/x/yovYCib3Fb1ESJVES/wkh9f6iCISBXzHw/w55cm15zVI5lkyeKomS+A8LqfY75NDiKw7++5AnfC8ZJ08uGQItiZL4Dwyp+18k0+Rmua9Y+K8hT2grluNc8UtKoiRK4j8xhAH3hAUmcvPbr2j4U8iD5eQfZ0l+Up9dEiVREv+RIQxQVpwtl4PuVzwUh/zbt/JgB/nHa8VPLYmSKIn/5BAePJIcIjf/NM1b7mjIg9MlP6rPKomSKIn/6BAWfBHhsESOBl8xofZNNJIHS2ZflkRJlMQfQ5ig7CvTVYWE3Fdsh7Xks+J/LomS+MfGp0+fePzoMVevXOXevQfq/ZL4/UOYoGw6FSI3v1fURFkhR7ocS2xHSfxDQ8ogt27dpmjXbnLyFjAuJZU5c7PYvXcfN+Xxd+9KRu1/z5DzIWj4aY3c1FJAYSw3jqj/UhIl8Q+M9+/fMSs9EzcvX3yDQggMCyckMpKI6BimTp/BpsItXL58hZcvXvJzyWZqv0sIKK4KIxopoFD2mbj39fGSKIl/WLx89ZLY+CQGm5phbe+Mp18QAaHhX4ERpQIjKTmFJUuXcer0aZ48fcrnLyX7J/2WIaBQ9uG0VUDhL/n06+MlURL/sHj+8jljxyUz0nK0gMIFWyd3HN28cfcJwCcwBP/gMILCIggfM4Y4Acq87FwOHDrIvXv3+PixxDn/FiGgeC2ZqoBivNx/UfxwSZTEPy6ePHgqimEy1g6u2Di4YGXvhJWdE5Y2DpKOOLp44hMQTKCiMkIEGiFiT0ICGDcugfPnzn59l5L4NUP48E5AkfeN/N88ufP26+MlURL/z/iZn3j75TXvv7zjp59/+vro3x4/K/99+IkP5z9xMvscIe6xmNnYMlpAYe/qwWgnVyys7TGztMVqtCN2zh64evjh7uGFna0NpkMHMnLYYLZt2/L1HUvi1wxhwydhRKECigK5U6LbSuL/GZ++fOTFx+fc/XCXI8+PcO7ZRV6/f8tPX35SRyv+llAgofz/u2MfuGpzj8xG8zDrZsUQs1GiJBwFEm44uHqK/RAoiA2xGO2AmZWtqjAsLKwZPnQwA/v2YtggE7YXbS1+05L4VUPO7WdhxAkFFIeVO18fL4n/4FAr7p/V+Q9fPvD682uuv7nGkrv5RJwNI+tSNkfvnePGs0fce/aCJy9f8e79h6/A+PrC/2GoakIUyottbznV7RpT9WcwuOlAhpqZ4eTpg6uXnwBCLIgoCStbJ6wFFAMHDcJkwGCGDDNl6OABDOzXi1GmQ9mzvejruxbH34aukvjrEDYoG/HeVfooril3vj5eEv/BoRQDKQu8//yehx8ec+L5KTbc3UTcyXh67upGtXwjWif/yIzcORw/e4kbj55y59lz7gswHr94xZt37/n8+Yv6Pv+z+AqKovectrjNxLrTGdBiINYODnj4B4rNcGLkqBEMMx3O8FGWjBxpQbfuXejctTP9B/Rj8KB+mAzsiflQU7YmbOXzXvnbT+Q7CLRK4tcJKQ9KPFdAoQx/lAC4JNT4IJA4/PgQhXd3cPThWU49vkLRrcNkHM/GPN2SWkPq0LZzW9zcvZm/cAkHT53lyr2H3HryTFUYjyRfvnnDp8+fpZB9fdP/ayhP+JmnW96w2WEfkUOTsLFywM5R6ZMwZ4hYiyEDTegvqsFkwAAGDR5Klw6daNe2DX1692TIgP4M698f5542rOi8hOsDrvLE7zGvlr3mw833/PSpBBh/byhskFBBoVzwtAQU/+AoPgV/nkohV/KX+0r8cvz148tPP/FRWuIX795x7sl1Tjy4zJWH97gtquHBk7fcuv+Mg2dPsXD1Srz9/endqxcDBw7ENyCYzJyF7D56UoDxQAXG3ecveCj5/PVbPn769Jednn/9FeT+gzVPmeUzj9jYFCKio3AUUAwbMoCePbrQv09P+sixe7eODO06FKfGLlg3tMa+jQ3B7bxJah5JesMJrKiZzU7jQsmtHOpxgJNOx7g48zSvbj3/+odK4m8JhQ0SKiiUi5v+diWwJP6HIZXp5y+8//iZRy++cO3BJy7d+ciNBx959uoTH0XS/7qgENEvp/2TwOHtx088e/uOh6/ecE8q+I37jzl+5hwrVq8ibU46W3fu4urdhzx69Z4HL95y4sJlVq9fz/iUZJxcnLGyGY1vcBgz52azff8hLty+y83HT7krtuSBvN9TpR/jw0cVRv+lqMnXur7oLlNi05iSlc6sOXMICwvDytycbp070rVTB8m2oiKa41bflbnG2WTXzGFe/dnk15nNyprzWFsjl9UCiiWVsphZNpXsurNZ0TOXlb1zOZtxjM9vStaK/K2hsEGiBBT/mBBv/hc+/icevvxM4fH3pK56jf/cN7jOfIXL9Jd4z3jGmLlPyCx4wtELr3j/4a+B8f8+dS++vODy20s8+fhYKqq8Vp6uXEv6nbT0L96+59Gbd9x78ZJbDx9z6sJFNm/bwpyMdEJDAjEdMoihIv/TMjM5eeWaWvlvPH7CPan4D1+/4cLNW2zbu4eM7PkEhISqHY++QWFMnpXJhh17OHv9lrzmCXeePuf+85c8lte9fSeW4M/7EOQjXcu+S5L/ZALGhzNmWiyBY4OwsrSka7sOtGnVgtatmtKyeQMCqvqwtOJy1tVbw7r6iyiomcsaydW1slldO4d0/VTGVghh8oA4chKnk+s5k52xm3h19eXXP1YS/9tQ2CBRAorfP4o78IptxReevv7MuiMfiFz4jlGpr+kY/pJmPi9o6v2cpl5Paeb+iFbu9+gVdBvnlDtMXfyA/aee8/LNh6/v8V/jzZc3nH19hpxb8/A568nIfcNJOjKOa49v8eb9Z1EPH3jw8g23pRKfu3aN7bt3kZM7n/j4GLw8XLAbbYmHpzuxCYnkLFrMroOHuSQq4drd+5y/foOLt25z59kL7ou1eCDAuPbgIfuOHSNv6VKixibg7OGLd0AoyVNmsHLjFk5cvMr1R4+59fSp2vH55PkrXgmgVHApiiLtAZMHZWDj4MjoCbY4j3dluKkp7Zq2oEXjBjRpWJemjevgXc+FnLpzWdY8j5UN57Oq1nxRFMXHVbVymKKfQHRlf8a7RMjfHsP4kCjWx67g5bmS+YR/ayhskCgBxe8Xyk/85/kT5259ZMKqt4yc8JZ2oW9oE/yKdiEv6RDygvbBz2kX+JQ2fk9o7fOQ1l73ael2i85eV7FPvEFq7n2KDrzm5VcLLuaEK28vs/jeAkLPixrYP5QeG7oxeN1ggvdEkHd2OZcf3RVr8YpLt+6w5+AB8hcvJCUlCT9fTxzsbfCRY+rkiSxavpwd+w5y/sZt7ovauHH/PhevX+fSjRtckOO5q9e4eu8+N58847bSJyGV/4HYlhuPnnDozFmWr99A0sQpuHoH4O4TRHzKFBatXsfB0+e4ev9Rccfn0xc8fiufX2BzafwdVjTdimfPAMz8zDD3tKJf7360adlS1ERzmrVqRPPWjfBq5URm6xksbZvDqoY5rKwhoBBIqIpC7Ehq1Rgi6/sQYeNJYJg78ZbhFIau4fWlElD8raGwQaIEFL9vKArgZz6L9N5/8SNB89/RI/oNHcNe0yXiFV0jXtI54jmdw57ROfQZHUOe0D7oMe2CHtHW7yFtBBhtPB7Qyuk+Hd1vYjX2KonLj5N1bhmJV+OwOWJBj8Ku9F7fG/ciH2Ydz2LruX3cuCd24eFzDp88yco1K5k6bQqhwQECB2vc3Z1JSEhgQf4Sdu49yOVb90RtvBW18VRu3xao3OTijescPn6cwq2bWbI0n6zMdLKz57Fl507OXrvBzUdPi6HxFRiKNTl99ToFW7aTOn0WnqIuXLwDiU5MYf6i5ew+coJL9x5wWyh398lzToXdZIvxEQKNQ+nYoh2t27SkU4dOdO/Zk+79+tChTxfa9miHfwcPstrMYHn7PFY3yhVQzFNBoeSKWvNIqRVJfN0QxnTyI3qgPxltJrLHZwuvrpd0aP6tobBBogQUv2/8pK523HnmE+6z3woc3tA98jU9o15JvqBH1HO6RT6ja/hTuoQ9oVOoZLAAI/A5HQKe097/OW19H9I86BT1xy6kxpRQqmea0nJ5Z3pt6IljkTMTj0yn4Ow2qeD3ePz0LRcuXmdz4VYy5qQTFSkV1skWFxcHomOjyZyXLZV/F+cu3eLR8zfcefiY85evcvGqohyucfTUCbbt2MaaNavInj+XScnxhPl74m5njrujNePGJbJw6XK27d7HyUtXuP7wCbefPufOcwGGWJKHYi8u3LzNxqLdTM/Iwj9sDI6efoRGJ5Cek8+2g0e4cOMuJ2JusLPWcZLLpNLuh9ZU0zWmZfPm9OjViz4DB9B9UF+6m/QmvEsY2W3msLxtriiKXJbWEBtSM4v86uksqpFOslEEU6qMJb32JNJqppBnPIO93tt4datEUfytobBBogQUv1/8zJefv4iS+ICbConXAgkBRORLNXtFPqdX1DO5/YweAoruoc/pGvKarsFv6BT0krbhV2mWtJ56M5KpPs+O6nk9aF/QGdvdViQdSWH5qQ2cldb/ydN3XJfKt2vXXnJystV+BzdXBxwdbQgJDWZm2hzWri/k5LkrPHr2hvtPXnLw+gnmn8kmbl80cXljSM+YxdIl+SzOz2X2tFSSosOICfMnKsiHAFEgbrYWONmMws/TleiYaKZMm86ipSvZsGUbW3ZsZ8v2bRTt2SMQEOvy8jUPxV4oQ6fKiMicnAUER8Vh7+aDf0QM0zNFEczYyg7fw6zuvJlwnUiGlR1Gf4P+9K7bhx4deqmqorfJAMZ2FTC1zWPZjzksqz+PBTVmk19jDvOrziCv+kwmVoplZuVkeSyDnCqzWWCcxj6/bby+U9KZ+beGwgaJElD8fvEzZ29/InDeG7oJJHpGCSAUFSFWQ8me4S/oFf6K3mFvJOXfQ1+JDbnFj4lFNJk2m9pzfai1cABt1nXCcvcwYg5FsujEMk5dv8zTZx+4eecR+w8dZdmypUyamIyfjzv2dpb4+nuTkprK0hWrxD6c4/5jaemfvubkzXMsP7+ccccSsdtpRduCFlTJMaLemFr0c+1GkK8rSRFBJI0JZmykyPnQAIK83XF3sMXJ2gw7c1McR1sQ4OdFrMBi/PhkksePY3xcNIlRYSTFjmHJsuUcPHmaS3cecOfpS9WWKKMge46KXcpfTERcAs6e/vhGRZGcOpO8uDWscN9Ibp8lpFSbgb9+BDbVnBjYaAQm7YeR0n4qS9usYlmbXPLqpJFdbbpAYTYLqyvASGdalWTSqk5iYc055FUVUBjN5lBgEe8flKx5/FtDYYNECSh+n/hZnRsxYcVb+kS/prcoiT4Cid4Rkioc5LHQtwKHt2I9HtIh8QAtpmVTb24ItXKG0XJVZ0yLBhJ2MJi5R3M4dOUUj6Sy37//nKMnzrCmoIDpM6YSFOiLo4MNPl7uJCYlkbsgn737j3D73lMePxcbcPs6Gy5sZMqJSXjsdaH7+o5UW2KE3jwtdKdoozNGmwp+5anjXgNfP0dSxoQxLjqUqGA/bCxHMbBfb3UBlvWooYwQO9Cre2d1YlSArxfxsTEkCByiArwJcnPAx9mWuDGRZGbNp6BwGwdPnOXCrbtqX8a9F6/UTlCl43PBijXEjU/F1S8Qj4hwxk2aQU7iClb4bWH5iM2kNcojvGISvtWiyKiTz8pGG1jaOo+8emksrJYm9iODFTXnsqRGFmlVppBZfToLa80hp+oscoxmcTCsiI+PlRGikvhbQmGDRAkofvv4mQ+fvrBi7ztME18IIF5hEvUGk/C39A8TcEj2iHhMp7gTtJq0hIbpY6mdbUGTVZ3oV9QT771uzDg4m10Xj/DgySvuP3zF6bOX1H6HuZkZREaG4iyV0tXNkcjoCLENc9m2Yw/Xbz3myfP3XL1/l21XdpFxJpPg/f6YbOpJ7eVV0cvVRm+aDvoxcvTTRttdC20XTTRcy1HdpTI+fvakyPvFhQdgMWIoTZs0pGplY5o0qs/APt1o37o51asZU69ebXVxVliQL2PHhBMZ4ImvfB4vp9FEhwWSMi6RqdOnMy8vn7WF29l3/BRnr9/m+kNlncgLtQNUGT5dXrCRhIlTcA8IwjUwiLGpk8hMXcTSoM0sMy8UOGxibZWdrK66iZWt81nVMptldQQQtTJYVD2L3MrzSa88i3k1ZrKgVjq51dMFJJks8sth68VC7n++//V8fI2SEv8/CoUNEiWg+O3jZ7EHn/Ce9Za+AgcFEAPC39NX7Ea3sWdoM2k1TdJSqZPlQKPlXem1rSvOe+2ZcCCVzWeL1CnUD8UunLtwlR1FO8nNyyV+bAzuAgYXVwfCwkOZNnMm6zYWcuHKLR6LDVFmVu69epgF5/KJORLD8C2DabSqLhUX6qA3Wxv9RF30A7TR9dBCx6UC2s4V5KiJtqsmmm7lqelSBS9fO5KjwgnwcKJp4/oYGxujp6eHgb4undo0p6ZAQk9Xm4oVDWjUsB6uDlbECBgi/D3xcrDG1ny4alXGx8cweXIqU2fMZMbsDAHGIlZv2sauwyc5dfkGV+895tYTAcbT55y+eoPVm7eSOiMNn5BwHHx9CRs3jtmT8lgWsomllhuY10Fut89lbavFLK2ZT17lXLIr5TNXP585xhnk1E5nWcNsVjdZzMbGK5k6bDxWi0fgf8WXlQ9WqCthf419NP5TQmGDRAkoftv4WZ3glLXpPf3D34m9eEnPmCt0TNlKi5mzxFq4U39pDzoXdsZypxmxe+NYc3IjVx/e5eHTV1y6dpu9Bw6xbPkyUpOT8PZyxsnZDv8AXyakprJ85VpOnbvCwydvuPvoGceun2PVxTVMOJrC6B0WtFzbBOMlBhjM1cEgRRe9MFEPnqIcXCug5aKBlpsG2m4CCjcBhjymPF7BpRw1RFF4CigSw0NwtDajelVjdHV1Ka9RHgM9Hbq2a0md6pXR0iyPrraWQKQSFsMHqZCI9HPHw86KXp07qGs0nOxtiBZlMmXKJGamzWJWegZpmVnMFWCsWFdI0YHjoiiuq/0YyqjJjUePOX/zFhuKdjF5dibeYeE4evoSEBOHS5o3FmFmJPSMFRWxnOXahSyrsIVF2pvI1VnNfIHGssYLWN9qBZtbr2Zb07UUNF2Ik7c5lZbo0GBjTdwPu7Do9kIuvDrPx5//ZEmUClBSCf5rKGyQKAHFbxfKT/oTxy9/wnHSKzqPOc+Pk/NolBFE/UUmtNvcnuE7BhFcFEL+sRWcu3uT+89fc/nGHQ4dPU7BunVMnz6VgAAfnF3s8PX1JD4hnrz8RRw+fob7j15z7+FLTt26zIYrm5l1chZeO13otL41VVdUomKuLgaTdNGNFAj4agkUFMXwVTmIilCAoGlTHh1zURa2irIQaEhWcC5LdSdjPLxtiQ8JUkFRp0YVNDXKoFWhPI3Fagzp1YWOrZoKNLTVx4wq6TNiUD+CBWRhfi542FvRpkVTDCvq0bB+7eJ+DD8vksYlMH3mDHVK+Oy580jPyiYrN59lazexbd9hjoilOnfzNpfv3ufyvfvqFPDNe/Yyc858fCMjqBfTmPIp5eng1B3fDuFMrjmHhTprWFlhK8u0NrG40ioKGqxgU9OlrKubx7oaC9lRZQWLW6cxLLQPevPley8sQ41VlbHYO4q51zI5/vQYrz+8VCpE8Wkrib8IhQ0SJaD47eJn3n/6wvyNH+kQeok2GUl029mHIbtM8N7hRebh+Zy4eZ77T19yQ1rTk6fOs2nLVtLnzCZMJLybiwNenm5ERUeRkTWfXVKRbt19KoB4xcW7N9hxbR/zzuQSsi+QXps6U3t1VSotFGswQ2xFrFR+f1EO7gIIgYOmqhaKrYUCC00BQnmzsuh21MG4lREVe+qhPVpRGVKRnMtTzbEy7p42xAUH4if2pk+X9jSuW4OWjesxqHcPLAf1Z2jvrnK/PrWrV6FV07pYDxcYuNsR4uWoKopuHdtRt05N6tasTvPGDejRtQM2VubqGpLxyePFhqSTLrCYI7DIyMplbu5CFq0sYPOu/Rw8dY6Tl69z9sYtgcVNToviWLdzBz2m96ZMfFkqJGlhEGVIW7sOuHTzIrnedHIMRWFobWSVzirWVVnIhhoL2FRjEduqrqCoykrGmPpTf2pNtLM10MvWRC9PC6MFFRm0bAA7r+78es5K4q9DYYNECSh+u/iZK3c/Ej3/Deaz9hK4L5F5V+Zx5PYp7jx7yvX7Dzl78Qq7du8lLy+XuJgo3F0dcZMMDg5g2owZFG7bydWbD7gryuHyvbscuHWCFedXEn9gDEO2mFB/fW2MlxlSMV0P/QQddIIEDJ6iGgQIinJQj6IkfknVcojdKD9aKlubClSVSl67ai2MaxiiO0gA4qSBhlM5qjkY4ephSUygH2E+7ng62GBvZort8CFYDxuEhYBiZP+eDOndmUG9OjFqcG8cLYfh42xDsLs9Xg5WWJgOYmC/nvTo0pEuHdvSTWDTq3sXeawP9rY2hEeEkzJhotiRDAFFDnPm5ZA5L4+snMUsWlbA+m172X30tKoyFGuy/8xZ7HLd0E0QC5Qgnz9aE60YZaRGl0bOzbDp6UBSo0nMNVrAav2lbKyymFV1spnfaAYpP8ZhZTGShsm1MczQo9IMAWqqDhrRZdEL0SF9Z/rXc1YSfx0KGyRKQPFbhGo6fv7MmRtvydv2jF3nH3Pz2UNuPnrIhSs32H9Qme+wnPEixb293AQQTvgF+jI+NYXVBes4e+Ead++/5Pq9Bxy9fZZ1lzcx+chErLeb0XJ9E6ouN6LSPAP0JuigGyaVxafYWmi5KArivweEmm6iGFzLU9a0DLrVtalSqTKVdCtioK+Ddp/yaNoKRGzLUtW+Es5u5kT7e6ug8BXr42FrhftoS4GBPYHuzmqHpcXQvpiadMNiWF/sLIaI5bAg0NUOT7EeTlYj8Xa1xc/TGXt53QjTIaoFGTJoIEMHD2LY0CHY29kRHh5OcuokZiodnfMXMD87n/k5i8jOW0b+0rUUFO6i6OBJ9hw7R8yqZGol1KZceGkqjNFAM0qTClECv8gK6EXqUt+ngUDLkrjmcaQ2TyS0ix/Dhw2hhWtTqoVWxnhsJYzjDakUURH9AB3Kewoo/HTI3DWn+MSVxH8JhQ0SJaD49eJndb+FD1++8PqjskLzPfeevVZHIK7cusWxk6dYKxCYNCmFAF9PsRaOYi3ciUsYy0KBxtEz59Xn3nrwmLN3r4i12M2cY7NxKbKnw6Yfqb2mGka5BuhPEuUQJbZCsRYeCiCKIaAqCLn954D4c0iooxty1HQpT7lBZdA20sRQWw9dDXm8qlQ2URQalgIRqzJUsTPEwXkk4d4ehHq5EuHvRUJkGGlTJrJu1Qr2797Jlo0FTJ80Dj8PB2wFElYjTXC2GY6fkzUeoy1EgQzD09maYH83IkJ9iQwNwN/PE0cHB2xsRHFIC282aoSatgKM4NBwUidOYU7GPLJz8gUUiwUYi+W4lIWL17Jqww6mrMli2Dgzmoe3pEZETXQCddEcI98zSRvtsfJ7RGtTMdKQ2oF1aOzdiDr+takSbEylcEOMwg0wCq5EJf9KGPoJZL11KedelrqRtVh2ZMnXc1gSfx0KGyRKQPH3RfHmL59/+pn3X37i5adPPBJA3H72nMu373L8zBm2bNtEevp08eYBuLs44O7mRHhUGFm52ew5coTLd++py7Rvino4e/UiK08sJ2RvAD23dKHe+hpUXSQFe7oeOnFSGQJFNXhJ5XcrVg5Kav8VGP4cDn+eCiiUVPohNEaUQ6tROQyMtDGoJq/pKmrCUlpoRVHYFCsKT19bUmNjmC1wWLtiGRfOneXN69d8/vxZuSgMXwSIb9++5tSJI8xNn0Z4kKcoDxt8Ha3wtLUUxWGDj+tofD3sCAlwZ0xYALFjQomLi1Tnfvj5++Dq5sxoW1ssrawwNzfH1taO0LBwJk6aSvqceQIKAUbuUuYruWAZ2YtXMC9/GVPSM/AYF0TXmL7UiK+NTqIu2vHaaAVLisLSHauLXrzAIFYfgzADDPzl6KePka8hxn6iKgQWej56lPMoQ88JXdl7ec/X81kSfx0KGyRKQPG3hDIK/1l+sg8//8QbqTQvBRJP3iuAeMqZq1fYtruIzPkZjIkKFdXggpvAISg4UOR1Glt37+Hc9etcu3+fGw8ecPXWTY4dO8rmdQWk5I6lz4ruNFpXF6PMiugmSqUPlfSR9JAK7y6KQFLplNRyL87/NSicJG0kh5ZHt7c8d7D8u40GWnYKKMpS1roUdT1qSYWczbkTJ3n25AkfP/zfZzYqRefd2zdcPH+W5YvymDUpmVkTU1i6IIesOTNJiA1TQRHi7yGqwp+42AgS46MZnziW+IQ4QsPD8PT2xN7RCZvRdqI2RmNv70hQUCgTJk5WgTFPrEiOgCJvwXIW5q+WXEOuHGfkLsAtLZi2EzpTLa4GuoH6aIZooRung95YAUS0WIxAA3RFPWh7aaPnpUNFXwMVFNX9q9LAvy6jU8zYvm8jr1++UAFYEn8ZChskSkDxP4uf1P++KHAQ9fD2y8+8Ejg8EwXx4PUrUQT3OHj8KIuWLCQhIQZf8fWuyjRmXy9SJ09ifeEWTl26oqqHmw/FXty/x+lzpygqKmT1CpHYc9KIjQ6lr283qiRJq5dqiG6QTnG/g0BBGbXQcJaK7Fi+uOIr8x7+P2BQ8hc4FKdIc2d5PydJB7lvJ8+xFWDIbS0H8frW5dC0EushoGgR0ozTN079ry8ErFxk+OXzZ5LPef/uHa9eveLcmVMsWpBNivwu0QKKyFA/YkVRjI+PZcL4RCalppCcPJ6o6Gh8AwJxdnPDTkBha2svRwf8A4JITlWAMZ/52YtUWOTmryBv0SqxJGvIWbSSKblZeEwIpleICQ3Dm2IUaSz2TBfdMFEWvmJPxKJV8NCgnNiusrblMLQ0oLtbe7yjHEieEElWxhQ2FSzn0oXTvHr5XFVNJVEcChskSkDx/wrlR/njvpKSr6XivBA4PH7zlpuPHnP87BlWrV3FxInj1XUWSqekp5cbSclJLC9Yw+HTZ7h46y43lOXXjx5y/spF9u3bxfqCFSzIy2DmtAkkJ8SSEB2Ju3j9ZqaN0B4tld/ra+ekQKKCu9gB+/JomFRAv6seBkP00JXKrk6U+n+AQVvAouSf7str1PyqKhyLRznUdJQcLSmgKGP5Pa1CmnP5waXiH+HvDKVoKZbl0vlzrF62hKkTxpEwJoKxUeGMi4tmkkBiamoqU6dMJnXiJGITEggICcPV0xs7R2dsBRYOojb8/IIYNz71qyVZTK6iMBbK75i/SnI183KXM2v+AmKmpjAyZjQNY5qi4y/qwlWLyl6VqO9Ti3pOtTHuIdajviGtf2yCreVwgZY/MybFk5c1XaCdx66iTVy+dIYXL56VAENCYYNECSj+FMpPoOxliaocPomteC9S9I2oh5cfP/P03XvuSkt59solNm7exIwZUwgLDVRthauLPTGxY1i8YjmHz5zh0r27qg25J3n5xjUOHt7L5k1rWLoom9mzJpMyPo74sVHExoQzNlqpNBE4OdvSsHc9ypmUU8GgLbZCsRnlHMpRrld5jOsYUaNGTYwbGaE3SFudNKXMplQ7MUUt/Hn+CQr/NVVIfE1tR3lMUoGGlqgLDauylDH/nuZBTTl3+9e/luebN2+4ee0amzcUkDZtEimJceoU75TEeKaKXZk+dSrTp81k8tQZxI9LISg8CndvX+ydXbF3csXJxR1v3wBRbSnMTheFIcDIWbiM3IXLvyqMtSxYsJrMnKUEzomhc3R3Oga1w3rMcILi3QiP88LVw5o+PbvSvEkjWjRtRPcu7XGyt2DCuGjy5s9gjcBix9YCDh7YycWLZ3n+/CmfpHH4T60iChskSkDxS3wRMHyW/CBweK10TH7+wlPx5g9evuLSzZvs2L2TuXPnED0mHC93Z5wdlY63IObmzGfXwYNcun2H+y9e8Ezk953HDzlx5jjbtm9k+bJcMtOnMCF5rHjzKPHo4WIzwohT9niIDicmKlT8uy/Dhw+hRpuqlOlehvLWZYtnT7pKCz+8DJp1NKluVJUqFauir6+DbmeBgaIqlFmW/z8Y/DePqanA4Wtqi/3QtBFFYS1/z+IHmgf+NqD4Jd6+fcOtG9elQhaK7E9jSkoSqUljmZg8julTpjJr5mxmzkxn2ow0klImEBoVjbdYECc3TxUYjgIMT19/4uLHMyttLvOy8wUYS8nJF5UhtmTh4gLmidqYnpPFjJxMMufPlXOXLudhuoA6lYmT4giL8MHMbAgd27em7Y/N6denG56uDvL3k1m1bAFbC9eyd99Wjh4/wKXL53n69FHxFdP/w2qKwgaJ/zRQKF/zT6n891nA8EHA8EaxFqIeXnz6rFqL6/fvsefQAXLylE1no/HxlgLqYIOvnxcz02exVcBx9tpV9UpZzwUoj16+4Nylc+zes52C1UvJzprFpIkJJCVGMzY2QgATJoAIF0BEECu3o8KD1GFSS/MRdGzTjhpVqqBVswJlupaivE0ZVVFUEE9dpk9ptHQrYKRTEV0NbbT0pWL3FmuiVHYVAL/kVwD8X/OvnvcLKAQSCii0bDXQGi1/TxRFs4AmnL11RvnBftNQ+jHu3b3L/j27WDAvk+miKialJMvvNokZ02cyJz1TlEMmM2alkzxxCpEx8fgEhuLkrlyL1A1nV088vf2Jih7L9JlzyBJgZIslyRFI5C1cyaLF61i8ZD35S+W4ch1LV61m6YolLFu5gMVL55EldmNSajxeHk707d2dTh3aMqB/bzzdnJk2LZWCgmXs2rWFg4f2cOr0US6LdXwkFvLDh/dSgf4zOj4VNkj85ykK5QQr6uHDT1++wuHLH63F7cePOXziOEuWL2GCeOnAAB8c7Ufj4eHKhMmprN20kePnL3BDnvdcWpen0jJevnGF/Qd3s2G9eOWcDJHQ4xiXEE18XCQxMaGqvYiLiVQhES3qITTID1cnO4YNGkTndh1oUr8RVZSVmZW0qNC6PBp25agQLdZjvFTqKE00TMuhUaUcuhXEVmhKhW4gFdpSbImTHP+8wv95Ko87K30QX2//WWrKv/+SKiTsNYrTrjxaNgIKMwGFX2PO3Dz99Rf77ePjxw88FDAfPniARQvzmDl9GlMnTWHqlGmqusjIyGJOxlxmzc4gdcoMxoxNwjckAldPXxyc3VVgeHkHEDkmjinTZzN3/kIBvCiMBcvV0ZJs5bhoNfnL17F87UbWbtzMejmXmwvXs2VzAatWLiYzYxYR4cHqJQq6de7EAJO+ap/T1KmprN+whv0HdnH02EFOnzvJlauXePDwPu+UizT/m4+UKGyQ+M8AhfLllKXFn+SkKv0OSsfky8+feSZK4O6zZ5y6cJaC9WukFZlEaGiAaitcXB0ZmxTPkpUrOXD8BFfuPxDl8FGg8pHrd29x5NgBthRKS7VwntopmZIUS0KsACEyRFUMcTERkmIt5HZkaCDeHi5YW4xiyIAB9O3Wg/ZtfqRxs0bU+bEWVQdVwcjVEP1oPXSn6KCToYlOthb6Wbrop+qiI5Vap70GOm0kB0rlVlp/dbRC0lG5LakcVRiIhVDuizrQEgujJepE0778X8BB82tq28v72gkk5P205fmq9Rj1PU19G3H6xu8Hil9CuQzhwwcPOHHsKKuWLxObMItpU6fKeZlBWtpsMjOzyJw7X1TGXCZNSyM2MZnAsDF4+AYKMDxwUoDh4094RDQTJ84kM2uBOmFLgca83MWSS8hdtEKdIr5ibSEbCrezfXsRu0Qd7t27k8ItG8hfmM04sUG21lb06dGdgQP64e7uypSpk6SMrOXg4X2cOHWE8xfPcO3GVe49uMebN6+LLz3wbxgKGyT+vUGhjO59kq/2XiDxVul7+PyF58qkqNevOS+2YbN45PTZMxkTFaJuOqvsSh0lLX9O/kJ2HjzIhVu3eCpweC2vvfv4EafOHGdn0SZWLMsjc9YkpiSPFfUQVdzfIGpBsRVxqr0Q9SDACPDxxM7GUp26PFBaqP59etGzVxc6D2hLa6vmNPSpQ43oqlSdZETlrEoYLzDEKN9AUh/DJfpUXK6H4SrJRXpUnCbQGKONjqemVGoBgdKnoBwVNSBg0HYQMNiKErEsi/bQsuj000C/T3l0TcqgNVJgIUAohkqx1SiGhKQKCUlr+Tdl1GPkdwKKhurw6D8qfpJK91h+77OnT1KwZrWcoznMmDZdtSOz09LJElhkzctldsY8psxIJyFlEkERMQKMIBxcPXB08cDTK4CQ0DEkT5hKxtxcsgUSCjTmyzEre7GqMhYuXcPKgk1s2lbEzj172XdwnzQAB9m7r4jVq5cxc8YUsSVu9O/XV4BhIo2HMxNSJ7B23Rp53iHOnDvFhUvnuXb9Cnfu3eHlq5d8/vJZtbT/LqGwQeLfDxS/zJRU5ju8k1Qq+Qs5eY/evuXyrZsU7dlJTu48EhNj1YvdONhZExDky0wBxqZtWzl95TKP377jrbzPw+dPOXfxLHv27KBg1RLmZcxg6oREUhNiGSd2IkFUg6Iixir24qu1CA70FWvhgMWoEQwZNID+fXvTu3cPtWUaYjqALnYdaRhejxqTq1B5XiUqL6pElfxKVFtkTO0lNWixqjG9N3aneUFTjFdVxGiNgGNjRYwL5fZqAchcPfTHiurwEmuiVH5LgcPIcuiIRdHuXwad7uXR66iNYVt5XfuKGHYRy9KvNFrmoi4EKsqcCR0l7SXt5D0U2IiS0LQSy2NZjjIjvqOJVwNOXT/59Rf9x8aTJ485e+YMmzZsYN7cecyakSZ2JI3ZYkPmzs1W14coK1CnzppDQvJEQiJj8fQPxtHNCwcnAYZYklBRHeOTJzF7TvYfp4XPl1SAoRzzVWBsZtP2nezat59DRw5z4vQxjp04RGHhBubMSSMosHjdyGCxjM7OLqSkpLBq9WoOHT3M6QtnOHvpHFeuX1WB8ezFc7Xj89+hUilskPjXAsUfP+Sff1q5/ad+h594J1/ljQBCmRD19MN7boj33XtIudhNPinJSfh4ualXwvL19WDqjGms2biBI1IQ78vJfStv9kQZ8796kYNKv8O6FczPnMnkFFEOscowpiiHiBCixwQTkuhFkKSiRsKD/fFwc8La0pwRpsPUhU8m/fuKz+2H6dCBmJsNZ9RIeXyo2A673rQOa03V1MoY5RhivNSQyssrUmN1FYFDY/ps7InVDgt6bO5Byw3NaLWxGTU3VMP4KyyMt1ak0moDKs3WxyBUB20BhGY7AUTbMmi3EiXRSguDtgKV9pWp0rEqlbsYoS/w0BkssFD2n7AXcAgktG21BBKalLcoh8Zwgcjw8lQYVY7vTb+lgXvdfxpQ/BIvnj/n4oWLbNuyjZzsXLEi6cyaNVuAkcncTAHA/Dwy5Dh9VgZJoiJCouPwCQzDRenHEIXh4eVHULBAPSFZGoUsVVkowFBynsBjXt4SFixZJZZEURhiRfYf4OjxI5w+e4LTZ06wa9d2sSW5xMcpK1Gt5BwPwcHRmbGJ4wQ0S9knZeyMWNhzly9w5WYxMJ4+f8aHjx+Uyvb1W/zrhcIGiX9RRaHCoXga9SeBgtrvoMBBjkon411phY6JbF21dqV4XJGlAb7Y21qqS7gTx8WzcNky9h47xu2nzwQO8PzDO67dvi4FQ2lB1rEgN4Npk8eRFD+GqHCRsH6ehPp7EhjhhkOSFQPG96FdQivaRbTCxL0vZmYjMB0yRFRDf2lxTBg5YqhAYxSjrc2wthiOmelgBvbrRa9u3RjQx4TBw4fQx7MPrce2otqsqhgvq0jl9YbU2VSD1oXN6by1PZ0K2zNk+yD6b+1Nm8KWNN5cn7qFtQQUhhhuFGUxwwDjECP0fJWNZ0Qd9BRl0E6sRjtRE+1FTXQxpmr36lTvUR2jHgbo9hMLMkqAMlrp49BC07oC5RRL0luDGl2NaGHSgLrDq1NhRDl6RXbn5sPrxb/1P1kosz0vX77Mjh1F5OUtEFDMYbaoifS0YmBk5yxk7rw8pgtAxk2aSlhsAr7B4biJsrB39sTFw5uAEFGAAozpszJVSCgjJb/Yknk5S8hbtJIVqzeweUsRexRgnDjOmfNnuHj5PIePHGT5imXS6CTj6OjE0KEjGG3rSGxcAnn5+ew+sJczl85yQRqbqzevcefBXZ48fcq79+/UfrJ/tVDYIPEvBgr5lOpMSYGCOpVa7r+WfPHpC/elxTl54RwbNq0nPX0mkREiP+2tcXayJTpuDPNys9m6ZzdX791TZ1i++vyJm/fvqBKzqGgzyxdnkz4jlQnj44iLCSMs1F8A442fjyu+ohacQ63oHd+V2tE10Y7SpnRQKcp5laGWXU36De6L+TApMKIoFCDZ21rI7VFYjhzKyGEmApG+jLIwwcJhEAOH9aFPjz6MHGrGMJvh9AnoR5sJbaiRWRXD1boYbdGj2hYjGm2pQ4/tXem4rS1dt3Wg+/bOtN/+I4221aPextpUnmNE5anGGC4RhbGyIhUn6aPnpYX+AAFFZwFPt8pU61mDGn1qU61vdQz6iIpQVIWFKAcVEmXR6FGOOm2r0793d8xHmDLUqj89XLoybekU3n548/VH/+eMt2Ilr1y5wu7du1myZClz0ueKyshQOzozxZIowMjKXsCM9CxSJs8gauw4/EKicPMJVBWGi7s3gcERxMaPZ/L0dObOzy8eIflFYeQsUidyLV+1nk0KMA4c4tjJk5w9f5aLVy9w8tQJ1q0vYPr06fj4+DFipDlWNnZERMdIWctV592cuXiOi9evcOXGde6Isn309Alv5HP/xUWa/8lDYYPEvwYolKtv/6nfQbkI78/qqMXD1684f+0yW4u2ifScqw5DOjvaYG9nTWh4MGkZ6WzYvpXzN2/w6tNndSj0zuNHIhFPs2fvNlavymfunKlMm5hAckIUsVGhRAlgosIDCQn0wsfDERc7K6xtTOkW3B69Mbp86/YtPzj9QCmnUpR2KUUdp5qY2g3CwcEaV/nbLvK3bS1GqSrC2mIofsGOxM8MZPraSNK3jyF+ngfDbUzo1EnZxGWQVFArhluPoq8Ao/Wk1lTOMcJgnQIMfapuNaLW9mo03F6PNjta0r2oMz13dKPrrs603NOUaruNqbK7ElX2GGG8zhD9OF30nXUw8hI7Yy6g6F+D6v1qU92kFpX7G6JrUhbN4WUoJ8qidP9SGLc2pFfPLtiI8nF0scfD002dbbp4wUJV5n8WmP6zx4cPH7h+/QZ79+5n+fIVzJmTRZqoCWWq99ysHLJzF6mZNmc+EwQY0fHj8A+NwsNHmcDlraZPQBhjYhKZOGXWn0ZKFhQrjLnzi/fGWLJiPRsKd7BLFMYRgYRiMy5evcRZOSpXU5szN0Nd4GZhbYO5lQ1BoeGkzZ3L5u07OH3+PJevX1OBcfvuHR6J4n31dSXuP3sobJD45wWF0nOsTKX+KKnCQSChrNIs7pS8JYTfx+JlC0lOHouHu4PAwQr/AB9Sp0xk+dq1nLh4kWcfPvJGXn//2TMuXrnEwUN72bB+BbnzZjFzajKpybEkjo0gIS5cnfegdkgKKEICvXGRij/KdBCD+/Sm+6CO1HSsyvee3/Ody3f8YP8d39lI2v4BQzcD2oa2ont8RwZG98LSfSiu7paEJTgzZUEkqw5msONOLpsfzaTgVioLjsQSmGJJ525t6Nqpq9iR3gzqPwxLcztGOVnRM7wPzae1oPICYypu1MNwhx4Vdwg0thnz444WmOzqS7/dfWi/sy3NixrTamcTGu6sR+UVlTAab4jRNIHE6kpUnlmJqr5VqT68FlUGVsfYpDL6/cR2DCpN+SE/UL5zWRq3rsfwIQMYLb+duyin0JAgYkJCifQPID87l9ci8/9V4pM0BLekXOzfv59Vq9aQNS9H1EUWGRnzmTs3h5ycfHJzF5Mu9ycoczHik0VhRIvCCBKFoUzg8sDLVxoJAcaESTNIz8xTl7gXK4wlZAow5orSWLhsDdv37FOH1E+dPy3AENUgjdUlyX2H9pGbnysKNgZbe0fMLK3xDQxiVnomG7ds5cSZ01z6Cowbd27z8MkjXspv/M/c8amwQeKfCxSKIPsi/68MaX6QT6RYi1eiHp6+l1bj/n0OHjsq3nEFU6ZMUK+EpQxn+nh7MC55HAuXL+GASMNHr9/yTl73WE7AFfGIx44fYevmdSzKk1Zm5gSmTownOSmaJFEQasZHCSwiiY8JJyzYF2eH0WoHZJ+e0nJ37kCPzl3o0q8jVSwr8wenP/C9s4DC7XtK+f5A2TDx/IlaVJptQNVcI+rOrUm7yS1xyzNjwelEdjyYw7abGaw5PZHsfZHM2RIkysKP8Gm2mFr1ZZj5IDwjHPGPd2eU3SiGDh6BrY0zI92s6BHVmxazmqsjIoab9ahUJLAoMqbV7uZ039NZUj7X7o5qNtndkKq7jKm5oyo1CiuLuqiI0VIDqk2tQqugVnRy6UKNYbXQ76+LZt/vKd/vD+h10qZD+x8xNemPvfVofH28iIkIIzLQlxAvDzJnpPHy+b/epfiUCVB3797l8OEjFBSsZ968XLGic5mjACMrT91BK0cURnpmjliSNMaMTcY3OBI370BRF8oELk9RG4FiIeIZP2GaqkTmC2Dm5wksxI7Mkdcrk7b2Hj7M0VMnRS2cE4txXs0LojCUCXjHTh5j+cqVjE9JxtndDXP5fT18/Jk0dQar163nyIlTKjCu3ioGxoPHj3nx6iXvRR39s834VNgg8Y8HhfKnlRGL4vkOinooXmvx/OMnbotEO3H2DBsLN6r9DiFSkZU+AFdXR5GKUUL5eewUKXj32XNVOTx9944b9+9w6swJinZsZln+fDJnTlaHNCckxYi9GCMZTXJiNOPkdpKyMGtMKAF+Hjja2TBsyEC6CBxatWpOu3at6SPefYRYiCEj+1NrRA2+Mf2GP1h/R+kwkfAzKqCfo4PxgopUX1iZJgvq03RBI2ovrUanzS3wOWjOpAM+ZO4MYV5hBDmbx5K7KZHZa6KYvDiK6QvGkV4wjpWXZ7HyyjSi0twYYNqf3n0GYDrcEmtbJ0a4WtA9ogfN0hpTeZkRFcWOVNqlT8M9dem5rxuN9zSk5k5RC1sqqdbDeLkhVeaLFZlihFGCPDbGiL4TejNrySyCp4fSyaMzegM0KN3zG7Q6lqVNx2YM7t0Tm5FWeDl7EO7nS6SfJ2MCA1m6IJ83r/+5+yn+f/Hw4QOOHDnKunUbRFHkiS2ZR2ZmtjoHY372AlEYUvnnLRRLMpOouHEEhI7B0y8EFy9/VWW4KRdUjohhXIqyVV8WmQKJuYotWbKWZWs2sb5wO7v2HeCoNFCnzwkwLhQD4+LVK1y/dZOzFy+wftMGJk6dLKDwFUsyWu0bSU6dyvLVazl49BgXBRjXbt/iugDj7qNHPHspwHj//p+mH0Nhg8TvBwrlAr1vP7/l00+f1Q5J5S+KWChWDiocitdZ3BObcObSRbbt3MG87LlEKZOhHEfj6mJHmNiCaWkzKNiyRV2E9VKe/1yZev3gvjrfYe/eHaxavpCs9KnMmDSO1EQ5yXGiGGIjGRevQEJgER8t9xX14I+XmzO21hYMlFa1Q/v2/Ni6FR07tqOnqAkTkz4MHtSXIQP70rtfZ6p2q8w3P35L+R7lMHQxwCiuIoYz9TBeWJFaq6rSdGVDmi1tRP382tTKr06dZdXptrYV7uuHM2VLCKsPpVF0cTGbL2Wz9doCTr7czIEXS1h7YxKLTo1l2jp/bP2G0KVbF3r07IfJwCGMGG6Fnb2oDU9LusZ0p/GcRlReIhDYVhHjIrEZm0Q5rKxI5dxKVJtZmcrjjKk8Ro7hlTEMMKS8uwbtI9tw8vQxnr98ztIdy3Gb5EoLh/oY9tWkad862NuPIjIkgjD/EMJ8fIjw9WFaykROnzylXnn93yGePn3K8ePH2bhxMwsWLFLtSEamojBymadM9xbFkDk/Typ0GjEJKQSGx+ChAMPDD3sBqIu7DyHyWELSRKbNmsu8/FWSq5kjdkTZD2PNhi0U7RVgnD4tcLjI2cuXOSdW98K1qwKBmwKOy2zdsV1gM5tAsXbWdg7q1PP4cRPIX7aC3QcOcf6qAEOU0PW797j38DHPX7zi7dt36k5ifxlSYeR/v1cobJD47UHx+efP3P9wj/NvhLYvz3Lv9UPuPnjEI5G1Lz58VJXDfWWF5o0b7Dm4n/ylC4mXVl9Zuu3oaIu/SOHUyamsKFjDmatX1TUZT+QHfCDkvff0CSdE5hWsEcrPncmsKclMHB/LeFEK4yTHi60YPzZaXcqcGDdGnQMR5CcthbM9FmYjMenXl57du9OzR3d69+qBSf/eDBnUn2EDBzC4f19MBBjdO7alY/eWtB7aiLYWTRng1IXBbl3paNec+o7VqR5hhHGaVNxlFalRUJn6q+vQYFk9dfJUzZXVaLGpGRa7hjL2pA+LHkxi27Mstt6ZzZpzqSw8GMecbcGkbQgmZZEXXnHm2Dib4xXmTNhEP7zGuDPUbBQjR43G2cWTwe5DqeJbBd3pOupW81UzKlE5tRJV44ypGlEVoxBjDPwM0HXXQtOpPOWcStPIsz6LBJ6qr5N49OIRi7YsIHJOCDFzIli2fhEHDxxgo7S6+fNzmD87g/3iwT/Jefl3i5cvX3Dy1Gk2bdxK/sKlKjBUlTE3R1SG2JKcfFENC5k0Yw5jBBgBYdHFwPAKwMHNR1UZQfLYtAwBjMAifV4+MzMXMGNODrlLVosdOcYlKaNnREkoGxkdPHpUva3YjOsCjGu3bqhzerJy5hEaFYWNvaOaEdFx5OQvFnVykPOXrnPz1kNu3ZZ6cu+R2L/XfPrwSW1ofxJjrliT/+2GQn9PKGyQ+PVBobzVx58+cu/DHQ683MeaRytZ92gDhU92cExAce3pfY6du8BRyTNC0QNqv8NyJk0cj4+3G04Otnh5uTM2cSx5SxZxRCTdozdveSpy7L4CB1EcyjyJ6/fucuLMKfIXZJGSpNgIUQ1fAVEMiTHqUVl7ERbkj6+8p5PYi5HDhzFoYH+GDDZhuNgKc7MRWFubYWU+AquRw7CUfzcfPJihfXszdHAvrJwG4BtvSeIST7IOx5J/ehzT1gfiM24kAy060KxnbSoPNaBSiC7GGQZUFVjU2VyT2ptr0HBTXZpsakK9wno039WY4cd6EXJsNOP3uZO2PZicrVJAChPJ2TKOjPViS5Ylk791Dltv5bHv3WIWHE3BKdScXv3ksw6zYuiIYdToU40yw0uhF6hN5WhjqoQp6qEiup466ma7OgIJHWVzGsfyVHAuR03HakyYksLHd///C/UqG8zcv3OXz6LUlPgVi8U/VSj7YpyTclVYuI1Fi5epw6lz5ohNzcoRZbGAebmL1JWoU2dlEps4gSBRE57+YeqV1918g0mcnEZG3gpmCygylHkXS1dTsHkb+5R+CwUQhw+wa88udu/by6nzZ7l88zpXJRVQKH0Siso4fPI4uYsWERUbKwByFavpSLBYH+X6JusPbWHf1cNcuiP25dYlCq9sYeH5Bey4sY0Pn+U8/qspCvVlX1/65edPPPhwn6tvrnLw8UGSLiTSbV8nmm1oROSWGI5dvsCL91/USVGKKjh/8zY7DxxkxozpAgcbnJzsiY4dI7TNZp/4ynvPXqh9DvelFXjw4rk6cnHzvigT8X8nz59XOzZXr1nJpAmJjI0OFcUgoEgohsNYZSFWSAD+ypZ0oh6sLMwYYTpUnR1pZTlKnZnpYG/DaGtzrK3McHFywMddIGVvxZDRfejt2pHhYX2Jme/OkmMTKLw3k423p7HifDI5h8YwY70fY9JssPLqRef+zWjTtRFdrX+kc9yPNJhZi6rLjKi2y5ha+6rRoKguTbc2pcnWJtSX2w121aZjUTPsCgcxc3cc284vYvv1fIruL+b0qx0ceVbA+tvTWXZhHAuORTNugTtDLAbQ32QIw0aYUrNdNUp1+p5yluXQ8dFWr+Ohpeyj6aFZvIemksqems6alHMsQ9uwH6Wl2/u/boWUc/s3Fot/mVD6Ai5eusy2bTtYsmSFOiU8PWMeGVl5ZM5bINDIV+dXTJ+VRULiVEIj4gmIGEvqjEzylq1jyZqNbNhaPGS6XyChrBXZsWsnO/fu4dQ5aRRv3eTKjavSoJ2gcMsm1ooqVlTGxWvXuXJbgHHnjoDkPCvXFjB+/ERcfbwZHDUMkyX9cT3kyrQT00naO45+y/qin6rNqLzhvHj3/Oun/31CYYPE3w8KZdXcow+PuPzmEnue7Wbdg40su7qSgMNB/LiyNRoR5dAdpI1rgBeF23dz6/FTXnz+wsvPP6lrKnYJLKbOnEHu4kWcunyJB9KqPRbiPxT1cOfxY64KhZUt5M5dvcTxc2co3LFFvOVsUsbHi60Yo/Y/JMRGEB8dxpjwQIL9vfF0dcbG0kKFg9mo4VgJEJS5Fc5OSl+HLR7KfpaezjjaWTHYxIQhAwZj5WjJAM9+NBvTkPr5Neh5oB2hV+yYe30Mi88msHB/LJnbwpm1LpjUfC/CplvjnjAc57jhhMx0YtrmMaQWhGIW3ZdGgTXFFhhRZbsRNQ9Vo/5+gcXOJjTb1pja22tQZXMljFYa0GtNe2afH0vRs2w23Z3BqoviWY+NJXt/FLn7Ylm4t7jz0z/KiaHDhmAqWbt+Nb6v8wOlh5amglt5ND000HTXUCHxxz00BRIVRFGUtS9Fv/F9efa2uHC9/vCac8/Pcef9LWmU5JSLHfnpxk98PiU24+k/V2/77xVKGVaGJ69J5S0GxkrVhih7dGZmLiQrazHZWUtFbeQzZVYGyZNnk71oJdv3HmCfVHrFYuzev5etRTvYL/cv3RA43LotZfYyR8UWb9q8nmlTUrGzscDaYiTp6bM5cvKUgOIOV0W9Kf0St+495PrVOyzdu4pBBQMxWqOL4XI9jLMMqZRakQoR5fnG+xsGpZnw8v3vO2StsEHi77ce7z6/Y+WNlay5tV7UxB0ev3/Do3dvuP7iAXl7F2MaOYoqrcU/V62EiclApsyYzYGTZ0QpvObl1w5MZYu5Y+cvcvjseU5fuaJ2BCly7e6TJ9x9+lSdFjs/O5NUUQ/KkKY69yFW2XMxgpjIYIIEQj4eLqIUrFRroay3sDAfia3cd3RQ4GCPp5uTwMEJX29nsSHOAhM7bMyG06d3N9r1a0Mj60YY+RihE6WDwQx9Kq+sJJW6Gt32/4j7rqGM2+RG+vpIsgvHkVkYz7RNEcw/nMTGexlsfZbF2pvTmbtnDCGTLelr3ob6Q+U7xxlQeX0lqu2uTPXtVai+zhijpRWpmKWLzkyp0JM16Zbdiim7/cjZH0HO7kjyDySy8shkVu2fzrxVE0hIVXapdpLvM1ztQ6lVoxo/VPyeMial1P00NQQUFdxEVYiKKN4bU1lCLvCwVzaS/YE+Sb15/vaZeq6uPr2Cx2Y3/Hb7sOHheu5eusPzoGectTzL9cLr/9cpxv/euqI4lCqgAOOWVPJdu/ayZuUGFuWuZE5WLsk5UwlcGIpLnidR2eNZWbiFQ8eOs0OUQ5Hk8bNnuSTqQelnO3vhAnsP7GPZ8iUkS2Pm6myLSb9e9OjWBQcHOwHOXI6cOslVAcXlmze5oLzmxiWKru5mxvE0TNcNpXKaEboJmmiGl0MjuAzl/Evzvde3jMgYzruPyqKD3y8UNkj8/aB4/ekNcw7MY+Px3dx89FJar0+8/KhcBOdnnokvVpZqz8ycg6lU4B9bNaNzxw54ePuyaOUazly7wZP3H1AG4Z59/MSNR0/UNRj75SRckBOmwOTGw4csX7WUhLGRRIb5CxiCSBBAKEOb4+KjpNK7iqUYrsLB3GyUWAlz7GwtcXa0xd3NUd22zs/LjWBfD/y9XfFwtsPZzpLRliMYOKQ3LQY0wdisErouOuh6SwZpoxMmxxgd9GbqYCgtf/WNRowo7EPWoUQ2XJnD5ofz2Pp8vhxnU3BjMotPJZCxPYzxi13xTBzCQMt2dO7blA62LWg9sQk1cqpQKU8fw3QdKk4TEKXKcbwu+om61Eiqgm32YBbuSaLgyAy2n81h1/l85q9Owt3PCouRpow0HcyoEUPo37cXNevXoHTtUpQ2KU151/J/hISWsi2eq1bxrlcOFdCwKUNp6x/oMbYbT149Us/Vuftn6DO7t7qdfZO5DQmcEUDukBzihsaRMjmVQxcPy/l8rT73l/ggLdgHKZx/ewn51wtlxuTlm1fI2jwf90UedFragZrLq9BoeQMcV7izbOtGjp0+z/lr17h4/QYXrl7l5NnTbC/azvysDKIiQtTd0EbbmOPq6kBoZAjzcnPELku5vn6dy6I6LomFPn3mFAcENHPXZTB48SBqTFcaF73iq78FVkAnQAOdoApUCCpLKd/vsMgy5/2n918/5e8TChsk/n5QvJFClL5zLos3rhWPdpqzV29z5+lLnr77qNqL119QRymOnzvHpGlTsBIJNnjwAGzt7UhMSaVgWxGX79zn+QcBjFgSdeblnXuq6jh2QZTF3fucFZWxdn0B06ZNVPd5GBMRSEJMJElxUXh7umBlaa6qByeBg5tySTt3B/y8BQ4B3gQKIHyVS+DJCXMTutvbmmNmNojeQzpTf1AdDIYboGOlg46DNnpuuuj5SAbI7RBddMOl5U/QRnOaJk1y6xN3wIdN99JZf2say84lkXMwiswdocwoCCQp15WwGVb4JI3Ec6wZ4WmupBREEjTfjfYRLTEcq4fBBG2MxxlQJbGSAKI6NROqUy2mGoNn9WfVkXQKj89l3sZYkrN88Qu3Z9TwgZgOUtaKDFBnUPbp1Y2aXatRfqSoBfNylFe28HcphoO2s7Kprtx2lJbIXtK2nLqjdueoDtx/dl9tMVefXEmj5AZoh8m/B2qpV9BqmFCfH31a0MqpBaPGWTJrfSYnrp1SG4D3okRunxO7eGEfL5/c5ZOyEvKnf1+Loiiqhx8fcuDVflIvJ9N1a2dqraxG8xVNGLxsCImbk9l+ep+oh1tclobs3JWrHBHrsW79WqZNnYi/lDVlnY+TqNjgkACmz5rBFoHHmcuXxWbcUYc+L12/yomTx9m5YzPrVixiQWYaTlGj0XbXoWxAKbT8ywogNNENFIUYJKAIFtUooCjjV4rR82348On/3yn9a4bCBolfARSf3jJvbw6L16+msHAPW3YcYP9xRYo94N6LNzx9/1Fd8v3qyxfuv3jJniOHmTpzKgHBvri4O+Hl78+U2ZkUHTzGrafP1c7OF0L0ey9eieK4zr4TJzl99TpX7z/gxPnzZOflEBEWRJSciISYcIL8PAUAduoyb38fN0IDvQmXVFZ8Bvi4iyVxxt1FVISjtcDETFrnQdLat6V676romAgIhupS0dyAijb66DiKkvAohoVuoKIuJJWl3FFC+AQtOs9sSdJaT3LFYmRuCyV9UyhzNkSQXhDD5GWhTF4dwoLDkyi8O58tT7JYeXUKqSsCMA/qTSP3GlSJr0StpBrUTahDvfj61I6tjXFkFVrEN8E304oYgYvPGEtsnYZhNnIII4YOZMSwgSokhpj0o12vllQcYYCmAKKsdRk0HMp/3e5OCpWjfEYHAZ4ctR0EBKOlFTL7hnahrbn15KYKigV7FlIlsCrlfSvI99LHIEK+c7hAMUJUToL8DkECDremWKTYk7Z+Dlt3L2HP5nT2FUzh6JZsrp3ew9vXz4r7N/6N4sPn92on/Kr7K3A75kyrzc1ouLYe7Va2wXGNE9l7F3H40hlRGbe5fvuuAOKyai8WLVoo6jZavTyk0kHu5upIjDReC5bkiyo+KurhBteUK8HdvcPFyxc5dOgAhdKgrlicS+7cNLJmTWZGShKj3IdR3lyTCv4aaAcpgBBVGCiNQEBZuS+KIkAaBQGIY649Hz9//Pqpf59Q2CDx6/RRZO3PJrdgOdu27GfL1r1s3Lqb7bsOceTMZa7df8LDV2/V+RLKpCplh6nbT5+w69A+dZPakPBQ3Ly8CY6MUS8Xd+T8RR68flO8n4Ry9a2nzzh+8TL7T5/loiiNi0Ly1Emp6srQsEAfwkP8RDl4qcewEB9Cg7wJlfsBAg0fL+Xq4KOF8mZYm43ArN9QBjfry4+Nm1GxS0W0+gkIBupSc0Q1allUQ99WDz1ngYebwEFsiE6A2A8VFrrqBXENY/UZktydifMDyVwbR25hCov3TWb1+dlsvZ9L0bNctj/LEkuSxqrLKarimLLKB+/4EXR1aEmtoBrUSahLzZjaVA2vjmGwkbQgWhgH6NPFsznDRvVmlNiMEUMHqXAYPrQ4FVXRs3dnavSrgra9lgCiHGUtxLuKaqhgXx4tZRMae6nwdmJnRuuhM1IbjaHlKGX6B1oHteDm0xvquVqybxlVvAQUzuXk+wlQ/OW7iXIyjKoo0JDXhWmhE6+NYUglGrs3xyzejPiMQLLmhlCQH8euDZncv3P53wIUynyEpx+fcuzVMWZcm8LA3X1pvLEeDVY2oEt+d8LXRbPh+DbO3FAmTT3gpjR8Zy9clIZwqzpLODTEH2flKu92oiJ9PKRMTmDd5k2clOdcvXWf23cfc/Pmfc6cPcuu3dtZL/Z5SW4WWbOnMXvqBNKmpJAxfRKzUsZj5mZKBQstAUMFtINFHQocKvrrUcXHSBosOd8BZQQc5fHId+Pzl993fovCBom/HxTvBRQT9k7AI8ePOfk5bNxYxLbt+9m0ZTebtu1l5/5jnLp4g5uPX6jX5Xz+6bO665SyqYxy6f8tO3cyafo0AsLCRF0EEZ2YzJKCDaImbvLk3Xt1Sbgyj+Law0cqMI6cOcf4lHGYiF93trchKiyQ8CCBRKAfIUFeBAa64RcgSsXLHjexInajzLHoYYplQ1Ps9c1xKmdJj6odMepshHZfqSgmOlQfVpV6o2pRw7oqle0qoe8kikKkoI4CC39pqdV+C120o7WoHVId66BRJEwIJ352MDPXx7PuZhrbnmSw7sZklpyOJ+fAGFEd0SzYO5bs7fGMnePKQOcO1LYXOIQZoR+kJxVVWn338pR3LSMqoDyNh9WkT4+umA4uVhDDB5swQo6mAwbQv2cPmvVoiO7I4olU5UUtlB1VRqxFGcralEPDRgqTTQU0pVUy7G9Io75N6GHbmz7+JoxMGsWVe5f5+Okji/csoaqHgMJB/qar0gkq6S2qxF8URrAORgIMBRraEVJY48QmhVahiUczTMcMYcxMf/JWZXDo2AHeXnsLX7sy/pmh8d99NqWi3f1wm41P1uN3yocOO9rScH09mi9txoilo5hZNJc9545z8eYdqezPuCGV/cjxY+pcn5QJ4wQK7jgIHJycRxMeEUxWtrKMYD/nr97g1t0n8ponnLp2ka0nt7Bqx2KWLc8jL3MOc6ZOIm1yijopME1AkTljEpkCivExUfQf3VtVFFoBGmiJ1dCVMtfVtwsjAkdi5GdIOf9SYkEq4LfE+18XFB+/vGf84fHUT29IC7dWBI4JZ/GSNWwWZVEooNhUuJvN2/ax5/Bpzl+7y93nrwUAH9TRjl/6JJQOz1UbN0rlS8U3KASfoFDGT5rBxh27uP7gkTpV+5U898Gr11y/d59Fy5fh6uKEh7MDIf7eBArRfT1c8HJ3xE+OPs4ueA53wbmtKzbVBBgGjgRquOP5B3tGfjOAFsaNMehUEZ0+oh7661B5sDENh9ehpnlVjC2NqDa6ClWdq2DoYah2cOr4SesrFUlHJLpOiBaNbRtibmUmSsgNF397ImY6Mn9fJAsOCRz2x7JoXyIFR2ey/VwO64+lMWmhH6bunag2vCIV3KVie5SlgksZKjiVlta9FHqiCFqbNmbogH6MFLsxfPAAhvbvh0n/nnTr2ZFG7epj2EdfvQRgOdvSlLL8njIWZdGUVqiStT41bIwxMNdBo08FjNsbY+3tSP7KApau3URa3jzWbljFjp0FTFqcTFW3emiP1qW6U2WMneQ3cNKitFsZSnuVpXxAeXTEahlFi8KIlr+nKIyxuhhFVKOZR2u8kgJZlLqUuxZ3eDHjGZ/fKIX2X0NdvP38hvNvzpF5cw6jDpnSYlsT6q6uTZtFbfBfH8yqYxs5fvUSt24/5v6Dl1y+cZtd+/ao2xdER4fj4mKPjY05bm6OJCTFs3zNag6fOs2Vm/e4d/8FN+8+5ITYkxUHlxO6I4B+W7rTZ1UXPNMcSUmOYWaqAEJUx+ypE1VgTEyMJcDXjT5DulO5axU0LATOgUrHZXkMfQ0Y6DcQy3BLDAMM1FEP/RBtglcE8fmn33dpusIGiV8DFB+ZeXIGNTKr803/b9BtoMfAoUOYPGUmawoK2bJdYCHqYuPmXWwrOsChkxe4fOcR918qsy0FGMqcCrEZ916+5OiF8yxYvpyYpCS8A4IJDo9hVlYuuw8fVy2IYkcUhXFHbh86eYKFikccG0OQr4cAw5NwVz+i+kYT2yCV6IqTCSqXhNf34fj+4IPPD46M/H4gTcs0wLCmAdqdddDspY1WX5HaAypRw7Q6VUcZU928CnWsatLAsT71XOti5GGEnre+WAQFFtKih2qi56JLm2E/YjnSmoH9B9JzUHsiZtizaFcKBQdns/5oOsv2TSRzYywTFgUQNtGW/o7t0BtQgfL2pdBwFkg4lkHDsbQ6zdpAbEPHka0ZOWigwKIvffp1o03vFtTsWQ3dnjpU6F8BrVGaohoEMFalqWijSU1LA7pY1cHauiHucjQ1q0uzPrVp0L0+Fq5WzJqdKUptDoHR4qHDPPCLtMUt0ow6jp2pYv4jXUf0pKd1L360bUNl+2ryuSrwndP3lPIpJYVV6cPQEXVhQMUYfSpEVEA/1oBRoebkjcplT+XtbGtVwKMTD7+Wgn98/LcFWIr1408P2flsB9HnI+m9pztNNjeg/vL69F86iNSd09hxbh+Xbt7mwcNX3HvwgjNiHTZs3qBeCS5IrK2iHuzsLPEP8FY7Jzfv2M7pC5dV5XD/4Ut1zsSeM/vI2Dsbl232dNzchpoFldFfqo3BbF1qxdfAPM6UGRNFTaQKIJISCPX3o3/vXlStVRmNOhqUbiXQtxIoBym2QwM9Py1q+FejTnBNeUxL7Z8wDNUnanUkX37nzmSFDRJ/Pyg+fflM/rlFDFw4BCNzI0obf0+lSrp079xJbEAQeQuXsLGwiEKl76JwJxu37GLHnsMcO3uFGw+fiq14x7OPygjJF3WI9NaTJ+w7fpw52bmERsfhFRhKeFwi8xct4+jZizxUlpHL31XyzrNn6nLfvLxs1q5Zyu6c3Sxut5mZ36xm4jeLGfv9HCJKiUop5c/oH0bQvmxLDKtLK9pZmwp9NSjXR1rRPiL3+stJGiz+fri0zmZVqWVZg1qja1DHviZVXapg7FEZAy8DOYGiQIKk4vpWoLpVNfoN6cvgviZ07twWW9cRJE4KI25cAIlpvsTMcMEjwgwb16GY2w2g86BWGPTURkMUgQKJCo5S6SXLO5RG17oCTQfVp0vPdjTpVR8DUQ8ag8tTakQpsReiOhSrIUcNURH1nOowyq8/bi4dCbWuS6x83gSLmkSMbo2rwwBGOYwQUPfCbkQ3hluZ0MV+CG1chtLFohe9BjanwUixQCP60qVbH/r2MmGA6RD6Wg+glQDD0EbOn20Zvnf9gTK+8vmk0OoGC0jD9TGMNqReZB36xonlE2+e2Cqco7MO8vntP9/mKx++fOD6+6vk383D4bgtHXe2o97aOrRY1Ay3dZ4sOLKCg5fPcOv+U54+fS+V/hEHjx0hf8lCEpNi8fRwYrSNmTrEOSY6ggWL89l75AgXr93m/qOX3Hv4gnNXr7BRVEjirjhMtw6i5abGVFklZWtBBfRm6WAwThqXcE3KBpaia0QHxsfFERUYLL+dPUMGDqZJw0boGkrjU0csaHtla0IFFBXUYVFtsSAVAuT3Vzoz5X5ZX1GdomjHrI763S8LoLBB4tcAxSc2X91KemE2CbMmYONoR7u2P9KoXm26dW6Pk6MDk6ZMVfcg3CSQUHLD5iI2bd3DrgMnOHPltlT4l+osTWWItLgT8wNX7t6ncPceJs6chW9oBF7+ocQmpbJs3SZ1+reyjb4CCwUwNx484MGLJ7x++IG99hfJ/GYTU79ZQUqpPOLLpBNQOgzT0v1prF8Xg44iqUfIiTEVrz9EKuqgspQbIDlQLMEQTXSG66JnpkdFy4pUlopjZG9IFScjarrWoKZXLSr6V0IzUMjvrkXTkWIXBg1g+CATzIYPwcpshDpKYWYxAAvrgYwcXtwROXRgP3r37kS9PjXRkEqv6VBe/oY2mkPL892IbyhvWpqqQyrTeFQD6tjWpLxVeUrbSMtuV04dvVC20zew1qGxYwOG+Joz2klZCu5CvEdPxji0IdxnKEGhdjh5WTHMfgRdR/al7+CW9BvQmJY2fWjhOJxOw/rSsk9b6g/vSv3BPWnSrQttO3Wha7de9Os/mAEjTOlp0Y9apnUoNbw031h+yx9EYZT1K4tOuBYGoiwqThZQ5mpiPN2QdvYtmWM3jdc3/nn2rHjx5TkHXhxg3OUEhhwcSHOxF7WW16D7kh7EFyWz4UwR527c4vHj9zx5/k6dz7B9ZxEZGbOJCA/CycEaK8uRuLk7kTJJ1KHY4eNnL6hAefT0nRwfceziSRYdzCdwhw99tnaj3oYa6C+XSj5fVNcUXQzi9KRS66HjrzQoUsb8y9DWtxU+Hh4429szYsRQ+vfrQ7cunejdqwsDhvSiycDGaNoINAI1VFDoBkg5lDJWwU+xhH/gW49vqBZRhSmFU9TFYb9nKGyQ+PtB8fnnT+y+sZd1RdvYWrifFSs3MmHKdBxdXNSdqPv364WD42hix8arW6sXrNvK5q1iRbbsFGDsZMuO/Rw4fpaL4vXuv3jN43fv1RESBRiPXr/h9NVrrNi4ifiUiXj6B+EXEsHEGXPYuHMv1+TEKftlKnPVXstXePHTB86tvsuqLvuZU249k75Zyvhvcwj9IQaTUr2oXbsGlQYbomclBV4qqraZVHizCmiOEm84QoPyw8pTZlg5yo4or/ZC69jooz9aX6S5EQ2d6lPXvS56PgZo+UkhEJmoXLSn2/BOWJqaMmroIIFGP4YJGIYNFDgM6CeA6M+wwf3VPofB/frStH9D9dqe5UeWwbhbRfQ76qA7RJsf3VrhNN6BxPljic+JY9S44fzo3ZJ2Lq1obF+Hrj4dMA8exQinEdi7+4gycKC/qTKMaklAuDueYwKxj/RnkJM57Yb2oLXLMNoEmtFqdDeam3WmrWkXWpt0oZZVf2p4jaKq0xCqOA+jrsVAGvXpRqsuXejeq7+cL1PaduyAdhMtfuj/A6XEFmlEiqqYpEOlmYZUnlgJw1hdyoeJInIti/1AC64UXfjjytTfJf6qpCqrk29/vMWKh8vwPu1Br33dpfLWpv6S+liusyX9YDa7zh/l1oPnvHwpFvfxc06cPc3qtauZNHmCellHO1EPtqPN1bkPGfOy2C4N1PnLNwQob3ny7L06i7Lo1G5m7JuGU5EtXTa3pcYaI7SXSMXO0EJ/gj56UaImAsXSStnQ8tVC218aI38pW/7laenRDHu70TjY2mA/2kJVZP7ebiREhTEmJJBull2pMFrKozLBSkBR3rc0pby+o4z3D+gJNFokNCNyRTjn7p37bztof8tQ2CDx94PiJ/nvyN0jLNm2moINhWwvOsCWov0sXlFAyuRp+Pj54eRsj7uHCxERkUycMkMk3irWi6oo3CbAUOyI5I7dxcOpV+494cHrd+qMTaXDU5lXoUzxPnz2HHnLlxMhwHH3CyQwIpaZc3PYdfi4/PtLURafBRSfePTiLZf2PmRH2Cnm1d/E5D8sJeybeEy+6UXNxtUwsDBA31pRDPrSSgv9lclWlnKSRPppiwWoYCHAGKlBWTOxJhZCdXm8skMVGjk3oKprVTQ9dND00kUrUF4Xpk1j1wYMHdafkYMHYjpEICFgGDakGBDqZClRHMUjF1KAu9ekzJBS6A7VovmoJowIMCViahizF81kbeFK9uwpYufO7SxZu5DJ81IYOzEa/2gPwuL8iIgMwXyUBaNGWjLC3JZeg03pZ2GGQ4Q/NqGejPRzZKC7FW3N+tF4tAmNYh1pHjyCocPrY9q/Nm2t+9Ik2onaE70xSnHDOMWD2nFutPQdTXfrUQw3s2DIsBH82K4N1VpVo7KrEYbJYjkmVsQoyRCDKGklfZRJXQJR+zKqhfrRtDFrxi7h46Pff0n625/eceL1caZen4T5sRG0KmpO1eWV6bCkI5FFcSw/uYGT167w9JnY2tc/cePeQ/Ye2E9u3nzGxkWKdbPD0txUXZCYmBTPsjWrOXDyFDel/D1/8ZGHj15zQezF+mMFxO8Zw/DtA2mxqRGVVomlyJNWf6aUnQRDdEOl4fAXq+ivS4XA4nKhFaAljYkCCk05VqC1Z0vcXRwJUncRCyElIYaZE8cxd9pk4qPC6TCqA2WtNSjt8z1lBBDlvL+nYpAuvSZ1Z/y6cew4v517z+99/ea/byhskPj7QaHE/Vf32Xl0L+u3bGPdxu1skIq/decBNm3fy8Klq0kVhREWGYFfgD8BwSHEJoxn1pz5rFi1UYWEqjAUYIgd2Sl2RBlOvfXoGY/EjihXFH/xRVlEJhbj0SOKDh0ibV42QRFRuPoEEB43jpylKzl6Tum/eMNrvvBG4HX/8RuOr7zOWvv9JFWZhvk3Q2hRqR4GPeVEDxVfOFTIPbi8WA5pNfuVQWeQNvo2cvKViUvKzEabCgIK+XdLobytPsZOVTByMUbPvSJaAgttH120w3WoEm5Ep9FtBAYmDB84oFhRDOrPUJN+DFEVVQ86926jQkK3pzYNRjfAeZwDExaMZ/HmfIr2bmP3nh1s3bFJvn+BKK11bNuxhW3bC6XVW0VuTjZTJicTGRXIaFtLevXuQR+RrsPNzRglrdRobxfM/J0ZHOzI4AhnBoQ50C3AinYJLnSPs8PetTeBnsPwTQjGdVYiJhmxNE0Ppf60EHpNjcF/ahIRE6IJSPBjZPRwmvk3pqZbTapFVqNSoqivMH10XQWOyuQuZc6GQznJ8mg4lKaSuQ4xwwN5funJ15LwG8Wflc6HHx6x8dF6Is6HYnKoH3U31qbW0poMKxjJlH0z2XpmH7fvv0DZnOuxNBrKrN5NWwuZPXsm4cEB0qpbYi32wkeUxNRZ06XMbub0xas8evaOZ6++yGsfc+T8cXIPZ+O/24v+W7tTd101dFaIslIu8zilIroxhmgFVUTDt6K0/npoBOhQXuCgISCt4K2LpqIqFFD4SjkSddE1sBNxAoQJCWOZniplX87n9AmJTB2XQHiAL62HteR7c1GaPqWpFVEDi3Qz0rbPZP+Vfbx9//uu7fjrUNgg8euAQnn5U2n1L4tN2L3vsICiiHWbtrNJFMPWnQdZtWEbc/MWMz51MqFRY/AVWIRGxZCcOk1d9796/VZ1KLXwKzC27NjHviOnOHftDnefvRI78kHdKPfVl+LrhV64eYuN24vEgszCOyhMLEkICSlTWLlhi+pBlT4OZf3IKwHGrWvP2T73ICkDEzGv2I9eddvSeWR7aljUomxP8ZCdy6HdXAejllXVHauNLCur8yj03bTQdZGTbadJWRtRGbaa6DqKxHSRFsRNCoKHnkhMaWWDtKnhWoVuwzowuH8/Bpn0pV/f7mrHZMs+jallUg3DIbqUHS6tsLkGvf36kpY1RwrvZpG4W9iyc6PkBjbvWM/GbQUUbFrDmg1r5DdZy9oN61hVsEZgm0/anBl4+rhIi9+aytWr06Jla3r26oWJwGmgrRmDYjwYnhqE6eQgBkzwxTTeG/fkcEImjGXctInMmD2NyTMmEzllPBZJEbSL82TQuCBCJ4TgmWknAOlBs6mNqTq+Cnr+egIGZQWqljoaUkG5VqlyOUIlVVgUq4oKlmUYYTeAezduFxeE3yKUkimpjK4VPtqI91kPOu5tS5WVlWi1tDW+24PJO7qMw5fOSxn8yJv3cPvhEw4eP8aSFUtISRmHj5crNhZi22ytiI6JImdRvjRIh7hy6wHPXn4WoHzg2q07bD+5g8kHUnHYaU3HQvmd1+qjvVjUQ4Y0ICmG6EQp/VMCBz99yvroUdZXbJgoibKiGspZlUevuy6VehihZyGNiQBDQwGFtzYm4X2YmjxOzdTEOAFGDJOSYpiWLLAQcDhE2tEutB2eeW4s3L+QM3fO/gUcf4m/r5b+baGwQeLXAcUvoawDePz4KWfOXaBo137WF+5g3eYdUgn2SWU4wPK1m0nLzGbs+FRCx0QTGBZBdFySOoy3YPFqtZNzy7Y9UokUYOxi266DHD55kct3HnL/5Rt1ApZygR9lOrjSf3Hy4mWWr98gkJiIh9gR76BwUmfOYfOufWr/hTILVAHGCz5x6tgFloxfxLKxCyhct5HZK9Pxn+iPQ5gbfYeZ07xlLxq36EDDrs2pMbQWlewMqegp9sRbT518pemoSXm7CtKSCjycRFG46aGtwMJVE22pQFVtjGk1tCmtejWlRs9qVDSRQjZcKUBlKG3zA99afqNesq+HW2/CYxIYP3kqmTlZrFi7jFXrlon0XcbajQUqHBRIrFwnwFgv4Ni4Xh7fQN7ihQRHhdCpXzeMG9Smcq0aVK5RjTp169K+Tzf6xLjSTyDRZZIfP8Y50cPdAt8gb/Wq7FNE4k6YOIGYGIG0jwcWTqNoH9ST5uO70iryR2rEVUM7XhuNQAGigKGsdVnKmwlE7TTQcBRQqBc41vjjqlQtO1EXtmXlu31PC1Egv+l1Sr+WzCOPDjF6vyWNttZjwJbBJOxJZd3x7Vy/+4Q3cpKfvf7EJWlAtu/aybz5GURHh6n7iyj2wt3diQmTJrBSfs9jZ8/z8OlbXrz5IqrzJaevXGTF8ZXE7otkxLaBNBaForumAtoLNdGfaYBuvKiHEEOxFgYCBkkpD0qWEVVZxk0aEbEXZZQO51Za1Kwq56NKDSq1N5LfSwDiLdZDgNE/uA/jY6Mlx5A8NpopAoiF8hl3b9/ChXNnxHIfovBYIXee/obA/RtDYYPEr6co/jyUay3cuXOPI8dOsVlUxbpNO9SKv1WAoUzvXrhsLdPS5xI3LkVVFsER0Ywdl8qsjGyWrVQuuLJLgLFXgLFLVSU79x3j+LlrXHvwVOzFO3XCljKkqmzCq2ysu+/ECbEfS8WGxOPi7U9QVBzp8xey+8gJdf7Fy5++oKy5eyrgePG+eK78J7EyT58/5eq1W6wuKJJKlUyXblY0a9qbxq3bUrd3I6qNqk4lF0MM/QwwUNSDu1QmqTQaYk20nLXRFkmuIwCpIJVGw66MtCRa6A3RopTpD5QSOJS2Fs8pkrKcWWm1A7OefW0sQmwICI/GL2wMEXGJjE0eT9iYCKLGxsv3n8viFStZva5AVMVaURNiPfJzmTJjKjHSEoXFReAREYB9gBemTqNp3K8Lxm2aUL9fJ6nwtrSa4EGrST60SPagXoANP7pbMsLTEe9AH9y8nBnqOYh2fq1pECxyPboqRvECM08BwWixYaIgytkIHIaXVydhadtpCzQUcAgsJCsIJJTp4poCCeVK6TryXA2LH6jkpMe8bVnqzM/i+KUs/HWR+tt7PJXNl1dcXEH0wVjSz2Wz/+ppnj77jDhT7j15wfEzZ1m7fh3T5XcK8vfCxmoENjZmhIQFkp6VweaiIi7duMvz118EKJ+5eecR+88dZt7RLPz2eNJ7S2eqr6+E9kqxFzm66E01VO1FhSBDyoh6KOMncBAFUUYajDJy3ssqRxdNSjtpUMqzHGV7laFS5UrUqVqLahWroF9fFJmlDmU9pYx46NMvoCdJ0ZFiN8azPD+Pg3t3cePaVT5JefxvQ+rT31klf7VQ2CDx6yqKv45Xr16LHbkhfns3BRu2sl6AsXmL2JGi/aI0ikQCrmDitNmMiR8nsIgSlRHL+InTmCt2ZJVy0ViBROGOveLbd6v9HbsPneL05dvclpbg8dsPxRO2vs7wvPbgIdv27Sdt3nwC5L1cfAKIik8mb9lqdf2IMl9DvaqYokbeveWZqJOPAhollK3fTp+7zPQ5SzC1CKR5qyE0atKNxiLz6/SrT2VlpmaQsfh2IwwCREV4aqKhTIFWlnYr0JBKU8GqHBoixZVJURrKtGrLsmI3SqE/SofOAe0JmuNPzub5pOfNxUfskq+oqQCxYXZubvQZ0J8R1jYCj0iSJk0hXb5DVm42KROTCY0IwT8ogODIUBLlfmbefFaJ4shbvYzQWakMCPWgiecomsQ60HqiF60VRTE1hBYzw6k/zosGvqZ08O9G6+Bm1ImsQdVxxhgkixoKFj+tqAflM49SrJUG5QQE2jbSknrJd3RWbEd5yomqUJRFBUn1iujK1c/FiukILBTroSXfc1TycDknt9TfUgHCqzcfOX32EVeuveD9+79tOE8pkMomzB+UTmohwok7F7j48C4vXsPzN5+5Jg3R3gMHWLQ4nySBqLIw0ELUg3JlOGXm5MJli9XtCu5JWXklNv/xs4/qbMtNpwuZcGgCtkXW/LipGZUKtNFZqoleptjKZFEPEYaUD6godsKAMtI4lBZFUMZL1IG7LqWlUSglQC3jqiUpR3cNvncoTbnWZamkVwljfSN0NbSp0FjKx2gBhYuAwrkilnEjWLdyGSePHOLZk+Il//8qobBB4rcFhRLKFmw3rt9k/8EjbJdKr3R0KqkAQOnwXFmwVVr/PJJSJxMRE09Q+BgiYxPFjswmd9Fy8ezb2SyQ2CSw2SAKY0vRAQ4cP8/Fmw/U6eB/AsYndVj13I2brCmUwjBzFt7Bobj5BpEwYSqrNm2Tf7vN4/fv1aubKzbm0as3PHvzlg8CDyXevH3D9p2HiRybRi8TJ5o16ycKozMNezajpnsNaotErzO2OlXHGKMfIvZDGQZz0JbKIhVpVDkqDBdImEoOK6Ou6zBLHElSfhKFhzbz5l3xzkTbd+7C0csTFz8fvCOCsXG1p1f/ngy3MMfZ1w/XgCACBSCB4WE4ujipi+amzZzB0hXLWL95ozq2r9iRDZs2ik0pIDU7jSFjffgx0JaOkU60T/aizVQ/Ws90okX6CBrM7Er1SXUwmiSqKFYUkJfYKCdFPcjnHSX+W26r6kEBgmM5NEVOK6qprCikcnZiL2xFZQgcKkhqKdcttVGGjbXQtZLXifooO/gHajvVYMeprfLtfubd+5/knN6W3/Aw4yafYfnqi1y9/pzPAvO/jP++yCnDf58F4G8V9SfKUVnnow6bv/zA/SevOHvpClt2bCdz7hzCwwKwG22mdk76+3kxVRTFmg3rOSnPefj6Pc/efuHuw+fq1Oqlx5cTsz+KYdtMqLuxOlprBXb52hikGaIXXwlNsRdlxV4oCqK0r36xxfDUobSzpJOoCFdtVUWUcqtAaXcFEpJeFfhe1GSZFmXR09QVSOiiaSiKs4c25aRclLKpQEUXIxIWxfDlQ/E+Eh8//8zTl8qcjOfcfvCcZy/firL4571imMIGid8eFL+EsgPyzZu3OXritEBijzqPYvO2PepQ6ma5v3j1erEjWcQmpYgUj1PtSGxiMjPS56lDrRvk+VuK9qkqQwHG9j2HOXL6MldERj6QJkO1Ix+KZ3gqhevIufMsWr2GsSmpuIm68A4MZ9KsTDbv3i/q45E6uUsBi7LWRBktefnu3R8nszx89JQVa7fJa8bRrbs1Tdv2pLp5XXWGYk2BRf1xtakzvjpGEZXQsddBa5AAo5sAo4cUoj7fU3t0NeJyorl276r6fn8ep06fke+YiIuvO87BHpi7WtGtbzcGjzTF0dtLAOKPk58v5rajsXFwYOLMmSwQW7WmYC0F4rHXrFvLohVLSMuaTWJqAoGxAVh6WtFxQG/aWHSndVJ/mszqS/1pLamRWhXDRCnAytRzKeAV1NEKUQJiIzQEADqjtTD00kdHKoFiLzTEVpSTgl/ettxXSCi3BXzyXA1REJqiNrSstdG10MGgv3J9U1FY3XSoZKrP1NUT+PzzB65d/4BX0GGGWR9ghO0ehlkslvO4VezkeW7efsWnP/JCKXJ/KnZKEfwkwH4t5/DZWwXib7kngLj74qX8jvc4fPw4q9asYtKkCfh4umFlPhx7O0vGRIeru1orV++6du8hT95+5IFUxJt3H7Hv/AHmHJ2D9243um5uS+X1+uiuEsWUo4f+JEN0xhiiESz2QgGEv1iMAIGEkh6iIqSilxWbUUaUlZoeSord8BJAeMtRLFtpd0n5bUp3FQVZswJatUSltdeh3EixJtZafGdWhmru1Zm1cZZYpHds2neDtKXHGZuxj+ApRQRM207s3F3krjvKqQs3eStl8c9/k3+GUNgg8fuB4pd4/fo1Z85eFB++RR3t2LxdgcU+tu46wLotu8gWO5I6dTbRCePU/ovQqDj1MvYZ8xdK5f3Fjghotu2S3MOu/cc4raxOffSch2/eq+riF2Dcefac3UeOMnfhImnhEtT+C2X+RUbuYvYeP82tJ0J0ee7Tjx9FmQhs3rzh9cf3Ip6Lf45rokCysldj7xZFQ4v2lPfQQD9Yl+qxVagTVx1jb5GaQ3Ux6liJWm1qUbV9NbQ6a2IS2EdatRPqeygn/vNPf/Kinz98Zvf+PYQmhzHCx4whjsPp2qcrJqaDGe3pgqOvF44+XoywscRk6BDcA4OISExkenq6akemzppGRGwkDu62DLIcQG+7XnRyb08DizpUd6tK1aSqGKeKeojUQddTAOEoAFD7F5SjqAgVFFLxHcuj5SKFW+yHhp0UdEkFCr9kWZvSlLL6nh8svqOMZSnKK9bKSplnoolOP12q/FiFBh0a0qhHA1qNaErE9CBu3LnG+vVnsXZax1CrIkxtCuk9aA79hmVj67aR5KmnRAVd4dq1p2L3FGIU77n6Xplg90GUodjDe8/fCBxec+fpc3UHKWWj2ryFOcTFROBkb4mlAMLD3ZnxKUksXr6cI2fOqnuXPBZAKK+5fPMWJ0+eYtn2fDw3ONByc0MqbtBBb5mohwwDdMdVFHtRkfKBYi8CBBCSChzKiKVUQFHKTyyGm9gGBRRiMUorcJDfsbSPQEEUhAKIMp7lKeMm6aRBGVFmZYaJsupTgXL9RIkN16Ksmbx2pKiP4RWoatsa++TJBE/bTXeXFdQckkONIbnUHLaAqkNzMRw8j4aWWdjGrGLeqkOcuXCHdwLKfxZgKGyQ+P1BocTT529ZuW4XaZn55C9draqLLWJFVGDsPCjycTsZOeI9J04jMi5RhUVEdAITpqYxf+EyKWwKYOT58prNAozi4dTT6nCqsruWspz9F2C8kEJ49d4DNhXtYkbGXALCowQYAUQlJLNwxVqOnr/E/Vev1ecp08IVNfLkzWveffqgnirlAiynTl0iZnYydb0bUsqxNNp+WuiLNNUyFW/bQZeWvZoz1HEQfW360NKkpdweKlBbzoU759lwvYDss1nsu7ebOy9vcfD6ATJ3Z2A1xZJmjs1pM6otHXq1w2TYAKzcHbDzccXe242h5iPpPcCk2I4EB+IdHk5AZDiWtpb0HdKb7qM60c7pR1oENadefG0qjzPEMEl8dpDYCzdp2RTVoGzZrxwVUKj5FRL2X8EgqkFD1ENxCiBGi4oQQJRWAGH+DX8w+4bvR/yB0sMFFCMEHiPl34eURfdHXSq3q0z17jVo0K8hPUZ0w9HVhvHj4nHzGCtWKoUeA+bSZ9BcuvSewCDzDZg7HmeY1TYBonKx4J1cvvaCt58/8VKs4EP5/e+IclDUw437Dzlx9qwoyE2kzZ5BYIDSOTkK29EWhIQGMCNtJuu3FHLh5k3VXiiLC28+eKhuZnv46EG2bFxH7txZmE8eQu0F1ai20ohKs0U9xBmgGaqAoVg1lAlSUo9SSvrrUVpRFEr6CjA8tUUtCBy85OgtSkIgUcZblIMCCA9J13KUFpumqImyFgKKEXIUWJQbpiFHyaGiyIaIehnagSrDfag5fBa1TBdQf9QSGlmspLHlahpbrRFArKWe1Vpqyu0aFktpabsYx7jNLCg4w7lLD3irjPX+g4GhsEHiHwOKV28/s2XvZVJnLGby9HksXLSKDRuVSUfFsChU7Igcl67ZyPQ589QRkfCYsQSLwhgzdjzT0rLIX7b2j3ZEUSUblf6LXYc4dPIil8SO3Ps6nKr2X6gQ+KDumLVi/QbGT50m8jgEN99AEidOZ+2WHVLwbvNY7IeyX4bafyHK57mojI9fiv3j42cPSVycRC3vumqnXxkrqVBdf0C/mR69RvYmMjGCuEnRuIe4YSGF2sXLGbd0F1rkNaHSXAP6r+1N4DY/eqX1RD9Ql3LOpaXlKYN2Py1qda1G+/5tGWo3HGtPR2y8nRg4aghd+vTAztsD50CBRVAQdl5u9LQRe+HUgkaB9ameWA2jFGXWpBRKHx00RSH8Aoc/pnxWJYvhIGD4qh4UMCijNUqWH12GstY/UNryOxUQP5j9gcqOFekxpivmKSNp7/mj2AsDFRJle5ZFv6UBldtUxqitMTU71qRVj5a0bt2MGlUrU7tuW9p2DKRjj2Ra/BhEyzah9Bq0WNTFHuw9duMZuIQp6ds5dOahnKO3KqTvPH+hDm3uP3yIZSuWqpvSurk6iHoYgbOTHTFx0czPy2Pv0WOiAp+Jcnynzsa9dueueqXwfXt3sm7VUhZmz2HuzCmERXjTwqcRRolij1KMqRCmKAZlqzlFNQgUAnVEKUjLP1rpS1D6IwQefgosdCkroCjrI6rCR5tSPgILb0VJKJAQMLhLusptFRLlKGspKfAsM1RykMBigGT/0pTvJ8Ae2Jcaw5KoN3IB9Ubl08B8qcBhNU1Hr6fZ6E00sy2kid0WGtlvpYHdNurZbqHO6M3Us9lAJ9cNeCXtYvG68wKMhwIMZVXTPwYYChsk/jGg+CC24PC5+yxec1AsxTqmTc8hK3MBixevVCdqKf0WxcDYp/ZH5C5ZRer04tERpf8iJCqWseMnfrUjm8SO7FE7R5Wjkjv2HeXEhWtcf/hEWp3i/gsFFMrqVEUxKNPBc5YuI3Z8Cp5+QfgGRzA1PYtt+w9z7eFjVVkofRjKXp+PldmeH96rp+ne03vM3jCHgQmD1Q1udLppUrttY7oPGoCXj7+6xV/6/FlMnpKKxxg3mkQ1QneiqI80XfRn6aGXqK1euEfTpzylPErz3ejv+W7Qd3zf9Xu0OmrSqH9Depv3YYSzBf2GD6RDjy5Yujti5+uBg5835mGjaZnQjGpTKlMpUexFoKgakcYaLhpoigxW5zn8ERLFgFAWlv2Sfw4HJTVGS6G2LiWA+APfi3rQsCpDQwGh6bjBJC2O56B4/EfPH5FfkCl/20QKdz3qDq5LvfZiOdo05sdurek7sLe6Z6ly3dYfW7ekZs2G1KnXm0bN7KnbwEZA4c6o0RlEjdvDwlVXOH7hvlTyV+p5US7dcFq5rsauncyfn0VkRLC6p6mN5Sh8fT1JnpDM0tWrOHXxqrqt4gPlNU+eclHUxInTJynavplVS/JYODddAKHsHDWR6RPG4eplQz2zmuqEOS0FykECAPmtygYKMIIFAG7yW/TVwLClodhGYzQtRVX46kjqinpQUpSET3F/RGlPsRceohrcy1LKVdJJoDBa2WFMVIOoLBWeAyT7lqFMz+8p11MPg36DqDl4AvVH5tLAbKGoiCU0sVpBU5t1NLUTSNhtpZn9Dpo67KSJ4x4aO+6lscNeGknWd9hNA4ddNHfcSW/vInzH7WNJwSXOX3zCK1FQUnOLK5Eav321Vdgg8Y8BhRL3nrxmy+6z5C3Zzuz0xUwYN5mE2ETmpGWyWpSEai127ldhoeRaAUhm7mKSUqeKR49X+y+UK06nTJpJttiRNWJHlL4LJZW5G4od2Xv4tLo69ebj5wIIRV18VO2I0ompzK8oOnSYOdk56vspoyNBUWPlbyxi/4nT3Hn2Qh16VeGi9l+85d3HL3wWhXH62ikmLEnCJ8UP79AorB38MLNww8bei6josWTNzSRwth/VE6qhn6QnrX4lDMcYoOMsXtlWD103acl8y/GDZym+dxBYjPyeP/T7lu86fYtuJ12aDWxO+34d6NSrM+autmJJnLAMtKf35L7UmVJLVSRaKhzKF8NBmQwl+ZcKQoHEn1JTgYUCCBtlCFfUjNiLUmbfUmrktxjZ69M5vB1us5zJ25bN7Ue3/mLfg2sXjpKRFo2dm4lYoj4MEps0cuQIvL29GBsXS0JigtiCYIYOHUytmjXQ1atI42YdGDbSR6zjXFFsx7mirMCU31DJGw8fcOzMaQo2rGfKlInyPm7qyIWjgzURAou0OWlSNnapK4gfKKrjxWtuiL24cOUSh47sZ9P61SxdMJ+8jJnMnT6F9MmTSJ8iOXUS01PG4eRmTu3B1dA0l+/srU3ZYAUSkgKMH/yl1e9bFuOahtSrXodaVasL8PUF3Nr84KcjFkPSUwDhIUrC4yskBCylXcqKkhAY2Eqay+9nKipskGQ/AUevHyjT5VvKdtZGv9dAag6aQD3TeTQQUDQ0y6exxTKaWH9VE6IimtlvF9u5i2bO+yQP0MzpEM2dD9PE+QiNXSTl2NBJjk4HaOOyj/4+e/FJPMyCNVc4df4xL1/+fpZEYYPEPw4Uyp6F1289YsPmw2RmLidl/BRiI2KIDQlnSvIEFi5YzLrN21RIFANDFINU/uUFm5ghdiRu3ASp4GMJl4o5Zuw4pszMUCdyKbNBlb4LBRjKUvYtRQc5cOI8F29JS6ZMB3/7/o+wUI5X7t6jYOs2JqelExgRhZu3P2MSklmydgOnr1xXW77nHz+rFkZ57UuxJR8EIB8+fuDd+7dcuXaL/KXrCY5IxsYxEAenUNx9Q+gfN5CKiYYYKvJ3nDFGEWIRXERVOEt66qAVrEn5MClkwdKi+5bmB6fv+Wb4N3zT+xu+6/gdBu2Vvo+mmFgMZoRycaLQoTRKbajuiaF0TGoq+efKQc1f1MMvcCiPlkhkTWkBfwFEaQtRMKMU9VCauh416BfTk5gFUew9vZs379/8cb8DZVhbufTexYsXWJA9G1f7oXRvV58u7RtgbT2YsPBgQkPDCAkOwt3dhYEmvenSqQ09unfG1MycxNRU9hw9zj2xCEpH8f2Xz7ly+yb7jxxU5z7Ex0apF59W+h/c3Z2JHRtN3qKFHD19hlsC8fuv3sr5eqnuXK1cJXzPnh2sXbWIxTlzyJ49nYxpk9Xt5RRAZEydTOb0qcxMTSEmJIhBw3tTuY8hmqPkuwsoyiugCBLbEaTDD/Zl0W6mRXWjqlSTrKijT4V2WnwvUPjOvwKllA5LFRCS7kqnpQBCgYSyT6n8hmXNBBLD5Ggi2bsMpbqXokyHP6DdWouKHftS3SSJukMzqG+aRcOROTQyW0Rjy+UCijU0td1QDAqHIgHFXgHEAQGEQMLlKM1dT9DM7STNXE/R1OWUQOMkjV0lXY7Lc47S3u0IA/2PiCU5Ts7KK5w894Tnz9/9pcD4DeChsEHiHwcKJX5S5ljceEDB2h1MSp1JXGQcMcFhRAcGMjYsjFlTp7N02So2bt1J4U5RFl8VxgZRDAuXr1Gv3KQOpwosQsfEE5c0kdlz80SubhALosy52KcOwSpTwrfvOczRs8rq1MfFw6lfOzsVACiK4fTVqyxZs5akiZPxDgrFwz+EcZNnsF7+1qXb93gq9kVRGE/evxcr8443Yk3k46vxRpkQdPo8WbkrCAmbwEhPN5pHtqPiWAFFghHGSQKKsaIqxCtXjJZMEHmapIuOWBGdZJHHqVpUSJCCGVCWP9h9xzdDv+HbXt9QulNpqnauSpuR7WgV3AajsErFFkOdKflngPgKBUU1KNv0q3D4CghNZTq21Q/qjtw/jPqWiva6tAlugd0Ua+ZtzhRQXuLth79cePTg/n22F20mN3cu9g6jad5MrEb9GjRtWJVmDavQvm0DRowYwqgRw+jVs5Nke4ab9iMgyFOguZgzV6+rQ5uK5VOuFatc3VuZ+5AuSiE4yAc7G3P1yln+YqcmiaIo2LyJ8zdvcPfFK+69fM1tsSRXxF4cO3mM7Vs3smppLvnzZjMvbTIZ08VyCiAyp05R1USmAGPWxBSSY6PxdXOhd9cuVG0gdqKjBlpmFdDy0lFBUV5AUTZQ7IXYBd062lQzrIyBvj6aOhUw6GSAkUM1tFwNKOVZXkAhgHDXoLTSaeksisJRUtSYComhpSljItmzFD90/p7v232Lfktt6rXuR93uMdQaOIN6Q2bT0HSugCKXRub5NBFQNBNQNPszUDR32icAOCiQOEwL1+O0EEg0dz9Fc7fTAowzAoyzNHU7R1N35XhGnneSlqI82jnvpo9nEXZRu5k4/wRbD9zmxt1XqtItjl+3KitskPjHgkKJn0Ti3rn7gNWrCkiJlxYhOJyYwCDG+PlJ+pM0JpqsjCxWi5JQVMLWr7DYLApj3WbxtguXM37ydMLjEtT+i7DoBBInTGVe3uKvdkRRF8qELQGG2Bl1deqlG9x49EzUwrs/jo4oR+UiyAelRctShlPjk3D3D8InROm/mMeOA0dFMj9Wh1Kfffqkdnw+UedfvOezqCPlJ3z58g2HDp0leGYclQNroB8pBXCsMcaJlTEaL7CYUIlK0wUesypiOEX+bZKojTS5P7ciFTMN0J8hrVucBj/4/sC3o7/lm8ECjO7fojGkPJVDjdH3NFBnRxZbi2L18Ec4CBS0bOS2mmIxrKTFs5CCPPIbyluUppZ7VXpFdyMqJ4Jdp4t49vrZn027/lM8EFuQlBQv1sKEnt3aU6tWVQwqin0yrEitGlWpX7sydWpUpGmTBvTr01nUxRCSxscJiHdz7f5DsRbv1D1Fbj58yJHTJ1m5egXjkxPwFPtkY2WGk7OtumQ+c95c9hw5os5pUUYuHrx6I5bnEecFKgcP7GFjwQqW54u9yJxJ1sxJAoWJzJ2hpNyeIYAQUChby6WMjSHA25OhgwbSskUzqhobo1NVC80OGuiM0kBb1FuFQPldA5Sl4DpS2eV3ayhwEEgY6hhQp3Jderfsg1UbW/p3GUJVq1qUFiWhdFqWEWtXVn7nsqNF+VmK5TAtRSkTAUQvsYydvqd02++p+KMW9dt2FEgEU7PfJGoPnCagmEXDYX8JiqaKohhdDIrm/1dQnJY8QwuBQwuPCzT3vCC3BRpiRZrZ76Sx1UYamK2h3shl1BuxhCajltLJfhWe44vYuOcqz14pnZ6/xK9TpRU2SPyjQVH8Z5U//+TJEwrXb2aqWIrYoGCiA8QC+PsS4euj3p82YTKLFy1n/abtUvGVYdT96lRw5fbKdVtIm5urdnCGRMcREhlDVGyiOj1cWeauLExT1MUWpf9C1IXSWbrvyBnOX7/HnaevivsvVDvyUVUMyhXLtu07wPTMLIIFVG6+AXIcKwBZIiA5qw7jKaMjz95/5KF47sdvXvP6Q/Fw6k9ffmLTiUJax7ZBy1db3a+gUowxhsqGtcqWcuEGVIw3wGCCPpVTK1FlsiiOaQKROZUwmmtIpQxD9KboUS6yHD+4f8+31t9SxrU0lSIrouukKypBlIPt11Tg8BUQKiREPZSzksIsyuGHEd9gYKdNM79GmKWMIH1DOhdvX+DFmxfqb/7X8fz9M04+PMHkLZOpObg6GjXLoGegTZVKRlSpYiQVSwddXV1q16lFjx5dsXdyZHZWJkfPiVV48lTUgzK0/I7Lt++o1+KcnzOPqMhgddeo0daj8PR0JiFpLEtWreTkhcvqHJb7Aod7z19w457Yi3Nn2bVzKwUrFrMkJ4OcOVPJVMEwkSyBxPyZk5k3a4pYjonMSB3PhPhYQv18sbG0xKR/f9q3b0ujRvWpV7s21RtXQb+zfN5RFdDxkt8syACNQGWlpxbaoqiM2lamrl5d2ml0YLSBI1GGY0nWnMpEjXQGtR9FWReBtYuAVrEbXyFRWiDxg8n3/KHHd3wnkNBoV45a7Y1o2elH6nd1oHLveGr0n0CdgVO/giKThiMU6/FfQaEqCsc9AgqxHi6HaOl6TEDxCyTO0VIg0UKFhCgMh900tVpPY7OVAp6l1B++iPpDF1BncA41B8ynhsl86g7OpafrCtKWHOfJ86/q8Feq0gobJP7xiuLP451I+GOHDkuBSCMpPIyxgb7ECCwUZREnSiM5Jp6MmRmsWLmueOGYVPhtu4o3ylH2sliyagOT0/5Pe2cBFneSrf3ZmcnEgeBuIZ4g8YQQg5CQEHdXQvDg7tJ00wLdNO4QdyGuEPeJu7vbZGKz73eqmszOzO6939072dnM3T7PU0/7v5um6/d/31Onqgr56EhoVCzCCRhxyarqzqX0GJtk9mk4dTM9f3vN4brh1Ae8yIedCZ+yik1SDGyI9OLtOzx/IciSI4D8+Dz/IMSlCMmibCCrcp0DhuU62HNZdecT8vTvPnzEEzpbl+0uh7t0KCzCrKBNP1aDWXowHmYIC1crtJlhhxbRrWFCtsQwXR/GBAxjiRFMFASNAoJGoRH0lXrQTNNCk8jG0I7UgkGgPjSnN+WK4RMYNCez1pAAQZJ4/DdcPTQcXw9mc4zQK6I7wkqCsOXYZtx9cgdv3v7ybKOKjz99wK0Xt7Dzyg4k7YhDv7LefESlcQx1jhnfoWGP+tC0bgpjCwPY2rbFgIGuCIqIxJrNqun8zCY8ecv2jn2O0xcvYuPmjaods/zmYdpk1daOgfQ/zMqWY1ttLd+ThQ2FsoWJ2GQ+tvfmkaOHsW3TOqxeUomFxbkoVUpJQdQBgpREaY4MJQSJ/MwMAkQa0uKjERroB6+5s8m+TMTI4UPh6uoCF5e+GDJoAMaPGg6XoWQ/XIyhNYZA4dcMWqHa0PUzgOUMG3Rx64nhLcZgVsN5CKoXjdTGMgj0spFupER2oyqMtZ+GxgSI+rProxGptYZs9u+o7/CN29ek7r7Ctz2/hV43bdg6tkDv3p1h12sEjPuEwtg5GZYD09F8sBQthyrRekQ+2o4upQ5OoJiwjECxGrZTq2E3fQvsZuwgUNSQqtjPVYW9xxFSFScJFqcJEgwU1Og+u2lb0WHiKrQj5dB25AK0GlaOlu6laDWkGC0GF8LGrQDN3fLpN5UHU5c8OE5dhIKlx3kB2+cKxgaKLwsULNi+j7dv3sTyxcuRFJWEuMBAJIUGITEsEknUUqPiIUkVoqy4HOvWb8EWshOsqnMrNVZ/sX7LbpST8hDIFIiMT0YYASOC1ECKUMKHU1fRaz5Vg7Kh1M3b92LX3qM4dvYKrt1/+rfVtejLfv7uA09mnrh0GQtWrkK8QACfwFB4B4bR8bNRvbMWF8k2qcrHyY4Q6Nj092d0+Yqsyckbp5G2MhWj0oZjevx0TKcONHLCDEyY6YeR3rPQLbA3mse3gFGaAYxFBjAVG8NUYgKTbBMY5xnBIMcQBmRVjBMNoeuhQ0AgFTGpMTQnNYIWu5zYEPWZeiBAaE9pgpbezTEi2R3KdXKcunYSj54//CTafhVsf9HzT85j8emFmL1uBuwK2pOqMUBTMVkacX00lTdEY1lD6KZpo4VvSwybOQJSeTb2HT2OK2QvHjG7RmrqBlmFw2zdhyWLkJTIdsyaQYAYx5OU0VFhKFtQiYPfn+JbLrDkJLN6tx49xtlL57F/Xw02kb1YsYDsRb4CJWQpiuUZHBAlShUgGCjyMoXIEiYjMSYcwQE+8PWeyzednj59EqZOm8AXwWVLy4UG+CKVbTMZHYFx0wnQA02gSdZDhyBtM6cFnN0GYI6tNyL145FcPwPib3OhqFcGaYMSxDgJETtaAIl5EYbbjUejGQSH6QRKgkSD0QSJwQSJfn9Bo54NYOloBse+HeHq3A3d+/SHueMs6PeJhkn/ROqwabB2E9MZXkGgyCNQlBAoFqDDhKWwnbQSdlPWwX7aJtjP2AZ7UhX2s/bB/mdQHEdHUhSdvE7BgWyJ/RRSH+OXo92YRaROKtBqaClaDikhxVLEAWEzqADWA/Op5ZHlyYXFACVM+yswxGsJ9h1Tbfj0OYKxgeLLA8WnOHPtBaKzDsDDX4nooCgIoqMgio1FGqmExHACRmwc5OIsLKhainUbVaMjO2oPcoXBQLCyeivyyxchWST7ee4IA4eQOnjFopVYx9a+ILBsZZsVkbrYQpd7Dp3Cqcu3cJNtVvSqrliLFAIbIr3Fp7N/j4LKKoQnJMIzIIhURiQyC0qx8+AxnvPguQ5qDBgv6Uz74/uf8Pj5Y1y9exk3bt/AoSMnUVCyBOGRIszxjMEsv0iMmD8DHaO7wUJkTlbECGYiBgtjmNCZ3URJ1xUEjUhjaE9lk89UkGBNgyDRdAJZkhm66BbaGQH5flizfzWu3rvyd8lJFmwU4/4P97Dv9l4I9wowuGoQWsit0UykhQaC79AgvR4aZtSHtrwprArN0WNRD3ju8EH5iWU4Sh371pPnYHvJPv7hB1y4fh3bd+/kycmw0ADMIuUwhQAxz2suhBnpWLtxI05evIQbj9kqZW9xn5QH21rv+9MnsXvnFqxfuQhLKgpQlquCwc/qgdREKdkLlo/IlaZDnJqAmPBgBPl7w9fLg0A0Ex4e0zFv7gx4e80C2yEuJS4SWempyBNnIFcshCghjkDhDvOBxtAY1xDWEy0wruNExBmkQKZFcNAspFaC3MaVyK23AJKGRYjrL0SiO8FDtwhDbMegAUHiu8n18N2oevialES9ft9Cv7cOHPqRqhrgCPeBTvyyjdMI6PWYD8PeUTDpFw/zAamwGiSGjXsW2YNctBlVjLZjK9Fh/GLYTlwBu6lrYT99IxxmbCVQ7IQD2Q97sh8OHoe5/ejoSbCYXQv7yWsJEsvQdtRCtB5GCsK9BC0IEM0HERQGZMPSWQ7L/lm8WbnQdYKEpWs2zPrLCRzZCBdvxWtSuZ8jGBsovkRQqD7Kw1dAcNFrdPM8SWe0fAT4xiA5PBoZcYkQxsUiJYoURkQ0EkhhyCRsdGQ1dfYa7Kw9gJ0EC6YyNpJaWLxqIzLzisiOCBBMsAiNZnaEzlLKYixZUc0hsW0XqZEdpDC2MXVyCAeOnaPOcI/8M5udSnbknWruCAMHm86+bd9+SHPzEBAewZfjC4tNRsnC5Th8+jyX48yOsAIvNiz4AwHj0+gIiwePnhDM6PXyMgSFCOExLw7TSDF1TXGCiUgfpiJDgoUJqQtqBAtTgQkMfQzRbLIWqYlGaDqeADGuARqNq4dWPjZIW5qKI5cO4e7ju/9QPfz44Udcf3Edq86ugtdaD9hKO/CNfb6a/RW+mvEVvp7zNRp5NYJOsA6s0q0wYIkrkggkWy7X4tyjW6Su3uPVB+AugfLEmbN8UdoMsgC+vnN57oGVVgeRFcgtzMeugwfJXtzhIx5sVu/dZ89w+cZ1AuRBbCV7sWZZBdmL7Dp7QQqCWgldLyP1wO4rJEWRI05DekIMIoMCEejnDe95HpjL1lydOxM+3nMQGDAPsRHBEKckIpegVCSjY2VmoVAqgUKcitSESIyc7AZTV0P6nhqiS59OmK8ZCPnXuchtVAZh7ywIB2Yh27AUim/KIf2uECK9XEj1irj1mNxhDjTGauGrsfTdECQa92+CFs5W6DuoO4YMdsbwIf3h7tYLPfr2h1n36dDpGQIDpwgY940lu5NCqiID1oMz0WJYNlqNLECb0WXoMHYBbElV2E1ZQ4piAxzIfjjM3IGOZD+YemCg6DiX2qxdsJu0Ch3GLSGrUVWnIoq5grAiOJj1EsCkaxxMOhOYOkfCtEsUzHrEw6JPBixdFLAgaBj0kWHArCocO8MWwfn93ZqxgeLLVRTvP/6E5MVv0cHzNmyGLoG9czyGjYpAgHcs4sNjIIiJRkp0NMLmhyCEOmtcZDTSM7JRvng9L7batecgdtTQD5RUwzqyI2WLVyJdpkREfBL57GiER5METZcir3gBVq7dShZkH0+OMjvCJpvt2HMER09dwhW20cvPq2upVgdniuEMnVVXbdqsGk4NCsO8gBAkCCRYunYj31RZlb/4wEdHHryk179+jTfvVd7xPdmr69Sh1qzfTp+5CAFBArgEjYZxqhHBglSF0ARmGQQJZkNijWEwwwA647Sh7a6FZoM00GjId9CZrAGfAi88ffmMH/NT3Lt3D7V7d+L8tbM4du8oFIfkGF05Eu3SWsPAXwe6M5vBepYVyV1bdJvXFZ09OqPz3G6YIJiO7C3F2HP9OG48fwpWBPj0xXtcuX0Xew7uR3lFKeJiIuAxexomTx7D132IT4jFouXLcejUab6i2EOW0CSw3nz4CGfOn8Ne+hyb1q/E8gUlqMjLQimDA7MWdeqBAYLZjIIsEdmLFCSRvQgP8sd8Xy94z50DTwYIz1ncboQG+vJNqdnycfkSOkZmJkqzMsmukD2h1yskaZAmJyDMzwuO7l2h60xWbWxjOHbqjuAGDBQ5yNYoQdoIMUQjspClU4zMeiWQNyxFTsMqFDVZijLtFUiwEqJHr15o6qoB3QHacBjcDoOH9sPoEW4YM9INI0e4wLlfd7TsOBC6nb2g1zMYhr3CYdQnhuxHMqkKEakKKVkEOVqSqmjNVMWYSlIITFWsJEuxDg5kPzrO3IZOBIaOs/egk8cBul0HibGL0YZBgqmIwSWkIgpg2UcE067RMO4YDgOHCBjYh8DQPhBG9kEwcQiCWZdIWPQWwJxgYtQnE/Yj8lGw+CA+1q238nuCsYHiywUFizX7foRb2DWYuS6BrkMSzOzD0a5HKFwGh9IPNQxxJP1jQ8IQ7OMPv9kz4T5sJpzHRSNKVIlV1Tuwe89+age4JWHWZFX1NuSXkR0RSnhlJ1MYkfEpSBPLUVy+hCQzWRg+nKpaiYvBo2b/9/j+/DVcf6CaY8A2Tv60WM7d589x7NwFLFi5GtEpaXx1cJa/SM9UYv32Gly6fZ9bEfZ8BpcHr17h6Q8s4aka835D8Dl/8RoWL90IX0E0WiXawjDZgFSEMczEpjAlYBgFG0F3nB70+pPa6GIGyx6W0O1Dvnu6FfI35fDjfIpXP7wg6C2kzzEFMyTj4FLRFzZZlvjO/xt8NfUrmM01xBTJJORW52DLwS3Yf/Igdh/dh60H9+DohQt48PwNqJ/j4bPXfKv+jVs2QSGXIjjIF9NZafWkMfDz8+TrPmzeuROnLl3he7I8JtXE7cWtWzh+8jgvra5euRiLyvJRSvaCgaGEAMFGLsqVmajIyeQ5iTwZ2YuUeFIIoWQjAvj0cc85M/k8D19SDwH0XlFkbYTJsaQWBMjPEqNMnoWyrCyyJ/R6uQg5mQJkC9KQNT8F0kHJmGY/FubdTNDEpQm0xjZBr45dEdRwPjK/YcnKUsgsC5BlRuqhSTlyNRaiSG8JSnSXoEhrIXKblkGqnY0wiyhMbD8Vw53cMXLoIIweOxBjJhIoxgyCa7+eaNfaDvot3AkUfjDoRh22ZxiMnKgj902EmbMAFgPEsHbLpBOckmBRSLAoQ7sxLFexjFTFKjhMrSYwbCFQ7EBnshqdZuzgScv2YxaRkqjkCUubISVkM0hF9IiAmd10mLcdA4v242FiPw+GHUOhT9Bgl0YOwQSLQJh1jYRZ7wyY9iU7MkCBgLQNeENq8PcGYwPFlw2KWw/fY778JmwGL4dRVwH0O0SjWasw6LUJRosugRg/1g/RAf5ICA5AlI8Hxg6fiBYkB20HBBAEpFiylOwIddhdBAymMNganEwtsNERRX4p4lNFfBf1IAJGdFIaJIo8Ppy6YWuNql5jB9vdbA8plAN8OPXstV/PTuVbBBAEbpCdqD16DHnllQgmAM3xDkBAaDSyiyqw+/BxPhTIK0HJwrAS5kekMJ7TMVj9BQtWf3GAOphHsTf0wvWgFaUF3WQ9GCeRmvA0hM4gXZh0Mkb73m3Rxa0z2rm2ReeJnSEuFeLxo0d4+f4Vzj07i5xDWRgU54TmdCY0nVEf9cL+gvpJ9dAg/ls0SWgAK7E5Ri4fhfzTRbj88hYYrlgdJqumePn2J9wmJXDkxDEsXb4YAkESddw5mEpwmDFtAsIiQ1BaVY49hw8TAO/y3MPjN+9x58lTnL96GYcO78P2zWz0ogJVhSp7wWDAIFFOyoHBoYxZDrpPKU6HgOxFdEgggv294UX2wnPuLHh5zuaACJ7vjfjoEIgFiciRCPhrSpVZKFYyBSLjOY2cTCEUKenI9k5DvqsEC1vnY3HTQszWnEZnW0M0HtQImuMYKLohqFEQZPVykFd/AXIbLEKhBsFBZxmKdZagsBnd15TURYMcSOsrINHMgtRAAZmRAgLrdIR2DIaH21RMGDOUlIY9LA2MYKxnB93WE6HfyQdGXebDiE5eRo5RMO4dD5N+KQQLESwHSsmCKAgW+Wg5ogRtRlWg/fhFBIQVBAtVrqLTrO0Eie2kNFaTRVmA1iPK0YJBYnAprJ3FMHegv8WiI3QNzGCgTycOEwtYWdvDwnYsh4RBJ1IYDBb0GU2oMRti2ldGqkKG8cHL+QI5vzcYGyi+ZFD8lVduLtzyGN0nb4BhNwlJrwQY2sZAu204mtgEo11Xf8ya6o+Y+QGI9PGF94y5GDLcA137z8XAYQSSmamYH1tMtmMTtrPEJVMLO1RT2ddvqUXlEvLbinxEESQCI2M4ND6t3bl8zUZSFix/sZ+PjLBcxvaaI6rh1Fts5uNrFTDevuWL/bJE5oVbd7C5Zg8kylz4B4dhju98hMWx/MUKkufn6DUvOVjYc9lwKptw9pIUCgu27Fv1kY0Ynj0SnURdYZVsBe1gHTQa1gRNOmmgrVNbjJ83Fp4RczDJbyKGTB+KiX6TEFseg6h9EXBd3x9WZabQF2nCar4RWngZqUq4wzRgoTRDrxVO8N8TiILT5dh6Yy8uPL2Du2zm5pNnZFOu0d+2C8XF+YiJCuW1D1MmjqKOOxPpQgFWr1+PI2fO4AYBjw2Hsr+b7c526uxp7NuzC1uqV2HZgmKVvWBw4IBg6uFvgChi9kKQTPYiAuHB8xHg6833upjnMYNAMQv+PnMRFuyHlPhIZInIXtDzGRTKSIEU59DrcyUoyhGjMJOOQ/Yxc0YKSvtkY5lNKVaROlj7VSUWfpuD2UbTYdWxBbQGNYPmhMYEih4I1QiFUqMY5dqrUa67EqXay1CgWYHsxvnIqq+EtIEcskbZUDTKg7wZAcNYAYVhDnL1ipBrVIhsm1yE2IagdxdHWJqZQ1+vO3Q7zIS+nScMO/nDqHsojHsSKHoRKPqQ8nVOJ1WRQbDIhPWQHIJFIVqNLEPbsVXoMG4pOpDFsJuyHh2nb4Ld5LVoO3ohWo2oQIuhZDVISVj3I1XSfhiMTa2g10wDjRt9Q60etDXqw1S/Kaybt4G5HYGqcwTBipRFJ3p/AoVpt0iYkk3Rd5JgiNci3Lj7a1v6vwnGBoovGxQs7jx8h0DhYZg7KaFnn0y+LIE8Wgx0baNgYBuBDo5hcBkSCtehIeg1IAid+8yHfZ9QtHKkL9AhDBY9YuEyQYKo1EosXbWF109sIEhsIZWwlYCxesMOFFUuQao4E6ExCQgMi0J4TBLZEZK35Yuwjh5nimLbroM82bmJ7Mjufcdx/Nw18uVPeDn4p/kjzI4wAJy6fJXnL5JEYsz1D8JcvyDEC8RYtn4zTl+7yZ/PCraYKuFzSd68wf3HT3D49ClsOr4bK05UI3lzGnokOnKv3Ky9LpyGuiIwPBaiTDGUhVmIS4/B4NAhaJ5uAdMKA+hVNUOPtd3hvzcA6TUZCCmLQL+IvhgsdEfGThk2X9+Fqy/v4z19rSRu8ODZS5w8fx5r16+FLDMDgXQWZ8lJvqxcXXJyW00Nzl65Rn8jWa53H3H/+StcuXEdx04eRe3urdiwejEWl+ZxQDDlwM/8DBAEB2YxyrJlyJeJkJEUhzg2N4TshS9TD3NmwJvUg4+3B9mLuYgOn883xWF7XhTSMcroeGW5mdy2lOWTgiBIFDAFEZMC4eRYJPcKR4G5GOtIIWz6ejFWfFdIqiAVQUYecGntgjYd7WA00ARaE5qgX6feCNePhEK/AGU6S1HSdAGUDYog/k4O0XcyZNTPhFRTDoV2LnIaFyKnWQGUxnnINypGqeECLNFbjZVNN6PMbDlKAssx28MLmoZO0Gg9GXq2HtB38IVhl2AYk0Uw7RUL096JMO2XRrAQEiyksHLLJhtBqoIg0GpUOVmQxWg/bjnsJq3lZd1txi5C6+Hl9HgZh4Rl/3RY2w2FjbUVLEz1SUnoQENLg5ea62g3g5GeDiyN9WHVugcMOwdBv0s0vX84jAkWpl3oMzimQt9RAufZlTh18T7vQ78nGBsovmzr8Sn2HLuPIXOWQdsuDXp2iSS1CBYO8XQ9Ds3aMWhEEzyioN0hCprtIqHZPgrN7Oj+jrFo2i4C31r6oG2fCOQUV+PosVNcJazfsovnIbbvJmDs3IdlqzdATkoinhQFq+wMDI/ka3dK5fmoZFsJEFwYLBg0Nm1li+YcwN7Dp8nLq4ZT2SIqv0x43n3+AgdPnkbF0uWISkwhO+IPn6BwiJUF2EDK5tKdB7z2gm2JyKpBrz18iGPnL+HsxZu4cecJLt+/iyX7VpP1CsUEOuNOnuNHx4ihzyaEOCMbGbkiTCobB+c1vTGrZiYyv5ej+so2HLt2CifOn0Xt8cNYd3gLas4fxlOyCCx+II9x88Ej7D9yGIsWL0BaSjwfapw0YRTfkDee7EDV4kXYc+QoL61m6oEtLceSk2cvXcDhw2ThtlZjzdIKLCrKRgXrzAqyGASHMjrrl9PtMlIBxXSfkjo9G73gw5t+ZC88ZsOTFAS3F14qe5EYHQpxWjzPVTDlUJ4r55eleTKU5qtGRXJFAsiDUyAbm4LUnnGIbR6BZO1wVDSWYkXDHBQ2ToZIJwj+1tPgZuuC7g7d0blzF1i6WREoNNCvc1+EG0ci3UgMiTbZClIPmfUUpCSY1cim29nI0sqFnFp2o3yyIuWoMlyCJQZrsMJgI5brbkBFo5VYbFGNCzmXkS7KR32jvmhsMw7NbGdD18GbzuyBMO4WBtOeMQSLBIIF2Y9+6TB3lsDCVY7mbqQqhhSixfBStB61kGCxDB0mrCKFsYRsSSmHSPPBBIkBMrTpOR1Ojo4YMtAFzn37oW1rG5gZGsNE1wDG+ga8UtbM2AiW1rYw7TgHBl1iCBSkZjqHw4yBomcSgUKGPtMrsP/EDf5//z3B2EDx5wDFe+pMS6rPoOeoAgJBAgEhjkCRQHIrkbxaAvQYNOypObD746DfMY6ux0KzQxiatAog5TEf0/zyceDIJTx79hyX6SxZs+8QX/iGLfTL6i5YwnPD9j3UsddCkp2H6KQUvpo3S3iymarZeaW8ulM1OkLAYPUXBAxW3XngxHmcu/5pdurfrw6+Y/8B5JaWIYjszWyfAMyPiIWypAq7D7H8xVMVXH76iY+OsBGTw2fO4diZS7hy6z7O376N2mPfk01aj5jkLPgGpyEoTAhhSS5EuzOw+Owy7Lt5BOfpdRfP3cS5i9dx7up1XLv7EG8+qnIQz358h4vXr2Pbjm3IL8jhG/LOnDYBkyeMhI/vXEiypFi7aROOnyV79PylSj3QZ7lK732S7MX+/bXYyuxFVSGqCuRcMTCLUUaAYLCozCUFQPex4c3MtCQkxxBkQ4PIXszjw5penrPgM28O/Lw8yHYwexEFmTCJj3YwNcKOx2onCggYBVIhCiTpyEqIR+RMH3j1nYEE20iIzNORYkiwMIyDWCccudoRkBMg4vTItrSdjEl9RsGt3yC4OrqgTy8n2LjbQHO8Blr3aoPJ1lMRYRqNBOMUCHQzIGkiJ1WRj7wGJchvUIaCJmXI1yhFmcZiLNWpxmqDLViptwULmq1DEd2n+LYYBUYVOCA+hNgUJeqZuqCRzRhotZ8BHbIf+h3nU2cNg3H3KOqocTBzSoF5nzSY98uAhXMmWZBsgkUefaZigkUF2oxeTJBYzHMSrYapiqgsBuSgrXMERo6aggAvb4QEhMLfOwDDBw9GR5MOcGjSHsba+mR79GBsZAxr67awtB8H/a6xvBl3i4JZV/b+BIpeMjhNK0fNkauqDvQ7grGB4s8BChavqQNWrDyK3mNy6J8TR8CI4WpC2zaGbsdCl5qObSz986Kh0TYMTdsE03Pmo33faESmLMGFy3fqjqSq/rx37yFOnDxLimI/T15uZCXhO/djR80RrN1Mfr1qKZ89yiabsennoVHxfLJZQdkirFq3jUDB7Mghggyr8NyLnXuO4sipy7h8h81Ofc3LwVUJz488j3Huxk2s27YTGQolX11rNv0IIuJSCUyryP9fwL0XL+m5P+H1T2S3nr0gdXERh06dwYkLV0htPCLgkBI4cQbrCG7r6P1q6bGjV8/i4uUbOHf+Kk5fuMQXgWGJ1Zcf/4oXHz/yRONxsjNr1q2ClDogywMw9TBtynhERoWgpKIUO/fvw8U7d1Xq4c07/pqL16/Sd3MMe2u2oXo1nV3LC1BVqOCqQTW0KeOAUOUfMrm9EKckICE6nNsLH08Pnn/w8VIlJ+f7e5K9COKb3ygzUvlrKvLk/DiFBIt8GcEhU8SHTsukWcicnYLgjj4Ype2OYV8PRbRWLDJNMiEySEN603CIGnsjTXcqoq0nI7j7TPiM8SDwzcKk8ZMxYeg4DHFzQ+uRrTgomrg0hnX75nC1HggPMy/EmCYizVAMqbaCbEYJwWEJFmuuIuVASslgK1bqb8VC7XUo1ViKnIYVUNQvguybPBSaESjkhxGVnotvGSiaj6Lf33T6zc0l++FPNiCEOmskzMjqmjkmw6J3Giz6kv1wlpJSyIb1oFxSDQVowWojRlbynEWrocVo6U6QGFiA5gOEcB8XgMiQMESERND350Xfnx/mzpoDJ4se6PldF+g31UMzraYwNtBFS2sbWNsOh143OjF2S4BRN1Iz3aLrQCH9haL4fV2bsYHizwMKFmy4Z/2205gVvAhtSdrpkb3QtiWb0SES2u3DodMhnNRGKHnHELTvF4vpAQWoXFaLh2QN/lGw4cnrN27j8NHvsYVUBds/hCUut9ccIoAcwvK1W6AsrkSiUIwwlr+IiKHOnQJxZi7KF6zA+k27uLrYvvsgVxqbt+9H7QE2nEpn9Ad15eC/AAabQHbs/HksW1+NZJGEF2t5+gUjSSjD8g1bcPrqDZ4oZJ2cJUhvPn5MEDnHgXGcIMDmVDz98Q3Zhwc4e/UyTl++TDaD1AypCfY+bFc0lithu2/v3luLiiq2IW805syczHfM8iTZn06WYPma1Thy+jRfMYptIvCYXsOPeYGUzNED2LVtA1YvKcfikhxU5svrCqNk/MzPAMHUA0tYZotYcVQs4iLDEOjvQ+phNqmHOfAma8HsRWigDxJjw5DB7AWBqoKsRSU1ZldYUpLlHVhjeY01iypwqHYnTu0/gk2p6yGyTYdPQx8ENJiPlGYpkOikQ6wRh0zDUCi7hyLRaQL83UZjvqc3AkOD4c+Gpr184TnDE2MnjEXbCW2hRaBo6FIf3zp8g8atGsPeyA7jjMdhvlUIks1FEJkoUGhYiVUGm7FafxsW6a5DieZS5DWsQk6DUmQ3LIK8QRGkDBRWFdgp3YOAeBnqmbiikfUoaLedCt0OHmR7fWHUKQgmXcNh2j0a5j0TYeGUSqqC7AepCkuXLFgNzIH1J1VBKqLl0CK0JDti7ZbPKyp7DI+Hv28QqS4fTJ40EePGEtCnTqLv0RMDuvRD+6btoK+hC+1mTWFioI2Wza05KAy6k4ruTqDoHgtTgpSpYxL0HKUYMHshzlz+/XuIMDZQ/LlA8SkuXL6H0kX7EZqyCuO9ijBoshwu46QYPCULU30LECtciYoltXS2vV33iv8+nj9/jvOXrmDPgaOqgitSF2yFre1kRzaRYli4fJ1qsllKOh8ZCQ6P5mt3ynNLsGj5ehVcCBYsb8GuM3jsP3oWZ67e5qXPbLNlFTBUCc87T59j79Hj9DcsRSTPX9BZOCgC4uwCbKzZR6rkPu/wLNfx4v17XL57H4dOn8X+49+TAjiAA8eO4eiZ07h2/z5B5Se8+umvZFte4uzlC2SHtiAnR85rH1jdw+RJY/nELGVeDv0t23Hh1k16zV/5ZkiscvT6/Ts4c/EsDh2sxZb1bO5FERYVKwkGMpSwWZtKlpxUQYK1wkyyF4JkPq8iijqoH/2QWd7Bm2wFWx3bz8eDzoj+9HgEMtMTuUpgcznKc7IILmKuIBgcCkmFsPs3rlyCo2RtbhH4Pn5Q5VLePv0RF9adx4bAapT2KoTCMgM5LdOxdGgOagVrcWzVblQvK4NUEonwyGAEBQVRC6a/OQRB/kGY4jEd7afZEiiaojFbXKbjd6hvUx+WRiboYmUHl9bOmNPcE/EWaZAb56FMdxHKNJejsNEi5DWqJFBUkpooRVbDQsga5EHyTQ6KW1RgddImzJifggZmA9HUaiR02kyBXvs5MLTzIRscCFOyH2bdIkhVxMG8VwovgrLoK4JFf6YqFLDiqqIILdwLCRL5sCFwWLjmopWrAGMmE+y8vPgktzGjh/I1OyLIpgmSojFv6nTYmbWDroYOdJppclDYWDeHlcMYGPYg+90jCSY9E0hNJMCkVyoHhbv3Etx+oNpL5vcEYwPFnwMU/9XHe8EmbJ26RnbhDCmC09i95xzOX7jFd/76ZbDX/6Mj/PK4bLXtByTvvz95HjtqD4At1stmpLI5IDtqDpPkryE7sgwCaTafM8LmjoRExiFJIEF+Cavu3KyyLqREttHl5m1s7olqOPXCrft8GfrHvPZANULCchhsstTmPXuQXVLC7Q1LeAbRMfPI3tQePcnzF8/fvSMQ/MQhc/LSZT78uv/E9zh38xafgXnlzm0cPHYEK1avgEiYAm/PGTz3MHv2VJ6cLKuqwJ7Dh7gaeU1/7nOyXfef0+tu3cCp0ye4vVi/aiGWVTB7kc0Tk6yC8tPQZgUbeSBYsLkXErIXbHgzLNAfPvPm8vJqNn2cWYxA/3ncXggSo6AUk72g1/LcBR2PAYcBopAAwaaMLy0twPbqtTh55CAe3f+vt/N//egVAeMMDsp24Wjubtw8dAk/1e29wrZUuHD+FJYuXsCX4wsKnE+gCEIo2bpZ/nNgO9uerEcTNHZuQIriW1iYmaJP8+7o3bUb7Du3gVO7nvC3DkamQTbympagiCBR2HAh8htVESgqCBRlkDcsgLi+EqKvFShqXY5FMWswwTMWTSwHQ5MUhU6bydBvNxtGtt4wcZgPs86hMOtKoKCzu7kjUxVkP/qQ/egnhqVzFqxJVdiQgmgxOI9aDlcZZs5ydBsah9nTPTBx7FgMcnWG+2AXPn8mMSoUaQTcpLAg9O/WE9qaWtDR1oK5sR6asyHSLjNg5JgCY2qmvZIITkl0mQ7j3nJMCVuFZ6y89ncGYwPFn1NR/CvjR+rIN27exiHqqKzmghVcbd7GVgffD7bRsmrtiyokpUu4HQmOjOErbAkJIKUEkrVkR5i6+Hn+yM/DqVdxla2uxcvB/5bwZNA4c01VDp6hUMCXfuis/iKKFEtV3XYC90ktsOcyhcGGX78n9cMUxp7DR1BWXoIonpycyNWDn58XXzWKbTt48sJFsMrQl6Q4nrz9EbcfPcSlK5dw/NhB7NiyDqsXlVGnZcObcurMquTkJ+XAmspepPDFYeIiyF74eRMUVElJHza8OW82dUxfJMaEIiM1FvkEAjZywUY/2GuLszJUFkOWzud0rFpYhr3bN+Pi6ZN49fIf28F/Np4/e4rdu3YgRylHVGQEfZ5gzAqYCdu5dtCa0BSN+pOi6PAdulnZY3QnN7g690Yvpy7o5tAJs608INMh+6FRiuLGfwMFg4SiEdkOAoXku1ykfS1DQbtSLIhZjXFzY0lNuEOz+ehfgMILpg4BMOsUwsupzbvFwLxH/C9UBdmP/pmwHpCN5oMIFoOVpCyUpCaUZE9S0X9oAOZOn41Bzi5wdnKEu5szAnzmYL63ByaPGYkQn7kY0KcX2Q5N6Otqo7mZAWxadSTlQnbHSQBTZnOc2Hul0u0M2BCAIiTb8Pbdr0+Y/5tgbKBQg+K/ihcvXuLcBbIj+49xdbCB1AW3IzUHeQ3GwhXrIVUWIpbsCJtoxvIXrBxcRvctXLYeG7bu4XkOlR3Zh810Wctmp166iRtsdiovB1ct9svsyMPXr6nzn0HV8hVITBfx3c1Y/iI5IxOrN20nmNzk80c+jabcp8+398gRKHOUdFanszv9mLLzs/mitNcePOJwYDNfH7x6iev37uDc5XM4fLAGW9Yux6oFZJmKc7hy4KMXPP+QxRUEAwSfe5GeDEFCNCJZcRTZC+aVfemHy4ujfOdye5EcS/ZCmMQh8GlolAOCKQgCRKFMiCqyF9XLF+NAzS7cuHoJH+rsxaf4r354TAP++rHf3PrNT/batWuoXr8OSoUc80Lnop1ne7CtHhv0/Q5arTQxwK4PZgyeiOFDBmG480CMdhwCH0sviJpKUdCUQNF0AXIblUPZqIxaKTIb5kHaUIkMUhRpX0tRZFeKZWnVmOyTBA3rodBqMQa6bacQKGYRKObB1N4Ppqw6snMEzLtGw7w72Q+W1OSqQgSr/jJYuyj47M7mbnJYu2XD3DUblo6hGOg2AXNnzELfno7o1ckeo4YMQCRZR2+PmfCaPR2hfvPQtZMdX2XM3MQQrazNYNO+L8xYzQYpFrM+abDkTQDD3mI4jC5E6epjv1og+X8bjA0UalD8d8FGR+4/eIjvT53Hzj0H+UZFqinp+7hqYDBgVZfpMpUdYcOfgWRJYlNFXHUsW7WJWxeWs2CXfGiV4HHwOFmk6/dx+6lqdipTF58UBl8d/OBhPp2dTWCb4+UP36BIyHKKsXXvAVy6q8pfsOey9TKu0+fbsG0blq9dhxOkPh68+AEv2PDms2e4evs62YvjqN3J5l6QPaoqwgLquAwOqnkXf8s9sE6eKxZAkpaI5LhIhMz35VO7fQlAzFqw4c0gfy/ERARye5EjFfDXVZC94KtPcUAwBcHsRQaWlOZj67qVOHFoH9mLO3zJw391MPt4hexZyZJiOIX1QuOxDdCgd30YtzDEMMdB8JgyC9PHT0HEGH8IhhMEW4UiuXEqCpii0KyEonERAaIAcq4mCiFuqEDad1Kk/EWMIocybJDvwtwwGTSaD4d2y7EwaD8Nhh1mwcTekxSFHykKNkErnBRFFCkKZj+SfrYfVmQ/rF2Y/ZCT5WBDpgqYDVDAovs8OPftT4piJoYMGIieHTtilNtAJJDdYNPsE2PCMGXCaLRqYY1WNpZo29ISbdq0hU2XSXxUxbyfiC4FsOqbDku6beAkQb8ZlTh29n+Wn/v/BWMDhRoU/yjY1/HLr+Ttu3d1duR7bPt5whibPMb2HzmI1Rt3IrekColCCUJiE3g5eGjdVojFlUuxpno7VxafgMHazj3H+HDqlduP6qZlq9bvZI2B4Mq9+9iwcxey8vL57mZsODU4KgH5FYuw7+gp3H74HC/f/hWv6AT94u1PuPXgOU6cvsyHVY+fP4ljR/dj+6Y1WLukHMvK8nmnZp2ZNdaxuXqgTs7O/tmiVIiS4xAbHkz2wosUwzw+Y5PVP/iSBGb2IoEVR6XG8VoJ9joOFzY9PJfOtnRfgTSdg2fVgjLUbNmA86e+x+uXL/7uzP9HxLNXz+BV6IVGo+uhnuPXMG1hgBF9BmP2tJnwm+2PXE8ZCsdLEN0yGEmNEpGvUYxCrUoom5QSJAoJFrnIakS2o2EOBPVlSP1GAmlLBfLDKzDRKwm6bSYSIKYSHGbBrONcmHfyhnlnf1h0DYJlt3BYdv8ECtXoh2WfdFj3y4C1swxWrgQJVxnZjmyYuWTS66bAwbYdxo8cg5kEstFDR2HCiNGYN30qYoIDMGXcKLRs0RwW5qZo17o57NrboJ29E6x6k8XpLyZLI4Jlv3QCkYBDw7RfFmZGreX5u88RjA0UalD8T4N9RS9fvcKFi1e5HWGjI9WkKJhK2M7yEQSNJaQgpHTm/zQ6wiabhcclQyzPQ9Xi1ajevLsuf8GGU1XAqDnwPU5cuKEaTmX1F3UFWwwWDB6nSVKz4VSBjBVbhcLDZz5iEoQoW70Ku68extWXD/DqHXD37XPsuLsXqTUZCKjwQ3GFFAsLlSo4yFWAUFkMlXooIFvApnYL4lX2wt/HE37UWA7Cm+zFfD9PRIbOJ3sRDnlGsspe1L2W2wwCRGmeFMV5YlQWZWP9soU4sHMrbl69jPcE1n/3T6qqthJtvG3wVc+v0LRlQ7j1dYbnVA8EzJ6P3HlS5I8XIbJlEBIbJXNFwSoyczVLkdekDApSE9JGecgg6yFqIIewfhYi9eIxscc0OPSbQMphLqy6eaF5d2o9fKn50/VAugyBtWM4rByjYOEYC4teCbB0SuGWgIGiubOUVIWUQCHlFZsWfOLXOFiaGaF7p44YP2IMJo+bhMGug9DJ3pZXZRoa6KKZliZMjA3RpqUVOrRvi9bdxsPKmewMHc/KOaPuuhDGfcToMKIAOYsP/2JV7t8XjA0UalD8s8Hk7cNHj/H96XPYUXuIZH8tXyCHKQaWk9iwdS/KF63i+6RGJKYgKCqWb4XI1u7Mzi8jO7JRBReWv+B2hCVJD2HfkbM4c+UObj1+gUevVeXgbEo7A8a95y/4mg8Vi5YhRpCK0bGT4aIYhFE7xyL5ihBLb66B+GQmhm0YCuM8Q1ilmCIgfSaKsjL4fAvWuVn9AxvRyJUIICV7kRgdjpAAXwSSemCQYOqBASIowAtRYQF8WC4vU0RQkNflLlSAYHAoLWTL5gtRGCdCVXQ2DmzfhccP7+HD+/f/dkB8ivvP70O4Mh22M1qjnsPXcHDsgOkTpyJ4TjByCBQ5YwWIaBFIoGCKogQlzRagSKsCeXRd2aQEmQQKYcNMpLPWIBPBzSIxpO0QdOg5DK2d5qNt3xC06ROEVk6B1ILQ0ikENk5h1MLR3Cka1k6xdNYnUPROJktA1oDO/GxGKOvYFgMkMB+QRYogA5YOE/iwrZWpCYGgJVq3bAFzMxMYGupDR6cZdHW0YWSgBysLUhRtrNHWoTds+kaj+QCWHGV5DzGau9BxnCUw7C2D29yFOH3p98/x+BSMDRRqUPxvgn1db6kD37x1BwePnuBrdbJkJ89H1FkMtpVAQcUSJGXIEBGfyOePhEUnIimdZG/ZYqxev+1nuHA7QvBgw7CHTlzAhZv3+bZ7TFGweSBPSWHwLQ6fvMGOowcwY8ssWGwzhvE2XVhWm6NllQ1MZEZoFtcUDcK/gWGENjzSJvMaBtbJCwkY2WIBtxdRoaqVowLIYviw2gcChL+PB0KDfBEXGQxJWgKf3PWpdoIVSbE8RHm+jKuHArEQJfFkXTwVWNgnB5v7LcPz879/luJnC/ZLrvs5v3zzCit3LcWk6PEYPGcwPPznIto3GrlzpVCOTkN4iyAkNU7mox4lWipQ5GuVIFurCFKNHKQ3kiGtvgTJf8lAlGE8wsaFYn5kCoZMTUf7flFo3z+SLsPRllpraq36RlCLRAvqyDZ949C8TyKs+yZzW2DNz/ps9EPElYQZgcLURYL2nbzQUc8WBlq6MDc1g5mpKfR0daCvpwMDfV0Yk5KwJkiw3EQHO3u07uUBm4FZvDUfKCNgSHgzZcnSQdmIkm7Dj/Tb/FzB2EChBsXvCZagY3bk4mWyIweO8bzFRrIjTCmw8u4tOw5g2dotkBeUIi5ViGBWrBVRt3anVEkKYTXWb9qtggs1PjpCr925/wSOnbuGK/ee8E18n7xhC/3+FbffPcbuh/sQfjQSzZdbQK9IE80EGmgS1QANQ+uhaUhDNAltANMIfcxJnQilOA2K9DSkxsUgLNif7IQXtxdec2fxlaP8fT351O7kuDAoMlJRypQDqQZW/8AUCFsyv6KYzeQkSAgzUBotQ9U0JVb0KsW21iuxS2819tqtx+vzv7+w518VHz6+x/3H97CpZgvySgshjCZozs6AYmQKwpsHEihSVMnMZlUoIPuRr1UKJYFCpkmgaChF0lcCJH6djtKhVbi0/wIeP3sOSf5W2LkmwW5AHBxc42DrEo12LlFo6xyNNs4xaNU/Fi36x1NLopYCm/4C2LgwRcFqKthksQyYkhowcZHBtksYuup3hXYTDVIORnxLRqYojAwNYMogYWmOdq2sYN++Hdr2nICWgySwGcyGWQkSrJGNsSI7Y9hHBqfppdh18Ar91Z+vOzM2UKhB8TmCjY48fvKU7Mh57Kw5xGHBchhMWWzbfRgbt+1F1bK1EGbmIiI2iScngwgaMYnpyFQWY/GKav6aXw6nsiTpnsOnuB259vAJ9t4/jqTvU+G63gWtcm1gkKSDZpFNoBnaGFohTaBFl5rhTdAkvAGMCRTjY4chOiIYoQEECH8fPqV7nudMshdzeHFUZKg/0pNiuL1gK15ze5InR3kewYEBoki1TF1uigAy73jku6djbecF2NtuA2qN1mBzwwWoblaM4z478ON9Vjz+5cUvf9ZXr93A2vUbkZmkgGKWCPKRqQSKID7qUaj5C1CQ9chumA/JtwpImymQZ1eI5TNW48LmSz/3v4PHr2G8TynsB6ah8+BUdHIjaAxMQHuCRjtqbVzi0WpAArVktHJOoSZAKwJFc7b6Vd9UshwimDpLqZEKIJti07o3DHS1YKirCysCQwub5nRpgebWFmjf2hoOtu1h22MMWg1KR0v3HLRkC+K4kaogUNgMlMKM1ISVqwLh4i344Ye3qg/5mYKxgUINis8ZP5JNuHXnHg4dO0mQ2E+dv1ZlRwgADBprNu5CQfliJIlkCGOjI+HRCIlJ4GtV5LHqznXb+PM/2RE28WzP3pOoPlyD2Zs8YZ5pgiYxKvWgFVoHhzACBQHiU9MIbwjDMB0MDHSGL1MPbHr33Bm8tDokkNmLEEgFSXykQpW7UI1glJNqKC8kQFAryZQgJy4NwumxCO/ihwgDXywwyMauZsuxo9lirNHIRaVmCjZNKsOjs3fw18+wNuO/Ou7eu48du3YjKykb8hlCZA5JQrCpP5IakPUgUBRpViD3uyJk18tHnmExqrovwma/rbi45RJe3n+Fj+9VFaEs3r57j0Wrj2HA5Dx0HCxE12FCdB4qoOspsBuUhA4EjXauiWjjmoo2A6i5COhSyEFh3jeFQCGEmbOkrqXDqucctGzZDtZmBmhuaYw2La3RppUN2rVuBVv7zrB1nIi2g9PRengeWg3NRku2HudgOVq5ZcLaVQajvlK4elTiwGeYVv7bYGygUIPic4fKjrzG5SvXsffAUerwzI4QMAgcbIVvVni1fN1WZBdW8H1Tg1ixVmQ0IsiOpIkVKF2wAmsJKMy67CA1snvXcRRvWorOiq5oEPwNmgY2gEZII2iFfYJDY2hE0O2fQdEI+mHN0NenF1/a3s97LoIDvZEUG8HzFCXZLPeQhao8Zi/Y9HApygtkKM2TIC9DAGlYIgRjEhHZLhIB2oHwrj8PYfW8UNFEhFWamShuEgOF1nysGKXA7WNX6CT75/jpvP/wHjdv30KVYiEU00VQjk1Dkn000hqmIfurfOTXL0WpSRWW9VmFPQn7cXv/HbwmpfT3f5/q9pOnr5FbuRdu0/LReUgGgSID3YaL0GVoOgEjlYCRgg6D0tBuYDraDRJSE8HGOQ3mfZLr7AdTAhKYk/2wHCBCK8fZaGvXA23adUC7DnZoZ98NHboORgdnP7Qfmon2owrRju0VQqBo7a6gJidVIYcxqYnWw3KRWbkf799/npGOXwZjA4UaFP+qYP+0J0+f4RTZkV1src5ttbxAiwFge50dWbSqGhJlPiKTUlTFWhFs7c50iBUFWLRsPTZv2Yt9tWdQuXk1umX2gEZwI5XVICBoEiCYmmgcUp83Bg52WwUKbTjPdyJAeHF7kSNLr0tQ1uUf6JIlOj+t/5CTIES2nwhxg6Ix19wHQTqxCGwYC/9vQxHYgM66jXygaOQHpaY/lJbBWDJSgut7z/3chb78H4/qEzKIn9l/FpsyV2N30XrszNuKZWOWo6r1Iqx2qcbRzON4cPwB3jz5zVqTrHv83EXYper6k2evsXD1EUwPqkK/8XJ0dhcRMEQEjAwChhAOQ4SwcxOi/WAR2hNMWpGyMO+dQKqCgMHVhBhmLlKYD1LCchBZCZbf6D0PrXvPRTuXULRzz0CHkXnoMLoYtqMK0IEURfthOWhXBwuWEDXpn4U5cWtx+8GnkvhPn/PzBGMDhRoU/+pgc0fYJsyHj7FiLWZHWKHWAb7uBWvrNu9GyYJlSJNkkQ2Jh39oJJ8YFpeaAWV+Bdas24ni6sXoo+jHIaERplIPmgQEnRBN2PhboU1AC36dPdY0jKxHuA5GJ7hDIU1FKSkIBodPRVKsKpMVR7G1INhEsDWVC1DoWQRh+2yENxXA/5t4hNZPRXBjskb1ghD1lSekGt4obB2GRW4Z2J22FndPXGc/oLq/8M8V7398jxf3nuH10xf48eUbPDz7CNe338CDYw/x9uU/7+9fv3mLY6dvQV6yE1MCytBnnAyd3JkVyUDX4WJ0HiaGvbsYdu4StHUVwNKJ7cORTKAgSPQXq1bBIlCYuxXCckgBrAcr0cKdQDC8AO1Gl8J2dAm1fFIUeaQoctGWQNGaHrd2zYJhXxncPBeg9jMsUPNfBWMDhRoUf0Swr/fly1c8oVa79wg2bKnhS+tt3XEQO2sPY+su1WQztmp3TIoA8yOiERAaReAgW5IZhRkVc9E1qxuahZK1IBgwNdEkpCFaBlrDJ8wT0yMnQS+kGRqH1efJTKMIXUxMG4GibDEqlFmoJJvBiq94PQQDRHkRardtxq1rV/D43gNc2HUJyzxJ3bQqQZpePgL/EgPvrwIQ0ZhUhE04Vk9U4HjJLtw/cRM/PPkyE5f/s/j//8z/GSv1y27D1MXh769BVrgZ47wL4DRWio5DmMKQoOsIGboMl8HWTYTmpCgsnBJh4SzilZUMGOauCli45cNycD6s3IvQnC1oM6wIbYcTIEZQG5mPtiNy0GaYkucorAbKYdhbih6Ti7F4w0l8+PC3/MnnDsYGCjUo/shQrax1H3vZMnybd3L7wRQGS3SyKemscGvBinVkRwr4iIh/eDgGJrrDIt8aphIzaIc0VVkMAkWj4PpoE9QCgfG+GJkwFDrhmhwSTbii0Mb4lKEcFAvzslGcJYKELEhUkD+ys2S4evkiXr18UfepVPHo+iMcXngcldOXIdlegFSHOCydk48zS/bj0bnbdCb+9dj8/40fzG//it//Vz168gJ7Dl1EunIDxs4jYIyWksIgKzJMBYvWLikwd4zjeQoLFwmHhYVLJlmPXFgRLKyG5MOalIWNez5BIZ/nH9qQimjF9gghu2HpmgmDPnTMsYXIWXQQLz/zKMdvg7GBQg2KPzrYV/3k8RNcvHiZT2Vn09fZRDM2LLqz5jAvulq/uQYVC9cgRSLHEOFoNMnThKZYA9qhKlDwpGVoQ+gREFpF2cA4ygCaESqAMOthEKGDscmDIc9IgjQxHgFzZmCISz+49OuPiKh4rmz+UXz46T1unbuFc7vP4lLNGTy+eu+fOsOq429x78Ez7N5/DmmKdRg9NxeOo5glkaAdsx89o2HROwmWLnXWg5olWQkrsiBWbgSMwbkEC2ruuWg+JActhihgM5jlJGTQ7yNGt4lFUC48SCrm9+/b8f8LxgYKNSj+yPjl1/yR1MXzFy9x5dp17N1/hBdrsRwGg8XOmqPYvusIVqzbjoiqFLQtsoWeRE81JPrzaEcTNI1oiPph33LLwW43o9YkogF0IjXhGtELAV6zMXXMBIwY7I7h1GZOno7osDhUli3F9Wtsr1LVsCb7XP/dD4AtEqMGxv8sftuV7tx7gq01pxEnXo1hs/PQdWgGLLtHwrhrBCz7CWDlKiVgqBqbMGbFgMFmmLpRG8RW8CYVMTALRn0lMOkvRf/Z5ShZeQTPnv/rIcGCsYFCDYp/d3z8+AHXb9zBuo21fFr6hq21BAmyIrsPcWCs3rEDkauSYC/vBK2QxgSKT6Mev4aGBkGjUfh3aBD6LfRDtDHQrz/853rCd9Y8hPgGIjUmAQoBsyBCBAcKkSpchpMnr/4paiD+L8SNW49QveN7RAtXo/84shzdQqHP9uLonQbLAQwQrCZCVRfBLwdlcQVhSIAwJBXR2l2JGZErsbH2Al9o+o8KxgYKNSi+hHj28g2qtx1BbvES5BctxOrq7XyRHLZKVu3u77F86yYMLRjBQfFp1IMBQ4NsRuOw79CQVEWjkO+gGdQElr5mcA10RnBkEIRxSZCnCKBIy4CcbTmQLoI0RYQ5ngI4uQsRHrsEx4+xikM1LP5V8VsldvXGQ6zaeAyeYaXo0D8Spl3DYdAtAQaOAhj1FlHLgEEvEW9GfTM4NFznlEFavrduQ58/tqsyNlCoQfElxIvXb7H36DVULd+JzOwFkOdUYtHStXxXs5qa41i6fSPGFI2HNoGiaWgDNA1XqYdGBAkGC4NAbbTybgEX3/7wDJmD1IRkgoIcYrafamIKZMnpyEoV0n0ZyBKI4eknRnuSvB0HShAUuxinz/7+Zd3V8d8F+25//f2ev3QHpYt2YZqvEg4DYmHTOxbWfZLQvG8aWroIYe8uwYh5JUjN3YqdBy+RivjF+pd/4L+KsYFCDYovId5/+Igrt55i657LqFpWgyzlYuTkLcDChWuwceMeLNlWjdHFE9A0pAHqh3zDcxKsuMoq1Ay9Q3tgUshY+Id4IzUqCXmCbORKsiEXZZJ6SIeUIJFJkFCQolAKxZCnSzHPX4w2bjK+jLztEAXC0tbizv3HdZ9GHX9kfH/6GhatqIE0Zw3i05chIWMl5EWbsWTNAew7fJEvyfi3+OO7KWMDhRoUX0q8fvMOR0/fwqrqw1iwZBcKC1dCkVWG/JxyZJXkYHTOOGiGNEGzkKZoH2KDQaH9MCdiGuKiI5GdKEU+KYjcDGpSBXIkCmSL5ZARHGQEiyy6VAgykCOSQEGg8PQRwsaFVQfKYOqigO2wPCir9uDd+1+vZ6mOf1FQb/utJXn3/h0ePnyCx9Q+vP371bNVz1eDQh0UT1+8xr5DF7B4KdtZfA2BohyiFCkS4+MxL2U2+oX2xPCwQfALn420yBgo4jMgTxaTpZBCKZIiJ4NtCkyKQpoNJcEik+DA1IScLhXpYnqcQCEkUHgLYN4rFgY9kmDaTwyT/tlwmVXBQaX6Kah/DupQBWMDBQfFY3at7n51/Fvjr3jy9CX27DuJiopqKBWVyBQpIU0QID0mlq9KJY5JhDQ2FWK24ndSOuRpGQSJTOSKM5EnzUJhphJ5MiVyCBZZBAeuJugyWyih5zCgyODlK4S5UyL0uibAyDEJhk4iNHfLRXJuza+9sDr+46OODc8ZKK5SU6e9v6B49vwl9u07jrLSFZCJciBOTIOUmoyaJCEZ4oQkSJNTOQQ4AMhy5EnkyCfbUZiVg/zMHOQSLOT0GFMT7DlMceRJZKQqpPD2E8GiTwr0eqTB0DEZRj0ZLCQYOHcRrt58Uvcp1KGOX4NiP7XPPz9VHb8rXv/wBkePnkJl2WKIk4QcELKkFEipyZJTyFII6uyEjACg4JBgtqNQnouCrFzkESyYzfikJv4GChl8/DP4xjO6PdJh2IsagUK3ewrsRxdh+/4rf8jS+ur4cwQTEdRuf0U/itV05fMtsqeOzxZsqvr5c5ewcuEyKAUiyJOTIU9NQVZKGlmOdCi5ncgkSGSjgCBRQLajSJHHYcFUhYLgwEDxc/5CQhYlIxN+AQSK3qnQ6SEkJZFBqiKNbEg82gxRonDJYb4wizrUwYKJCGLEEQaKArrxeTYBUMdnD/rf4NH9+9i0dgukaUooUlMJGmlQpgvr1EQWQYI6OEGiMEuJ4uw6UMhykC2S/awmmOXIF5OiEGfBP/ATKEhNECiMHIU8X9FykByS4lr88OaPq/xTx5cdxId31DYw65FCtz/PRpDq+KzBIPEpLl5/hRDBPoRGlUGWKkGBWERKIhMFZDsKCRRFBAmWnyjOzkeRPI9bDwYKrihIRXDlwUBB1/0DRXyfSl2uKMSkKETQ7RKPVoMyIa/Yhze/mSmqjv/cIEi8oVbOQOFDTZ3B+sLjyr2PmC28j/5exzAjaDHiY7PIRshQrlCilBREsZxgIVeBooDsR7ZUlaOQp0sgEWQiJUECcTJBgxSGH1cUAgKFqA4UQuh0jkO7wXIsqz7Bp8OrQx0siA0vCRTpX9H1vnTjjupudXyZ8Vfcf/oeiWWP0GXeFbSfXIve43PhMU+A1HgxiklJLMjLQ7kyD6XKfOQTKLLESoKEGOlJQszzjsPQSTGY6pGM1Lh0+M9n+1UKodtTDKPeEhj0EkC7Uwy6jMrBkVPX+fupQx0smIigNpGBwpCIcVB1tzq+zPgJb99/xIpdz9HP/yraTNwD8/45sOoRA6dBUZjnJYAgQcYtSEVeIYqyCyAXK8iipCNsfiS6OnvArGcQWg6Iw0SPFPj5C2HdP4NAwXaXkkK/pwD63eIw0qsSdx9+QZv5qOPfHsSGS3TRmoGiAd2QEzXUGawvNtgZ/iecvfYDZqXeQKeptRwUBp0Tod8hHGYOIejmEonps5KQQgojVypHlkgGUVwi5nv6wqGvBzS6RkKnVzycJyRjfpAINi5i6DoSKJwk0O2STOAQQFa6W52fUMfPQUz4SGxYTpcaDBR/+fjx41i646nqYXV8qfH6x48oXf8IfTz3w9KlEKY90mDgEAutduFo1iYYxrYB6OsWjJTIROQK0yFLikdSSCCmzQiE3ZBY2LknYvJcAeb5sc1tJdDvRWrCMR3anePgOr0QZy7e+1UCVR3/2UG/hdfU/Onqt1+xoBstCBRnVQ+r40uOi7fewDPtFGwGV8C0lwgm3VNh2CkBunbR0GwdQuoiGBMnxyAhMg2pMSmIDomFj08MRkxJxMCJaRg2XQzH0Zkw6SODQS8xtLskwWaAEHlVe/HhF5vcqEMdxITbxIbuHBIs6EZjulNGTZ3u/sLjw8efUF17D85z1sGwpxQmjhkw6ZYGw67J0GdWpGMcrHvGo5d7MgaPS0PfESlwGJTK95RgG+Va9JPCuLcMRmQ5tLulwKhHEgKSV+H+o18vtquO/+wgJhAOflpEV5vVYeIrbj/evXvXkR44z5+lji86Xr5+D/mCU2jvlg+9rkIY98yAMauJ6J4O/W4CUgms0jKNIJAOA7pft3sGtLuLodNTAl1HGVkOMbQ6J9NjCZgWsgBnL92tO7LadqhDFQQKpiZc6epf6jChCrqjHoEiXa0qvuz4lEK4ff8VYiXbYdNXAq2ObL6GBCa9JDByFMOAmj6DQg8J9Eh1GDpJYUQqgikJVrbdxCEBFn1SMTtyMU6cvqU6IIUaE+pgQYBgP4Uyumhah4dfBz1oTw+e5M9WxxcZv8w1Xr35GFHCDWgzQEqwSIVWp3TodlNBgsHBsJcUBgQPHVIcGl0EaNIxCXrdk9FlRCYSM6tx8dqDuiMxSKjX2VaHKkgs3GBqog4Lfx/0nG/pCSHUfrn+ljq+uGBdWtWtb9x+AmV5LdymFaClsxiGpBi0O6dAwyEJTeyTCB5J0O+eCou+6egyMhOeUYuxdssJPHikrtpXx98HQeI9tQy62qQOC/846AmsAKuCYKGea/zFBp39f/Hvef36Rxw4egW5lTWYRyBwn1WAvuMU6D1egUEz8jEzpAqivC3YsvsMrlx/SK/49NpfH0cd6qC+v/nt27ct63Dw38e7d+/sCBTb6l6rji8wmAX5rVn48ce3uHz1Lg4dv4qaAxdRc/AiDhy7inOX7uDFi9/uGVpnNn59CHX8BwdB4sSPP/7oUoeB/1l8+PBhAMFCna9Qhzr+A4L6+s2PHz9Oqev+/1zQC6fSAS7WHUsdf4JQJTt/KROYveA/BN7UoY7fBv0u7lBfD6WrDeq6/j8X7IV0gEl0oGP8iOpQhzr+TwX17cvUAuiqVl23/98H2ZDBdLCt1NQzhtShjv8DQX2ZrYV5jITAZLr5XV1X//1BB+1JbSE19eQxdajjTxzUh19Rq6bmXte9P2/QgVtRC/npp592szere191qEMdf4KgPvsjtVPUBNQ61nXrf128f/++R92bnaD2hpo6S6YOdXyhQd3zLZ3c2f49udSGUGtY15X/9UHv3+DDhw/sTWXUtlBjk0jeUlNX8KhDHf/GYH2Q2jtqbBm7PdRyqE2kh3Truu8fH/TmDehDsAKt2dQyqa0leh2lxurF71N7QY15InVTN3X7/O019bVX1B59/PiRnayZtdhATUm32aIzvej6P57c9e8K+lBf04dqSUrDnS69qAVTk1ArVDd1U7d/SSuipnj//n0EXfpSHxxLl+3pUrUq1WeJr776f+EQg1agjkElAAAAAElFTkSuQmCC;fontSize=27;fontColor=#DDB64B;" vertex="1" parent="1">
          <mxGeometry x="564.0014285714287" y="487.9957142857144" width="266" height="165" as="geometry" />
        </mxCell>
        <mxCell id="PVorNcmFDbXd92xEUqX--9" value="" style="shape=image;verticalLabelPosition=bottom;labelBackgroundColor=default;verticalAlign=top;aspect=fixed;imageAspect=0;image=data:image/png,iVBORw0KGgoAAAANSUhEUgAAAHMAAABwCAMAAAAaCb96AAAAAXNSR0IArs4c6QAAAARnQU1BAACxjwv8YQUAAALfUExURQAAAP///////////////////////////////////////////////////////////////////////////////////////////////////////////////////////////////////////////////////////////////////////////////////////////////////////////////////////////////////////////////////////////////////////////////////////////////////////////////////////////////////////////////////////////////////////////////////////////////////////////////////////////////////////////////////////////////////////////////////////////////////////////////////////////////////////////////////////////////////////////////////////////////////////////////////////////////////////////////////////////////////////////////////////////////////////////////////////////////////////////////////////////////////////////////////////////////////////////////////////////////////////////////////////////////////////////////////////////////////////////////////////////////////////////////////////////////////////////////////////////////////////////////3aZaXQAAAD0dFJOUwABAgMEBQYHCAkKCwwNDg8QERITFBUWFxgZGxwdHh8gISIkJSYnKCkqKywtLi8wMTIzNDU2Nzg5Ojs8PT4/QEFCQ0RFRkdISUpLTE1OT1BRUlNUVVZXWFlaW1xdXl9gYWJjZGVmaGlqa2xtbm9wcXJzdHV2d3h5ent8fX5/gIGCg4WGh4mKi4yOj5CRk5SVlpeYmZqbnJ6foKGio6Slp6ipqqusra6vsLGys7S1tre4ubq7vL2+v8DBwsPExcbHyMnKy8zNzs/Q0tTV1tfY2drb3N3e3+Dh4uPk5ebn6Onq6+zt7u/w8fLz9PX29/j5+vv8/f5+5taAAAAACXBIWXMAABcRAAAXEQHKJvM/AAAI+ElEQVRoQ72a/WMUxRnHN4FIEiwJ1NBI1SClqVoEERAhNRaxUFSCFTiK8lpIC0oUKhSpHJgEK0Fag21NUZv6UlJEiID1YkuLBVuwGCglYAPkpdILCBwk4b5/QJ955rnc7ub2cpeQ/fxyzzM7m29md+aZZ2bW6DSZvhKvd0JuuriukAuN31ecP1TKuhuPaDJ1ZR43Gpwvcm348rtd1itSJgLlE+RiN5GV6/F6y30B0RPqCpLleneSnef1iSDjjqphJOeVHhdJwi1Vam9pnWgC1blS2P14KkUTKHMvVmSViSbq5kiRC4RVy10Mi9mhblydLSVuMMevRQMuPl8jPfSAS6XAFfKkqeVuDVVF1gEtWunmBJtcqkUPuCkamu3cFZ2jRSvdfKfGBD3TlYnrDiLqFdcdJrAm8sR1B/1O/VniuoPOm/Z2vh8l3zJlZdkHh2obTn5atXnVI7elSnk0dBwsES9OBi3eVs/3h2msLOhw8kiu5qqdSAl7ed67zPcCl86c+s/JM5fEa/njYx20Nps7b128Tzfl8SMs0Lir0DPqpn6pvVL73jhi2tpK3e6aZV+SepEp4FrF4sXITFY89fLEvlIQIm38xs/UpePzpSAynCcF4pnCB+9Qt+yd3Ud8K71n/Eld/uCb4kdCP91K8WJg3jmqvz/aqP7uX6jGxcXiRaJYacYcGRLVlORfnCCuAz9ooFqbe4nXnmTOfQ+I1wFpu6hu5c3iadLumDT1geHWVztgC9XbkyFee/KUZmwNve5jqmmJ0EmerapNwH+3z7L0/qep7NAAcdrDaUMsDU3/B9A8Qxzm4X+qe4UjM6WUmXwBOPwVcdoRa0OTPqSuMV4cRY9N6sbGnS+t+/kOfkOvmps6pgn42DE+cEM77rqbgcvjxFYkbafb/v6ofpNp0/aSV9WbHc1d54EtYreDM5VApnhOLKZK3xOb+R0VrEoUh1gaBN4Vm/kOFawU247uuvniOXBbM/ATsRn1n3ro99ophaXFU1Vm9WALsJyvCYuoyl1i2ylRmnvFiUzCPmCb2EzGWeBx+l1wQt2MU0+QPZsi/k18Vfgt8GmS2DaG8m1RJ+8fAZ9bxtsa4H362ci3KlRqVQG8yFeFPrXOT5fntBXiRKLv58AssZmkGn5sT9J9voUT5+2k39WGcWsrGszdyJgMfHG92DZWKE2fOJGgVv1VTM1w4KBhZNIgJCliKU2dFJ/+DNzLfgj6ZywtD5OlNAPO02jaGeBbYmsWAusNYwmwXQqoFz9rGKuBH0uBZhhw3iEy8D6H81YDjZMqMYVCYIFhvAlMkoIcHuLTgY1SILwDPCOmDc6MnHPdg8BDYgrU1WmgUMgPTZRZrfiIE9hXpEC4BzjaU2wrnHc6vlB6QCdsXX49a9LbGiIFA1siaxoUku8R0wq/UL847VgL/EzMEKRJT3UbcLsU3NyCPYYxur3mKsdexKHIKfx9BIwRM8R6BHds2EDxwKRZt2FDRbCd5hCa1MS0wXmRQ9KZfhGn7X2a2qlp02yVArtm4lG0Rh6ivAwuEMfGKOAdMdt4if8+cYcUDBIf5VLQxmuAeToKw0mnw74GdbCfitnGgJyxTI74NF/qkhxLwFU8ASwR0wqv0hzC/PO2SYyS6jvHjhDG3a+5T/wRY0ZeK7WE8cAvxbTCHfe4ODZ+DwwXU7NCzyVOnFxjGZBfv+IwCjNVZQfNfWg2zzk9t/Jfjsb7KVJX0f8cjolpQ1WtE9tGDZquE1NBYQ++l0ud2LSbrv9C6ip6n0aTmDaUJsS2UY9G00Kh/wUE54odmWktaDX1pGtOoFlMG7w7JrYNq+ZDtoQhAq8Dj4lJOGuW+3ylDkG+Bn7Ts50HPGcYqU+H2zqtcKZ1MfEU8KSYROopnBUzdvbjsulRzQUKDWM58G3tJ1Cr8AdLT6UJ3BReKHOqETN2KMsJRRuCNIs4D3pU+/cClFNO1o5mmUVz8BV8KGbsvABMEZPQmnouU8xHMBjEU9rRWDXHAb8WM3bmW5I3u+bgoGrnMO1orJqUZFj+o5igSdG0BrBrGrMCweZFYmusmr8BzKuc2Oh3CbXXiB1B0ziGBtMSgrBoJhzGFedFoSO07BwlZgTNpONoTBNbY9G8NYjDYsZDEcsI8WrSqDJHwlgZCfy7h9hxa1LOGHnKjk4C5W5teUucmndTzhjuDHFAwWyXmPFqvgWsFTM+vkzr9FAv0povAt+XgiQ/Wqwb+yZNWjUFvip2nKwLZ9xak/KVUGxKzJv5iDXjNmnS/L5JzHjJoIZO1SZFJXpYA7e/Ykt7TNAKUSLP/bT0ulGb8UNTxWn9AD3tU1g7tJhZyEbKMZ74OkmPT4A32PpaEOeif2kxmBbIusavaJCZU6M4uZMCudozMIy3aWWzdsZ0JzzPNgC7uaZaeXXpLJviCSYq43pa1ndA3UBVMaeZp/euQO07P1oZN7wrf9qJ3YNUtSH/A3Yqowuk7Aea7mZzZEFRcVFkiouW6jpD62lB1uUDuf7VwIUHxemIcdTKE50eJmEGHKIHt1Sc6PyQloY1/Ii7Sn+17f1WRzuDFCtfpXoHbhCviySrxPL0bPGcmK7WUFuin3iEKaHE2psb7RhiiTq9qbpPvEjkvEc1rlj2I6MiR93VJc5DeRgfZuyeEnlS7PmA2tXFPh5UsRH+Bsdf4vja8mtVhaPPj7WHtV6jC3nnsL7AmpNFR90RIlDsNLr6PsOq+Ozt5ZNuyUhJNBKTM74xcdkbOkDVrXE+cIgE39SG3+u0BdhnwR6pg7O1/6o+UttE4Zj526J+UidWcnPneL3yUhVRPky5fWXVWakV4os9q62bAHGQmV8R+pjMH+08In3E7HVbD9ZfbL3Y8Mm2F+aOireFNtKLQ6punrJn8i49UeG8r3v1yeaO7/JHDOm02lVE26m/+ni1aCh9dgc+HUDArc9bNfq7nwrxXEJ/GdjNn5jaSOfeG+NB8NVCn4+GF5SuwCPGYf+xu9BHeO59XMpwN+rkpzCdhU98HDaUuwvexJallmvwt6XuRl0dAV39wlOGqMvxj0eLy6GIO5HLUcHg5Ejsq4ph/B+uT+F8v/eWdQAAAABJRU5ErkJggg==;" vertex="1" parent="1">
          <mxGeometry x="709.0042857142857" y="198.99571428571446" width="115" height="112" as="geometry" />
        </mxCell>
        <mxCell id="PVorNcmFDbXd92xEUqX--10" value="" style="shape=image;verticalLabelPosition=bottom;labelBackgroundColor=default;verticalAlign=top;aspect=fixed;imageAspect=0;image=data:image/png,iVBORw0KGgoAAAANSUhEUgAAAK0AAAA4CAYAAACPBHizAAAAAXNSR0IArs4c6QAAAARnQU1BAACxjwv8YQUAAAAJcEhZcwAAFxEAABcRAcom8z8AABUVSURBVHhe7Z0JmFTVlcc1RhNNopnoTMZMMl8ySUj0yxj9jF8WjTgyTsbJaAAB2WRHEdxAEWUHEY0somCjCLKjoNguLXtLmxEERcmCosgIIooNNIuACE3Xm9//em7lVXV1da2d7un6f9/53qt3zz3n3nP/77x7X71XdZxH69atL2rXrt309u3bb+7YseO+a665ZluXLl2Wd+vWbcS1117bDDnNVBsMgiA4/siRIz89dOjQDcj8AwcOvI3sZX/Hp59+uvTgwYNdFyxYcIKpF9CQ0KJFi9GQNOjUqVPQoUOHANIGnTt3Dnr06BH06tUruP766wNIu5f9J3r37v2fVq3e4pNPPjn78OHD90DOd48dOwZ3P8dnn30WQNSA40EkEnHHIO/affv2/Z1VLaAhAMJeQHYNrr76aidkW0dckVjEJdsGZFuRNrjpppu8rEM6N23a9Itmpl4AAv4SWQApK0XIysrKAAIH+/fvr1EEdKaZiQIaAlq2bDlNpGV6kJS0yroirjLvLbfcEvTv3z/o27fvn/r163e1mfqbgUv+OWTWBUwFHAmVSRMRNJFQLyDTHsbGP5i5Auo7yLTvibDpkJYpQnDDDTcEt956a3DHHXeIwKUQ+Bdmss6wffv20yHd/YjLrBAvITGTiTJxVVVVsHfv3n8zswXUd0Dag61atcqItDfeeKPLunfeeWcwYMAAEXgCx04103kFBO3IHHWbz6xky4SkTEUESNvSTBdQ38H0oDzTTOtJS5Z104Xhw4cHgwYNehfy/peZzznIrt9h3rpQRNOcNRuySpRptShj/3JzUUB9B6T9H5E1W9JqqiDiDh482JF36NChD1D/y+YmJ4Cgbcmu5SJsbQusVEVTCk6CYM+ePT81NwXUdzA9GJvuQiwZaW+//fZg4MCBwT333CPyvsH+ueYqY2zZsuXLEGuyyHr06NGss2tYtHhjarCrvLz8q+augPoOSHtlrkmrOS7ThODuu+8O7rrrrk+HDRvWzdyljd27d59Ndl0nwmay0KpNBLbLzF2dAtdfsN2/GZgafYtEcD5J4SLWBj9nUfvd+tCupGAR9vdIpQiba9IOGTIkGDlyZDBmzBgReCLu0goGGbAVhHXMymV2DYvAtq+5rBNUVFT8BKIshCibyPQvMTX5nRXVCdatW3ciBL0Jgq49CPSli9YHuuqQGI5Qpm8OpyDftCr1D1dddVWZiJoP0jK3dcS9//77g3vvvbeUspQCwZx1qBZIuZ4OhEV3HRizSuz/i7nNO7hy/BM+d+tkEVE8aMNvTCWvwPeZnCxrza2bz+sKpjWCtoqJoLjT1m9btfoHpgZd9NVtvkg7YsQIR9wJEyYo625mv8ZFj2WBWQqcApgvwkoEtnU6NcBfP/n1/dJWgDTPmUregJsT8fOq/PkYeBFpJdpXsqBdq61a/QSk/WqbNm12am6bT9Iyv3UZd+zYsfvvu+++as8wfPjhh2dw5q+0QawW2FyL+Wlu7usE+L1bfuPbAUn+YCp5A776hn3rhCHzOv+CvmTxoOx+q1Z/AWlHiaT5JO2oUaPc4mz8+PHKuhGI28XcH8fq/fvMsd5UwHxQ8yl6kIY58ybc1elTXpDhP9RHXZbVDp2cAvt3mUpesGHDhpPwvUX99jGw6dEx2jCez78lHs3YXsPUYAa6l1nV+ou2bdt+k+nBQRE2n6QdPXq05rYu4xYVFelbtF5cjn7CImC7Bk9nvw9qPkVgsLpb9+sU9HFM+Okz5pJLdu3a9TUrzgvweb4ttKIxsGlAb1NpmGCa8PuuXbvWCWl1R0H3cqdPnx5Zv379AQ1eXUwJJJZtNuPyROt6nYOsdi7t6MjVpU6eeYCcbRVjHwPdMWBbwZTsFFNpmGjVqtU3mB7s0XO1+Satjs2dO7cSokZmzZoVvPDCCy6Q4UyQLxEYxHbW7UYB+t0xTFo7cTdYccMGpL25e/fueSXtsGHDgjlz5lRB0CoRdebMmVVapC1fvjyST+JCVEdY9tdad7MCdprQ3luZGz5Om/+ArEbKmCfO59hdlP1u586dZ+LyeKvi7o5Q73LKm5Ntm3PSNq+srNT2DFOpEcyDf4UMwMdM9EuQ55F5+HuA4/3wdwXSZOXKldWec6bv7a3vThRnjm1HWscLhG5D275rVauBq8OlyFj6sIy2rEFW8Xkecr1u6ZlaDPD5I+y2xW4L2uyENrTYsWPHV0ylGojdxcSmpXRVD/2W2PlvK/4r9GB3+/bt3xRR80FaHRNJaUiEToqgkdmzZ1dpuiApLS3NG3G1Utb9R/azeoySsf8itibQ/s8f4DVojhgPfL3HJnoJJvhf51hMPQGy/LupVIMN8Dplx9qAbhV6m/BxpVV3wH4Mafkcc+cgHrSzp1WNYs+ePRfTjlXhfmo//JnyfZB5ZPxrTPhsgr+/3pg24GeOqcQA/V8l6i/HbzGVWDCnvUREFWFzRVplUh2bNm1aJY6rtHomwFHSjh07NnjwwQeDcePGBWVlZY64KleAcyEaJIHAP2rdzAiYOB5bz8iWvwNQkwjoxtzvxP9pHNutRZH13z/Pe4mpxADd8c4QSCUenojo3m4mHLATQ9pkItDOzlbVoaKiopdOeCFZOzRuAsQtjV9ckoVbqswnJG0FbLc2FQdOgpMpe1cng7cr0IdSU0mMjh07TrvuuutyQlplWT1EU1RUVMngHFOGVUNs0KKknThxYjBp0iTdWYisXr26yg+sb3g2om+f8LVDmc66mBGw1VkB9O0ikNFvkcLw9zwpv8+qOhhpd2lwVV92lFESkRbdYbIhIvp+SD+c2QSVqx1eR2B7s5lxoLwaaWVLdeNFoD3R25Hst9AxtTnsR+MjqP3x4ySg+4KZiII+Tbcyp6cTgfhVMDbRb0rxVxTWkR8SxH7I/R1TSQwIehqE3d6zZ8+sSKv5qwhLBj3KHOVYuOPqaDxpH3roIXcrTFn3jTfecMT1gchU8KEYaCBaWPcyBvbKZMvb1iBj/wB9eYzPw5ER9G8qh16DuPqKOCaLpEpa9M6Rjs/mipl8ibDUWcOxBzk2AdH8Vm8YR9tk7auVtBKOV8ULPqrw30n10DmdvlTopKfM1fHxZH87Uob8ReVKRl5H/TKdmIel9DQd/diik1q6EoHt8ypne5n6qL6G7dCea5yB2tCpU6fLRVQtzDIlrfaZyx774IMPKkVA3ynfIAJQjbSTJ092AnkjGzduzIq4oaDMsm5lDMx8AZvvaYC8fYFtR1OJAcebiKT20SFV0nJ8pmz7eIkolpVuNJUo0Flj7Qi3KSlpZQuf/8vxH8QLpPmBv7SjO1z1OO7qqb0iHO0YHb7887klpD0YnjKpX9R7T19smJqD+qoYxhOT7R3ob7R6TgS2T1rV1MBibKIImglptSXLVr399tu0sfpbBmpsTaR95JFHgocffjiYOnVqZOvWre4uQ7huKiJ/CjDB2cp8KuvXgIifSLs5TFrLfHeaSq1IhbTKRnx2817vR+DYbFOJAeWvqR1hXbZJSWvj8aYVJwTqJ+DTvYbv61l/q132Bez1CftQ36TPGCea+oyN19VY+WwtURs5GXaw/w2rlhpat259EoT9U58+fdIiraYEt912W2TNmjWV4U6HRQ1NRtpHH33UbSmPMLWI1LbwiRddMpVRCNBF1p2sgd0V8cEWAfE1n/ZdaGo1IhXScvznareyq3S0lT71LjCVGKCTKWk3WnFC0LazFcNwRrQsmPBOx7Zt205G7+P4k432DzeVKDisW39/UTn2ovZ9PfVZYB77W6uSHpgenMWi7FORNVXScjxSUlJCH6tP0r3oeG2knTZtmtsvLi6OoB/xA1mbyLYASVLOgqkAcnWT3bAvH2ARjUyxBunBQvJkqxKDVEiLvavDPqRL+S6ImfCeJjp5IS0+3Wrf17EsKNT44yaUPRuuY/vzrTgG2D8Pm5U6Mby+BBuuHuUPm2pmYDHWQT/UoV+bSUZavZV7880367JeRYOSkixV0k6fPj2YMmVK8OKLL7p7u6qXyJ4X32kF0JqfM2D2BHwslX2fgbx48gq0cxP+21q1KFIhLce6y4a3a2uB9zmU8GtndPJF2p7hOjop2W5O9lNSlE8K17H9Gh//ZNp2i6YF4TGVHz7/karZf83es2fPcf369UtKWn0ePXp0hLRe6+VcDU2VtDNnztSJEKxfv97dw01kT8JAuEBx9r6Ti3lsIugyiP1pGnghUT81EAIDP8KqOaSYaas9J0A9PTie8D02dPJCWsqvC9fxpOVQzkhLv/rEk1ZtIwavUzU3T+CRaZcwV01IWhGabeSdd96JqIMikG9IIkmXtF5YmLlLVbw9+bNL9EEIe7Y1OW+ArL/E1xwI7FJsfJ912RPoY3QOmGKmbRoeSOqrTxHqnmMqMUAnL6TFb5twHcWcOnvVB1OpBvTc6/2+ju0vsOIYkNj+FZtH4k96xVAgJpNMNTuwGDsNwr4tkoq4YdJqsabnBxTwcCNqknRJqwdrZsyYETz99NPKPNUuz+q8CEDZFdbcOgF+9VsMtzMAW8PkkQhso3O6VEhbXl7+j5QdDg+mgO50U4kB9tK+5ZVipj1f7dRJozpqq+rRh4tNJQZ6roI6H1hGdmI+R5lKFBw+AXtvqJw6Ufu+nsZWsYTYufnBQxZlP2R+WyGiirTKsFqgQbSI5l9h58lEeumSdu7cuY64ZWVljqTelwIrMPiJv5uuA2g6QpuKRULfRzuB/2gqKZFWQCfmSwyvRz8nU/Yzsvi3GdjzkAGIvu+P6lq9rEmraRDt2hFPQo4lXFhBsHZhH16f9lV7/w0bo8O66p9iZdnciU0TPmI/N79qCUl/TYY96qcKAwcOjHz88ccJL9s1Saakffzxx3UbLHjrrbecP9kR6Nw4a17eQLt/QZsTXqYFymMeAVTg2b5rxSmTluPNZUfl3pbvp2Xgw376oa0G2esJbLMmrYDuw6rn7Ss5iMS05XpTcaBcr6F/7PslselSefyTXNS9UGX+RPP9QncQopv6zp9EqOkkyQhMB67S4ksLs1deeSWi4MuRb3RtosZmStp58+YFTz31VLBz507XMWwlfFoo16B/ZbpskT1epe1FBLQvxzog7ZAhHHs/fFmXLm2LPgqZKmkF9IrVN2/Li4ijAdc2vkxidXJF2ib0J/q8CHXcpVtZkf1XODYFeYZ+HPVkk55E4PNQM+XAoVNo92ar70SgfonK+fwbi6+zofgIxK2DM5AL6E1eSHdIgZcD3+BURPp0ICPSPvHEE27/1Vdf1S2hJ+lX3n9gAh+as72voCroiSAyaiDUPz8gbAebibRIqwxFfBY7I0BElb4Xn2l1knifEoFtzDSJ8oxIK6A3UHXDJ4n8Kw4e4WyvrYD+RnRi7lfT/0dV5nU1naTuHpLPmaaiqUNMdpcOfdzH9Cs3r7TTqC9xVpSH5z2pijqeDWkXLFgQLF68OJg/f34ra05eQXtjviFKJuqboIEL33pLh7Qe+LwO/dfwe0S6OmFEOj4fwtYKZFt4WmZ+Y55RQCdj0grUcWQLn5SJRMQWaM8HfG5i1R3o+5Uq8/HzusyFY37jWK8AUeaysbcrEKPlppId4s+KdCQXpH3uueeCZ555ZhuS1xcDBdp8uYueQQRSFtBASnTihrMPx5bEZwfi9XViFftsIeBYrW+/QoTvkXF+zbYZvi6EzM42dVfJho+r2Yu5nHK8qysIAZ1yK04J2LiNPn2eRoH66/sevvLQvmf165ZWzYG6P4Ssnz+QGwLxmGcqMYDgFyW6mmEnZtqTNnB4nhqcSuZJJLkg7ZNPPhmsXLkyWLhwYcxzq/mAnlair+pzf7ZP0/4/Ix/Sl51IOftbOK5XTx5ALrVqMdi0adOXIMsNskEdJ5C/P2RM/qxoDdCTVsRwL/6iMdVgs21qKg58PosTKuoTwvVn/NJ+G1knIW0dgKzA71Zs7WT7EZ9fp09FtCPhFQP/P8Z/B3y2Yt8J+q2S/fAfupcQm9bSVT0SRGv8xbyRkTYIfqnYz7YaIVMRGpM1abUYU7YtKSk58uyzz37PmlZnoPunMBinIl9jP6dv9xKfs4jT6fYxIYife2Dax1TkZTwOUbfWd86yBW5Psr7X+J5XvQKBcT86IeL5gKUruSKtvmxQti0uLq6TOwh1BWL8CnPP3cRIWX0wnzsQtys0N+RYH7L6csuqLp5KHgLbhI8ONnqQrmO+hclEcklaZdtFixZVsX+WNbFBwz9T61iYBOF4apFI1lNcc/Yo5v8bEMxmFpyYoKUruSQtC7HgpZdeEnkTftXZ0EC2vECLPOJTLWbxcVeG1dpCYGzuNhMFhEFgFsWf5ZlIrkmrH/wg2x5+/vnnE75735BAbHo7FgLdpdBcVQtekViifR1T8hAgreaxMW/gFmCAbLp1UaVLUTwJ05Vck5aFWPDyyy9rUTbImttgoVU6pOxJrPVjHBuI1T7Fi1W6/xo3wvEK9vXQ+Uiy7fetagHxIFjuRbcw+TKVfJB2xYoVIu3GYcOG1e+fYE8ThPwMsumPIOq5EvabkGXTe3eqMYLA6Ycq/hz+piIbyQdpNUUQcdn+zJpdQGMGRNOZrstSQhKmK/kgLfPZYNWqVSLtEGt2AY0ZEK1LrqYGEpFWJwCk1a+D54y0uouwePHipdbsAhozmBpMyBVpdZtGq19BjxmKsLkiraYHkHarnqS3phfQWAHZnsoVaQUWE58dPXq076RJk5pB2LdETP1AR7akXbp0qUh7APLW378UKqBuwOX8uWxIq+yqR+IEPXCxJ/TXnmPGjPkKhP39lClTjomc2ZB2yZIlIu2R5cuX/7OZL6CxAuLNy4S0IitJ1ZGV7VamBV3NZDUUFRWdP3Xq1CVz5szRDy9nRNply5aJtPtKSkpy825RAQ0XEDDmP7BSEX0VKZBZ9xw6dGiEHoI2c0nx2GOPtZwxY8br8+fPdwQVYVMlrV56XLRo0TozVUBjBqT7Fqt992pNMuLqjoAHZN1BZh2lumYmHRxPhm0/e/bstSJocXGx3lJISlqya7B27Vrd8uphNgpo7ICsbVg8ud8V1yVf34NLfEYVdC8Xor6M9EI/J5foefPmXYbMhawVyqZkUvdkl4gs0bHS0tJg9erVImzCXxcsoBFj165dP4aQ+nOKTRD2IKL37tcjUzjWnrIa/2QiW5B1T124cOGlZNiRbFeQZT+CtIcg8A7msU9D5jr9oY4C6hrHHfd/TBA+ar0ixgcAAAAASUVORK5CYII=;" vertex="1" parent="1">
          <mxGeometry x="822.001428571429" y="152.99857142857155" width="173" height="56" as="geometry" />
        </mxCell>
        <mxCell id="PVorNcmFDbXd92xEUqX--15" value="Internet" style="edgeStyle=orthogonalEdgeStyle;shape=connector;rounded=0;orthogonalLoop=1;jettySize=auto;html=1;exitX=1;exitY=0.5;exitDx=0;exitDy=0;entryX=0;entryY=0.5;entryDx=0;entryDy=0;dashed=1;labelBackgroundColor=none;strokeColor=#FFFFFF;strokeWidth=4;fontFamily=Helvetica;fontSize=27;fontColor=#DDB64B;endArrow=classic;verticalAlign=bottom;" edge="1" parent="1" source="PVorNcmFDbXd92xEUqX--11" target="PVorNcmFDbXd92xEUqX--12">
          <mxGeometry relative="1" as="geometry" />
        </mxCell>
        <mxCell id="PVorNcmFDbXd92xEUqX--11" value="" style="shape=image;verticalLabelPosition=bottom;labelBackgroundColor=default;verticalAlign=top;aspect=fixed;imageAspect=0;image=data:image/png,iVBORw0KGgoAAAANSUhEUgAAAHUAAAEWCAMAAABvzSjOAAAAAXNSR0IArs4c6QAAAARnQU1BAACxjwv8YQUAAAMAUExURQAAAP///////////////////////////////////////////////////////////////////////////////////////////////////////////////////////////////////////////////////////////////////////////////////////////////////////////////////////////////////////////////////////////////////////////////////////////////////////////////////////////////////////////////////////////////////////////////////////////////////////////////////////////////////////////////////////////////////////////////////////////////////////////////////////////////////////////////////////////////////////////////////////////////////////////////////////////////////////////////////////////////////////////////////////////////////////////////////////////////////////////////////////////////////////////////////////////////////////////////////////////////////////////////////////////////////////////////////////////////////////////////////////////////////////////////////////////////////////////////////////////////////////////////////////////////////////////////////////////wc9CwgAAAD/dFJOUwABAgMEBQYHCAkKCwwNDg8QERITFBUWFxgZGhscHR4fICEiIyQlJicoKSorLC0uLzAxMjM0NTY3ODk6Ozw9Pj9AQUJDREVGR0hJSktMTU5PUFFSU1RVVldYWVpbXF1eX2BhYmNkZWZnaGlqa2xtbm9wcXJzdHV2d3h5ent8fX5/gIGCg4SFhoeIiYqLjI2Oj5CRkpOUlZaXmJmam5ydnp+goaKjpKWmp6ipqqusra6vsLGys7S1tre4ubq7vL2+v8DBwsPExcbHyMnKy8zNzs/Q0dLT1NXW19jZ2tvc3d7f4OHi4+Tl5ufo6err7O3u7/Dx8vP09fb3+Pn6+/z9/usI2TUAAAAJcEhZcwAAFxEAABcRAcom8z8AABlkSURBVHhevZ15gE7V+8DPbJaxRYtdlrFkm1H6CulbVCSVZKcMypZk3+pLVESKpsVSKhVRlJKEoiwlshVpSMgeYxmNmWFm7u+c53nuvc+9773vet/f5w9zz7n3PY/3nnvPebZzXhEOsRWbtO8/6plxgzs1qxxDdVHmxr6L9mdrOjnpC7pdR2eiR6slmSTP5MTMOnQ2OrT4hgTZuJxWnq7wnhKzCkiKL8ceo4u8JmUnSVBk7Nu4+tudx6ikmF+MrvOUBy5Q89rVdWNblIdnt9TNQ1bnUq32U2W4zlM6X6XGz0yvT1VI3ZfP0Zn9tajKM9qS0LzXqlCNSbV38Jx2sBrVeEQ9ur27WlCFlfYn8PTua6jCE4r9iq1+XIoq7FTfhhd8SmVPeAXbTKOiA2V+xEueoLIHNM6HFt+hoiPX7YFrMipSOXJWQ4Mb46noTF3s+reoGDG3Q3OZSVR0IxUuu+zVc/wxNDeeSu58Dde9SKUIqXBJNXa8JBV1EuivScMr6sI/i1AxMvqotrSXqISUn7hhz7b173S1/leWwJV3UCkyFqumCm6hEtD+KLQvv1gfqgFaQd1zVIqIQn+qpvbyB7gntI7MojpF4YOq5hsqRUQtmFTmUklxqzHNKIZRrWKBqjjsRcfeC233pZIkfgvU6GRWonrJEFXhybvzGLTNHpG2UKGtn/gZHgynesmDUHEblSJhqGool02dc6HpD+TRC3D0OVYr/gsVrakUCWNUQ5lMGwONLedGeVT6vDrcjNWKFqqsPUilSBihGrp4A5UkcGOz1X8jAaZVJrWNKnsitZ9qKKsqlSSToemp8qg9zEXLsVqBQ7EXd7i9aqjgP1SS3ApNa8tHzrwIB2OpXjIdKppQKRIagxLcjUqKFdC2Dn9RflAVWb6aVeiUPqOaeo1KiiRdKQSepVpJ5X9VxQHfeSEMvldNWUbE+1G3ABYyo24A1CyjUmRMgrYsM0lXXTnW3uSW5E9Q9TSVIqMJtLWYSshTZPFYvheOEXl1qRgZcbtUY1cbUREoTl3bicrAV1C1kUqR8hS09h2VgGS6xYOorGiK378XFSOl9Clo7kkqKvC5sd53VJv+8sy0GwntZbOR4gOo0bQjiVQhxB1Y04+KkVN0HzSYblgxhbBCYoxD8d9C+RdPXlbkHmhRU/MMUDcPKzRtFNWIFCgWNKeiJ8xQTQ6hghB9QYTiK6oRhftmyKJHyjCRsFbLZ8/r+yhSctq0HZPeTeeqmxcUf4pZroXSSaakJdUp/BtCkdLQ6FZNm0R10ac/SVSsp7ros5AkKs6XpcpoUxisAZ12VBttUli3atrLVBtt9EEY2UK10YZ3q0dqUmDQyDOxzLFRI9nSrZr2BtVHF1DLGTtj6URU+ZCk6VwJ5JzxgkL7SZpBTzoTTRooZTgf9G1iHp2JJo8rQaeGM0X81+jONQD4HjaVBA0uD0IsVzz3RvuQACrTDLFb/dn/lvpXi1akwaQevK3tBKjmK5qpf/07Uz0BVKZL1yecVH8/TPhH/bGYXlEBVKZN5DL+BJ0UV6Mbu9K7daqYpv5ou9FX4pmV4QZqwk1LnQVpBbfVhr/R7tjeSsjxsl+AMPkQNwPX4e9R7tj5Ssg59PErzivdW7t6E52ODnF7QZYPqXQ+OtQCd7cv8+l8dOCeYc7vcXRBVJhDUuxcrUcXRIMYGAed8DBm5UONHBJychiE10+thZJkIV0RDbqQjH8axYMPcUdh8OFJDhamS6LAmyjiTLKoCN91n7j+L6jRCm6mS7wn5hcUsbOMuD5LHewRdfQX+Cm6xntuvEwiMuYtgr97RhnZE5/RNd7TkSQYMOXpaFRSCBSvkQRHmtFFXhOzlQQ4Moau8poq0K1H9xqJE8Clxevg79d0ldc8oho/Vym20nAzA+fqG9VFLOiLzAfkKTNV48ojHEOJCpLsVrL8DBxyH5CHQHzucWnpfAlSkMtdhLgTjjyJgPpQSQ0MubVFYS5Ujkr9xLXgo15H13kLdOtvotgq9ZczXKxXf85dTxd6SppqenLcd+qPlWEYJvQiZmUndodq+e2VIMBGOjjfvXWYItXNFDnJH/BvriXqvIGu9JIe1DbQC8Mt25oegr/IhXJ0qYfMo7YllzpSpHW7qIlfGvHeuRdnat4nWwhxFxztiBVVYGBCptO13lHX0IT3KgvOkCrKmUl0m/BSD9Fd/fkrIexsShVl9ZQNLbOCOuUlegQnSw28Fqmx5hP1EJzzjoQD1LCWPV85P0yptdmwMQMv9gzuE86cegPlPO0QYjAPAXvttX2S2kWO9WsNKtOPydbE0yyPEyE/VY1ehUwn4DRIvWC42C7hRP8IXe4NRY+oNntVexnUYF8+qn43DMU8/B45MAAel1ZFPcycsrLjfjmKgBGwlQe8IwYSRDCcfR9lHhqcGA42DmS3ZbNsjsgB7weF6WP6/0lRdUXWKzQ0YAyiMxY8oaRSzwoaU0mUB8cL8j7ViQbwbnnpjoe380hRKt30HbM0jusaRAKEDGG08ojRqkE9c7UnOHsM8vVExfdUKddDdzxohSPgMJFsWMYyDNWBA0zrAcdeAN2K2SEpTrZO+n/VqbqQzeCdOx669axaTNBPtzVyWNfK+zpSnkPH5l7PfEDQrRuFKA3ed8UHrWCQ+tUIni2Vd/lddXDFM+cepJpMEc11Jeby06IYpKxtEP30oflQB8y/0nrThyKlJPi9B/XR3T47m0gFAqRuFaLRz1AnWTAQBg/jBY4QnEuN6WWuSmlFqT/Lo6KmBQ9S0z3K00B/N5GBAY1K8FgpqUJ0Mg1LSV4DqIwYnqf2A7n4uVRRzWJw9cfKCMFuRabqTm+LVGk3sxfJG+cedqviSFuqEqIKPLuGVHGnmbjhjXPP6NbPmLpbDR4uU6ooY7zL+Zasr3Chbs0ZQGWgul2qtKr1nhhMFZGAcUCpqk3jyylqgl3JpRbprGvjS6kmEtB6UxwYaCaf17JJLfmkGYf420zwCpux1JbiwHB9PVldsJd1qdcON0wDhQdpy1aXwNFn0TSux6TeMPZvOGegZqDIwLdVn+AkZ6ZXl9X1YTJVUitMoo43WQGfjATo1oM1mi01x4GLsxuK+jDmbhI3TodYKHJ+1n2/qb8n7esgQgbeVmWE37rINLByFqKna+8MpkMdnVRFd+6BbhEJ0K3ocEh51+JysfL7MHjQ0ML8H1wfPqVUp13Uc9Hrz3Gxc7b3obelNNzwtVgIG+hWqbzo1H3TtOsMfuhomjdgWp69lkphMl41ojLPDWqnYTq4wUqLJ+9ZqLuHSmECM+d9VCCq4joD5KItsRSTiF+gUnhcc1o2cZ4l+wPorETSbdly18Db+wOVwgMeye+pQKRsVpUGJ7pTPQF350JEmXsTVRPPUwEZwhNvgLdL0ykAnoTInHuQnnsvFRRV9Dg+Z+9ddFaBecSR+ICuU0NPBlu33JnpUIy858wkAnjDtZ+oFA6wIuhbKsgGjYf3GCw90H6HNVmK9WawGTK1I8nce141YMQu7jQsjjHXDIaDLeIJfTY6b7xB46AcQeYeLGu4G4/jJ+mj/7bG+uqOnUI02AB1ksXklMaODd9VUFbFxjLKwHEDPaqszVJDbgOYX5U/wPzfHHoArsQZeXvYPqB26uOY5z9AD84dfRjKDQ2p8s7T6lhNexWWl4EJmFNDHYYDLLdRg1vFT9SR4nPyFJrfVVLyDTgn2aay81GBDjtzD/xZchB+GPx5kmxjPRlqa4bH5SFdK82WOhMaC+G6CiqpUeh8kUQIHymU4UrYpIqyH8EVkpVVxWH197cwXQUQ0N54G4XwNW12cTohuckmVYhUfIU17XQPuEfhJni9rj6cpT+h//BFUKT7c6mipm2TArbcMARittPHgdVKHzVxkCoHfktG0AKqDY3quh9Ckj/B9volQbTbJlXcwdOf0sOyKFlW0WGfcCNaknapogxLuM1vSJUhYYbIVvm6812kCvGkeYcGUlUoxBshsqkOg5urVNHMsNqtS7WCQ18Nc5ZP6gaVYa5xkiqK6elHh3TXbgg8QZ+90IUqLKA3xFFqTcyf4G7s4DEGG22TgxLkKrVammkeDKW64CnCvOza1z4bPLhILTsZkzIRth43SG5hEQXJomSqJxyllhxhhCeBYyHnAT1Nn9TJnW1ZJO0gtdATPO6sKAjZVfC5+tj21PdhHgUuTGE2gK/UzmwA/aIHKrBsoXVQlDiuPiWHpMZLzFt9YoxhhKPP1JTaxlBw5KAi1eOG8KlQE7xgZj4DaTzNmeL950AaXK1SmzMH53qwxTDOEmrHgnqppyy1ZHPY7h4wUnGpyYvM2/EjqlUUZwnVBwRyRlNBiLaQ6YJsVmu0b4Bgr5KaNNtM39jezRg8e0FFaB1bBl67plRSPMyCgqvvEqXAZN8myk2FLw3s7cvc4DVB2QjtjYUlijbPXFdDlZGtoe3x61h46IC/hlguj4WEhmNM6QkMmBpLqKATmwreJEdOjLeYkxLQfyy3KyBgalhcs0ChAWzVICPjRd8UGEiHojBbcJRTY0Ceky6QOFTXfE1y33CK9YJeq31BpWB4QH3AJURSaqwlpCEVYJcJbZM6eTyEjoUddt6lgg8lcC0xsgVNKgemwPngOzYG4lGuCxaS+WYaH7tqgq3hfPBeW8id5RtZWBhijgqKQx2o3s618M5/SaXAdFaX72LzCaP8UnXSwjsuG67B+HaiBJUCAuHkN6lg5QGwnGz86Zzrgz6gYFc6x0F6llMOQlFY3+zAbDToraBFybaf8AssYMgyFmybNDainqtQ/NaJumWTbvM1KorDxmgrqRQImC4ckoZG6gnal8eJZDhYIZoZGkSar9t9mao/5barlg1Yl+KzrLWmEXjccLOccuHoK3nTcdcOyR5y1pjApjRB7jYU/7u61q4D99GN4uzxyghHTzusVr8brle8YhuIboHaZ6jkH8hAsDk9KxvukA24uRGTKkoZKRS7rTnEiTBmr6aSfyAbz7o0u7s+jWaNJW8DSl2FBfGgrrLnT7doSvBun7HPgY5ANt5kKigqGMbHeiPIiVKNTZOuRzVJspNHVVCpDiaJOgHWfLIno4seD/t3tDlc2aRKTUO/HXlTTVMOt46ZSCV/QMbQP0ZqeTkjmruOGx0+UkUlo+t/uZ2qRCI4qoKJs8BSXr3DRFfji4602M6+UuUDoT/mV1/QJyKwIDKCiLNAkgkNY5WNjBPLF5U4SRVJhjK+labVUVBytLst4N5aOGT30bWGrNGWLypxlCrEYD3Wc2UCaCIYMrYGDpxopGKPoHfUMXLd7V9U4iJV1MONPCSblWKD4fHA2fGD1GWqW4fqvtlL1h5FUKrDcxIzWrfVs8fJRx7m2PMBs+Mhwe850Uh3Lmjf+n5RCUo1QwKMW0BNU/yQQl5bhwnJAnbrk0P16SVzhMMXlfiRKhKe0+e/rAFo7kyhM26kgHlmeKrWWnfWNPEnVVqWhnGCUeFA2fGW3NlMdyeKf6kicZrFrXExQAANdyVE1vhZEBhAqhCtLDaR/wBaEXM/hUt8qzofAkoVpQwXusR/djx2q+TKcrceRQJLFaKdMd1rP1KVM/C2Kk45vi8mKDXABikVDE/ZJb9J1Ga3Zr7gd0UTSvUf3G272XQbuRkICosbb78tnGshsNQ6/MHUZlKtEymWjErtG3cXSiCp5aaCG8xgK9U7MZCu0cmf7dYf/qWWGMl2Jobx/LKfJGrw2m9JZWk+p8c4m73+pMb3ZQ7FNbfD1hB+kqjRIdZeiHtwt1Zgr2P3+pHagXbKVayU+ldtcKo7G2sKCPn9Czlx97F1Et/j0g0LrlJbGhOslAkfRK1+l/MsIoF7oW93+AD4YZBPfNLuUCpLVUEaM+tWfU8ALBj3yCjsp2Bul9rBTIzIecO2hSZKZRsyKmrNM4NXa0xlCXfOdHsP4yHtuA2VJDFdzS7KeN6iEDhIrTDNTJD5/n6qVODSer43KQcMnHMWcz8+1Ygja0eHMZedj9RSY82khp+sI1EctOEWGYV5364KFRlgvgb7Ug3l3yY1ob85We3qaX9wwOnoFhmFrbB907BKDDukTgBb5GsFWKV2Ntde7e9fiCpNcFGc8w4JcTAPO6WclR5nutPWYPYJl3qv+bQfG+XkckkCr+17VLJSW3X6Kef0uvJTzQW+n6il6ShVLSprAlYFcP5FZ00FNxL4w/cmSB5Vp1ydUknmW3FlXk3RFI72xdR5T49Fa1fmuq5rgG1j8h2TqGE/BT+e1cbml8qc2Blmp4Jd4BgFPvMTlesKV/h6fmW3qttQ4Hcv0tYb4dOKbOucqG3yuwwVV3bavdyKGqrLjXUpzsT0dN7B44/HXEdZIAZWsR62evSBbupEwEBt8VE277DkzDMBMzzRHX8rlRjQ40EEpcvPgvfA4GKagxfOTie41DfOEqu61dHpbudaPT8FWef/5iK4b4KvOx7e5H2B1yU0ncOSaBUFB54PvGAENxPw9drCqBVog5Uyfdmka5K7/KFAuRGz4ELDTaIDb6v/7Z8aTLcGdTm/jfKfqNYBrrJ7bWEQ9rdoKrHTCnPKduLiwrv99HBlsODtOyTAruA8iGulxgTn8JGVnwe5uwJg51zTjYXAIOyyyjGu9UKrSu3OydlukRT8OQSeLil5W9XpsVML5YfyX/8IzLpHHeMLD8FJq3MvTmmPlxyWJTedbXtRguCvlxxmF9yv32p63qSeFB/vQZm+5nAfEle/7ODzKoFn5pzFuQd7+Nv2Eag/zbZ4gHNSTas5Fi/A6dU8aXzvOJsCjJ56SxI1OEa5uy+x09em8cnyyJDd3Vupme5yrXuYpv/vnN6T+X8j6+N7+TsByY2WjgUD56wZk6n2jCXhYuv453T/k+KXRwvhMtzc2lJpYqbY2bQ7W3/I42lbB5s7uZcDbZm748EnrDsF49os5nnuF+a2bf8Ru3c/dVVZuxAhyoUtpO9imQ2X5yRXn8Bnh7PzjNgVJKTyPU3AJzwODss9ZUmS+2NY1dsNd7NkQ0e8a0yqEC2WmR2Qt6B+0UdYxoGmre+FkqZCiemgateefLV5TfO5/EXJ/6ZdYlO+wmydEZCzSBXi1oVsuFzSUCTP5+n5f7+SIq/BrenNoRich6dEid5GVq7i9Kwk0YIZstoq5oS0SbUtt/jyNnHNMNNWka/SykcSSsJ/xFzP0kh5mc68TlsxIdsGJ4pW/E59YRnNfKQKUW+OqTCqlArR7kv+5O9eDiUzl8G68F6StbilEG35ELHUNjWiVNt0XnumqauDWVfX4ZU3PCxGdjeyf7J8wZnxquUt8nHGgNTsmlQyqPEyy+Xa3FGIkv2svy1h/qaFxcuUv6qTVGM6sfyT3AUO+rWLVCGqTFHLIYgtylRu9aFlwYm+PBq6FTk6U4XhurL/X9Z89fz54CpVTlITzDQV7ZfH5HeoOZk9Mgfp5zr0bs1f01O+WXHd2dLlS7MtD4yJH6lSixzDBopfH5eaffFuxtCpJ4Jit154XX3NhJ4sxyYzzaXZAFKl7TmcbaG7b6B6bpu9QwPc43AFdus6NUUUeozN4Gen+fGHBZAqH6NBzDg5OFLNcPVx/3/M/rhZdeuR0vJ79ma7rJx6nv2SiS8gNcdvOnTiE6w5WApWDObYPeCggGUK00Thx9k0dWxCgB9hA6nWUcKXwqlgVSEZr9XHkHcO3CEY3Ef0MHeZ0Q6Pta8D8iEoqfLR7IJ3FchZj4pmV3kCt8lgSuDBEU7JDzaClCp52DK4K9TPZjWxxEC09CFBpZAEL1WOx0zhUKggAP5kALGnv4Nl60QoUqXCgT/pQGTIF4nNnzv7BJ1nHJpUIVouBwlIPVHUGDZ/7B7IMGOEKlV+4mNj4u8o/kNH7k5NR0DqlZB2u6xpqBevsi2osheH8GMwIPVqCLn1SWlmuuSboqIRLZUsCVouSM0LEGoyqUG/egP8UUu+yKls4NI+DTIfFaRaf3rLnaozmI5xYDh6bOJ7cattaVBZdSFIrTKNbXuUPtgcDhJ6sgGzYFkQSV8gVWO/C+JGxSlsOfCeftZXM74Hm8sLljn/qCEDpQa8LZWmMD1qR6rvr37FdzPywySfB8iFQqkB/nNVprHv+XN3Z7dSXFc2QWif+ZWLUm0Gv5VqM1h/bursviAqtgvfsMjf90WpPjljJkmvmu+ntsFfIFTRkevey13lolTXPIhas9i7YlpHfnjQSNCQLHdZeo5SXYL0ddLYdL0mUIqGzn3GVruSFY6dh1Idb1z92cza/TqUddUtuf24yqH7UKrSRWzcvIDZlG53ypUWnzIdY7WPfx2l+iT7Nl3CzLhlPs7KILjtI2aRrjU3KgFQqm3V+F1fmP/TvMXhbiGboqvrim8tjw5KtWz/24btCpP7URCDpSu1X2Mz1Dr2w3Mo1fh9IhHbnoWJc95ztMhC4MYX2aYVG8kXokvVvUeFH2Wj6eW5XmyoXW4cswO39sDV2ih1GhyXHMQ0+Mw0r35PofQQ1uyu3kqpQ6mvy6OyY5j5du6VsJf4OlAklRmYv/UvRkreW6LqZGYi//OSp1vLSWI6sEDDvr5tIGK29gU2rZz0bwWGy71sW9xz3KmjODEpgBUYPs0XWuNWBsfHR2VrXJ3keQ47eBwZHYQVGBlJfDcWxeERQaUlR0rF/zGP2aFgrF1vuG4Y/VTcX/9/MhWFHv4qu+D7XmFtiC7E/wG484uaSQb6jQAAAABJRU5ErkJggg==;" vertex="1" parent="1">
          <mxGeometry x="878.001428571429" y="209.00142857142868" width="117" height="278" as="geometry" />
        </mxCell>
        <mxCell id="PVorNcmFDbXd92xEUqX--12" value="GUI" style="shape=image;verticalLabelPosition=bottom;labelBackgroundColor=none;verticalAlign=top;aspect=fixed;imageAspect=0;image=data:image/png,iVBORw0KGgoAAAANSUhEUgAAAJoAAABoCAYAAAAJpekFAAAAAXNSR0IArs4c6QAAAARnQU1BAACxjwv8YQUAAAAJcEhZcwAAFxEAABcRAcom8z8AAApOSURBVHhe7Z1tTFNZGoCJs7M7k8gPszu7m5nNZn+4a9c4cbKZGP/txh8Tgxl/GEg22awmmyh/TIxfifJjSSbIrijBKJGgxIqB8OUgQmeUD4N8ClSsolJAtHxDS2lLKb0F2t5939tTokLudbYUz7m+T/KmeO+597znnIfe+wq9JKwVmZmZf2ppafl2YmJiX0NDw/Genp7j8PVxv99//OHDhxfb29uNjx8/Ng4MDBjHx8eNMzMzxvn5eePS0pKxt7e3EdpY4BiL1Wq1DA4OWoaHhy3QzuJwOCzQ1jI7O2uB9pbFxUVLKBSy9Pf3zz99+lSGY+W+vj4ZzivDcbLNZpPhWHl0dFSG4+WpqSnZbrcr4XQ6lYDzyW63WwmPxyN7vV4lfD6fDPkqEQgE5IWFBSWCwaAS0K+sRbTtTw0Yl9InRjQHzCeaG+bqcrmU/HEsk5OTyvhwnENDQ/KrV6+U8eNcPH/+XMb5wXmC81nm5uYsME5lLkdGRiwvXrywwNxZcM7hmFpcB5gnIxxrbGtrw/U5DWuZmpOT8we2vFywEQS6AiKwqSb0Agi+BEJeT0lJ+T1b6/fD7t27P4PvnEcsL0KnwDvcVFZW1jds2dedDXCZa2a5EDoHLtULFRUVX7O1Xz/gPuzfLAfiAwHe2UbhMrqRKRB/jEbjV3D9DrL+iQ8EKEj8x44d+xXTIP60trb+g/X9zmDFhpWVJEkyVDkyVEJKxYeVFFaBWE1NT09j1eUJh8N2qMTsUJHa4RgloPqzw743As5lh+psReC+1drjtuj53g7sb7WAvO2Yz+sB2xyQawjzxYhWs9GKFseEEa1so9UtFkzRiFaTOA9YXUYD5yYaOFfRgPyXA/JdDpij5YB8lXnGV8hzOdYKGIPn1KlTv2QaxJ/29vYU1vcKYPDB3t7eC93d3f+CQiGppqYmqaCg4BtYhD/39PQYGhsbDTdv3jTk5+cbzp8/bzh9+rTh8OHDhkOHDhkOHDhgKCsr+wwmJxEWMBHuARNBaiWqqqpWBJx31VitLQae5/Vzvh64HftcLTCftyM1NfWPmC8G5o5jwIDveGVM+Jqenr4cZ86cUcaLcfHiRWX8GHB1MBQXFy9HdXW1Mj/4inN19+5d5bWtrW05cB6jYbPZlgMubQbIVwmQ2ABSKq+wLMtRUlLyt9zc3KQLFy4k5eXlJV29elWJa9euJRUWFiaZTKZ/wjfkAq7l28A3CD+i4dsrNPk00pIQDVjCjeCZP7Kab4KiZWZm8iGaw+GQkpOTv2BNCcGAq9AXIJrElvMN4DLPj2gTExOBHTt2/I41JQRDS7RLly5xI5pv69atv2VNCcFQEw2KFQ/cx/EhGlQ8r+Dm9WesKSEYaqJBJeyprKzkQzQos1+Wl5d/xJoSgqEmmt/v50c0SPJlSkoKiSYoaqJJkuSpr6/nQzSw/iU0IdEERU20QCDg6ezs5EM0uGEk0QRGTTTYzo9oUAKTaAKjJVpvby8fos3OzpJoAqMm2uLiomdsbIwP0dxuN4kmMGqiLS0t8SOay+Ui0QRGTbRgMOiBKxaJRsSOmmjhcNgNL5tY0/ijJtrMzAyJJjBqogUCAX9hYeH6fVCFRNMvaqLhL28ePHjwL6xp/CHR9IuaaPibwUeOHPmKNY0/aqI5nU4STWC0RDtx4gSJRsSOmmj4GYe0tDQ+RJuenibRBEZNNPwgTXp6OolGxI6WaBkZGSQaETtqouHHAbkRzeFwkGgCoyYaftY0KyuLRCNiR0u0nJwcEo2IHTXR/H6/nJubS/doROxoiXblyhUSjYgdNdHwGSD4gB/WNP6QaPpFTTR8wExRUREfotFPBsRGS7Ty8nISjYgdNdFgu3zr1i0SjYgdNdHweWwmk4kP0ejXhMSGRCPWBTXR8KmStbW1JBoRO1qiNTY28iEafThFbNREw2fjtra2kmhE7KiJhg9i7uzsJNGI2NESzWKx8CEafVJdbNREC4fD/IhGz94QGy3Rnj17xodoXq+XRBMYLdFgPx+i0WOrxEZNNIQb0ehBfGKjJZrNZuNDtPn5eRJNYIQRjZ5hKzZaoo2NjfEhWiAQINEERhjRIEl6/LvAaIlmt9v5EG1xcZFEExgt0dxuNx+i0V9OERthRAsGgy/hhUQTFC3RfD4fH6KFQiESTWCEEW1ycnJu27Ztv2FNCcHQEg328SEalL+BzZs30x+GFRQt0cLh8JesafxRE21iYkLavn07/alrQdESrbm5+a+safzRuHRKO3fuJNEERUu07Ozsv7Om8UdLtF27dpFogqIl2uXLl1NY0/ijJtrU1JS0Z88eEk1QhBHNbreTaAKjJVp+fj4fojkcDik5OZlEExQt0QoKCvgQbXp6Wtq/fz+JJihaohmNRj5EczqdUmpqKokmKFqi3bhxg0QjYkcY0WZmZqSjR4+SaIKiJVpxcTEforlcLiktLY1EExQt0UpLS/kQze12SxkZGSSaoGiJVlFRwYdoHo+HRBMYYUSbnZ2VsrOzSTRB0RKtsrKSH9Hy8vJINEHREu327dt8iOb1eqXr16+TaIKiJZrJZOJDtLm5OamsrIxEExQt0e7cucOHaD6fj0QTGGFEm5+fl2pqakg0QdESra6ujg/R/H6/1NDQQKIJipZo9+7d40M0CYD9JJqgaIl2//59fkTr7u7+nDUlBMNqtX7OjWjw9pnE+l1BIBCQiouLN7GmhGCYTKZNuIZsOVcA92hJrGn86ejoKGP9riAYDIag8uyAoqCJQrzAtcM1ZMu5gq6urjKmQXxpbGwsZX0SHyhw+SxlOsSFDU1NTeWsL+IDp6WlpRydiKixdmxobm7+nvVBEAqtra3foxsRRWLnI7C3ip2bIN6gvb39FjoSUeX/5+O2trZqdk6CWJUHDx5UoysRZX46Pwdbf2DnIghVOjo6fkBnIuq8O78AS++yc+iWQCCAPzJbl8C+9A46g+5EFNLmU7jxr2fH6pa+vr7KmpqabVVVVVvXI7Avq9VaybrXLXCrVQcOfRJRSYUnT57ofjLgbd4IQ13z0vwd2PDo0aN8loZu6e/vV/9/tsHBwULWVrfAu/V/2HDfG01NTf9l6egWdIkN9026urqKWBvdUl1dfYYN970Dl9MzLC3dYjabi9hwI8ClJJvt0yXBYDAMY/yODZcbMKdQKBRmaeoSdEsZbGlp6bdsm27xeDzThYWFX589e3bLuXPnfn3y5MnELVu2JMLwMbRvXGMH+1D6xL4xB8wFc8LcWJq6BR1LGB4edrB/6xb8o/PwrobC4a+az/p8PrvT6bSPj4/bp6amhmGf2e/3m71er9nlcpkdDocZtpthvxKjo6PmkZER89DQkNlmsymBX+M23Bdth8fgsXgOPBeeE8+NfWBf2Cf2jTlgLpgT5qZ3YK4cCexrgogrWGl2s68JIi4MDAx0J5SUlOxj/yaIuFBUVLRPuVO1Wq21bBtBrCnoliIZsnfv3kS4wW1m+whiTYAioBndYpot83FdXd2PPT09MgVFrFFfX/8jOhVRKyHhf3mo9FFrDlauAAAAAElFTkSuQmCC;fontSize=27;fontColor=#DDB64B;" vertex="1" parent="1">
          <mxGeometry x="1125.0042857142857" y="296.00285714285735" width="154" height="104" as="geometry" />
        </mxCell>
        <mxCell id="PVorNcmFDbXd92xEUqX--13" value="USB storage" style="shape=image;verticalLabelPosition=bottom;labelBackgroundColor=default;verticalAlign=top;aspect=fixed;imageAspect=0;image=data:image/png,iVBORw0KGgoAAAANSUhEUgAAAHIAAABzCAYAAABEgVbYAAAAAXNSR0IArs4c6QAAAARnQU1BAACxjwv8YQUAAAAJcEhZcwAAFxEAABcRAcom8z8AAAnfSURBVHhe7Z1ZUFvXGcftOJm+ZVI7a186jWM7duwkbbpvbmbaaZuHtE1CmqbNQ9vE7Vtf/O73zrgzvHhqFzBmEVgFamwDxixXaBd7wWDAHg9oAwRIyAbb2kj/H3w3RRZaMELc5fxmNOPRvefec7+fvu+cw72Sd20X5eXlrw0NDbVaLJYifkugNqqqqt70+Xzd8Xg8Gg6H/U6n8wO8vXttq0AV1NbWvuH1ens+X8fi4uKMw+F4H5uFTDVAEikT2V8SkDktZKoAg8HwejqJMizzPewuZCoRkohymlGijMhMhcKZ6GJPOSEyU2FgibFpiTKhUGgaSxMhc6fBEuMYJDrZy2OBzPQLmTtINomxWCwRDAbDWEfyO+lBZpLM3+CwQmYhyUFi3OPxVDU2Nv5iamrKtrKywlvSI2QWGJLo9/sdHP8UIHEFs1djfX3987R/WVnZMbfb7chFJsqsT8gsABUVFUeRiZkkxrH9C4kyJSUlR5GhpgTgXdNCmWk2m3+NZkLmdpBNYiQSiSMTK0pLS5/jJklUV1e/s7S0tMi7ZwQyfULmNsAS7ZnK4/Ly8uL169ff4SZJYKx8ZXZ2tjmXjJQhmVar9VdoLmTmAyqL2SQS2J7AGDdgs9m+z01XQSYemJmZkeAw+yD5CCTT4XC8i8MImVuB7idiYpN21omlRQLlMrx+O4I/0t3dTTJ3NzQ07Ed7KduHIBP4cHiRme+eOnXqibVeCTYFSUQmZpIYR7ms6e3t/TmCbea3V4HMYcj8BBKv5bKOzAbNZnGeD4uKivZw9zKC8fWI3W7/Bv6pb/nnzp3LKJGWGHNzc3VGo/FF2t/pdB5BsK28eZVoNHp/E0NiVkZGRkynT5/eu9rBDAwODh69e/fuACrF7eHh4R/w2/oDs84jmH1aM0hMBAKB+qtXr65KlCGZCF4H2uXPHoOly8ilS5fezlZe+/v7j0CijZt9jv4MDw0NfY8364dsElEmY5BYbTAYXuAmSTQ1Nf3s/v37Id49L6A/N8rKypImUBtBEu/du5dUFQiIHe7r69OHzAsXLhysrKw8hKBZ0kkkHjx4sGAymd7mZkmcOXPm5ampqas0AeLdtwxl4vnz57OWR5IYDodTJMroRuaNGzckjEG0ROBL3xhaB9LEBkuC17npKsXFxfshsR0S038KNgk+VDlJxDh4OJNEGZTZIUyYvsvNtMno6OineH2GjAvydWcEn3CXLJMzkSTy1q2Tq0RkGUm0cLOsoN/alolr3CNJ0pMTExN/zHWMQ2ba6Q7/5ORkc54ljlZVVWWViHMfRh9yligD8UOY2X6HD6NNjh8//uTNmzf/hMzMKpPGUkhfyrdEjNc/5O6k5XElypDMnp4e7ctEZuYkM58USqKMnmT++eHDhwWRCYk3q6urs0q02Wyv0mSLm20ZyPwvZH6bD69NCiWTJGLp8yM+bVryLVEGx9SHzFu3bn2KMpvTfcTNkqvE7u7uQwh4FzfLOzj2IM7xLT6dNtkumUqRKKMbmePj47TOzItMj8czlotEq9VaEIkyupB54sSJp5CZn2HM3JJMn883hnXij/mwaXG5XAdDoVDBJMpgAjSAc3+Tu6FNtiozV4lms3lHJMogM4XMdPj9/rHa2tpcJZq42Y6BzOzv6+t7i7ulTUjm7du3T+QqE5k4notELPYPKEGiDMl0Op1CJoFMHMdi/zg3S4vJZFKURBmUWX3IxGz2L5FIZEOZyMSJXCUGg0GJmykOktnT00PPAGmXdDJJ4sWLF7NKlCTpFZKY6Ya2EkCZ7RscHPw6d1ubcJn9K2SG6aJRTidqamp+wpvTYrfbSWKn0iXKIDP7sM7Utszi4uIv3blz52+Tk5MOTGx+ym+nhTIRgaGHtThM6kAXMs+ePfvUyZMn6em6jE+Gq1WiDMps78DAwJt8OfrEarXuRzlVrUQZfBB7XS6XPmV2dHTsRwDa1S5RhmT29/e/wZenD0giMlEzEmVQZnt0I9NisbwMiW1akygDmd1Op1PbMtva2jQtUUbTMlnida1LlIHML5731QxdXV1f05NEGU3J1KtEmVAopH6Zra2tJLFVrxJlINNpt9uPcVjUA313ke4nCon/R5UyW1paXpqbm1Pc/cSdRnUyGxoa9rnd7op4Pr8MohEg02Gz2Y5yqJQN+rsbn7y9kPnPWCwWXbsEgYyqZBKSJD0DmWeFzFQg0+5yuV7jUCkfWWY0Go3xNQgYkmmxWNQjc2Bg4Bmv1ytkbgBm9uqTicw8J2Smgsy00Q87caiUj5CZHmSm+mR6PJ5/CZmpQKZVyNQIJLO9vV1dMqempkqEzFRUmZmQWSpkpjI/P281mUyHOVTKB1PvL6PMlsQAX4OAWVhYsKhKJo+ZpUJmKiRTkqRXOVTKhzOzTMhMBTLNQqZGEDI1BCZA5mvXrgmZaoeetiCZHR0dhzhUyodlnodLcXP6EVBmu1paWtQl0+12lwuZqSAz1ScTmSlkPgKXWXXJxAC/1+fzCZmPwDJNTU1NBzlUykfI3BghU0OQTHr8VFUy6ek8r9dbIWQmw5kpXbly5QCHSvm0tbXtQ2ZeEDKTIZmBQKCzrq7uqxwq5UMyRWamgnisTE5OlnOY1AHJxDqzUshMBvEIcYjUA2emkLmORCIR4fCoC5fLtc/j8VQJmWvE4/EEh0Z9SJL0LMmMRqN5/68O1QiHRZ2wzGohU+UiCSFzdYxc4XCoG73LhMgoh0L9kEzMZnUpE5OdexwGbdDc3PycHmXOzs6aOQTagWUa9CIzGAx6u7q6sv74vyohmT6fr0brMiFxprOz832+bG2idZkkEZlIEjP+0LEmYJm1sVhMUzJJIiZ3H+AStS9RhmRiaVKrlcwMhUIzZrNZXxJl6uvrn4fMi5Cp6p/lIokmk6kIl6Q/iTIkE7NZo1plopzO6l6ijFplIhNJ4oe4BCFRprGx8QW32/1vtcgUEjOgFpkopwEhMQskE2VWsTJJItaJv0VXhcRscGbWYZ2pKJnrJD6x1lNBVoxG44tKkokxMYB14kfompC4WUgmyuyOyxQS88BOy0Q5nRMS8wSX2fpCy0QmksTfoQtCYr6orKx8CZlZMJnrJO5Z64EgbxRKJknEOvFjnFJI3C5Ips/n2zaZJNFisQiJhYAzsyHfMjGxmcc68fc4hZBYKEim3+/Pm0whcQcxGAxfgcz/bFUmyum81WoVEncSkokye+lxZQqJCuJxZbLEP+AQQqJSYJlUZnP6uTWMibOSJH2CpkKi0rh8+fKzbrf7H8vLy8FEIvEArzh9n5+gL9TgFYnH40uBQIB+FfmXaCL+YqNUjEbjns7OzrfGxsb+Pj09PRoOhxORSIR+aWOB/pgwODj4UXFx8dO8+zaza9f/AHRfN3UFRFg9AAAAAElFTkSuQmCC;" vertex="1" parent="1">
          <mxGeometry x="1034.9957142857147" y="512.9971428571429" width="114" height="115" as="geometry" />
        </mxCell>
        <mxCell id="PVorNcmFDbXd92xEUqX--17" value="Conceptual Block Diagram" style="text;html=1;strokeColor=none;fillColor=none;align=center;verticalAlign=middle;whiteSpace=wrap;rounded=0;fontSize=43;fontFamily=Helvetica;fontColor=#DDB64B;" vertex="1" parent="1">
          <mxGeometry x="43" y="44" width="643" height="97" as="geometry" />
        </mxCell>
      </root>
    </mxGraphModel>
  </diagram>
</mxfile>
